<svg viewBox="0 0 40 40" xmlns="http://www.w3.org/2000/svg"><path d="m1255.998 30181c-.25653 0-.51282-.0049-.76817-.0146l-.49967-.0251-.26896-.0186-.29411-.0246-.26427-.0257-.3943-.0451-.55432-.0767c-4.91694-.7513-9.24468-3.2932-12.29695-6.9392l-.28239-.345c-.12108-.1514-.24-.3045-.35672-.4593l-.31327-.4273-.04968-.07c-.47659-.6744-.91249-1.3797-1.30412-2.1122l-.3162-.6169-.03057-.0626c-.14526-.2986-.2833-.6014-.41391-.9081l-.21982-.538c-.88481-2.2591-1.37057-4.7183-1.37057-7.291s.48576-5.0319 1.37057-7.291l.02953-.075c.1231-.3105.25376-.6173.39175-.9201l.27378-.576c.36933-.746.78378-1.4655 1.23981-2.1552l.39945-.5815.39012-.5286.13397-.1734.14588-.1846c2.97188-3.7144 7.24068-6.346 12.12012-7.2085l.5051-.0826c.21213-.0319.42535-.0605.63961-.0857l.26311-.0292.29032-.0281.26815-.0222.38591-.0256c.38112-.0217.76469-.0327 1.15082-.0327.2592 0 .51637.0049.77202.0146l.49982.0251.26896.0186.29411.0246.26427.0257.3943.0451.55432.0767c4.91694.7513 9.24468 3.2932 12.29695 6.9392l.28239.345c.12108.1514.24.3045.35672.4593l.31327.4273.04968.07c.47659.6744.91249 1.3797 1.30412 2.1122l.3162.6169.03057.0626c.14526.2986.2833.6014.41391.9081l.21982.538c.88481 2.2591 1.37057 4.7183 1.37057 7.291s-.48576 5.0319-1.37057 7.291l-.02953.075c-.1231.3105-.25376.6173-.39175.9201l-.27378.576c-.36933.746-.78378 1.4655-1.23981 2.1552l-.39945.5815-.3694.5014-.30057.3852c-2.97188 3.7144-7.24068 6.346-12.12012 7.2085l-.5051.0826c-.21213.0319-.42535.0605-.63961.0857l-.26311.0292-.29032.0281-.26815.0222-.38591.0256c-.25452.0145-.51013.0242-.76687.029zm3.00147-36.7362.00053 5.7362h-6l.00053-5.7362c-3.98333.7091-7.48664 2.8054-9.99252 5.7717l4.96571 2.8664-3 5.1962-4.96931-2.8686c-.65007 1.8017-1.00441 3.7447-1.00441 5.7705s.35434 3.9688 1.00441 5.7705l4.96931-2.8686 3 5.1962-4.96571 2.8664c2.50588 2.9663 6.00919 5.0626 9.99252 5.7717l-.00053-5.7362h6l-.00053 5.7362c3.98333-.7091 7.48664-2.8054 9.99252-5.7717l-4.96571-2.8664 3-5.1962 4.96931 2.8686c.65007-1.8017 1.00441-3.7447 1.00441-5.7705s-.35434-3.9688-1.00441-5.7705l-4.96931 2.8686-3-5.1962 4.96571-2.8664c-2.50588-2.9663-6.00919-5.0626-9.99252-5.7717z" fill="#979797" fill-rule="evenodd" transform="translate(-1236 -30141)"/></svg>