<svg viewBox="0 0 1085 924" xmlns="http://www.w3.org/2000/svg" class="tape-svg"><path d="m329.409157 179.029115c-22.162116-46.917671-68.526988-74.210161-139.094617-81.8774701-105.8514437-11.5009634-204.3049969 75.2551041-183.51760126 231.3219011 20.78739556 156.066796 112.81499526 347.849446 183.51760126 338.603923 70.702605-9.245524 149.037191-137.200403 303.322338-141.022724 154.285148-3.82232 210.662719 156.709773 265.70514 279.043891 55.04242 122.334118 160.232518 122.334118 217.425535 107.979287 122.206207-30.672439 125.382647-332.434917 31.654877-398.560267-53.729865-37.906658-156.81184-36.478588-149.493907-124.073194 7.317934-87.594607 108.048438-36.773737 175.347797-72.850785 67.29935-36.077048 64.23803-138.564562-32.39078-200.605217-295.197438-189.53189-569.652341-122.31292851-553.104839 78.212506" fill="none" stroke="#45220c" stroke-width="8"/></svg>