<svg clip-rule="evenodd" fill-rule="evenodd" stroke-linejoin="round" stroke-miterlimit="2" viewBox="0 0 1854 416" xmlns="http://www.w3.org/2000/svg" xmlns:xlink="http://www.w3.org/1999/xlink"><clipPath id="a"><path clip-rule="evenodd" d="m-20.238-12.769h1906.24v490.622h-1906.24z"/></clipPath><g transform="matrix(.972595 0 0 .8477 19.6838 10.8245)"><path d="m-20.238-12.769h1906.24v490.622h-1906.24z" fill="none"/><g clip-path="url(#a)"><path d="m268.964 599.513c-.734-1.757-1.1-4.195-.968-6.451.397-6.795.693-8.642 2.071-12.96.38-1.188.913-3.132 1.185-4.32 1.153-5.027 4.053-9.497 11.547-17.795 3.405-3.769 5.009-5.226 8.513-7.725 2.919-2.083 3.72-3.02 3.72-4.353 0-2.588-1.793-4.925-5.312-6.924-1.237-.703-2.57-1.537-2.964-1.853-.703-.566-.707-.583-.24-.957.262-.21 1.055-.659 1.764-.998 1.783-.853 3.342-.687 7.228.768 5.027 1.884 5.028 1.884 8.494 6.352 12.001 15.47 12.271 15.843 14.773 20.347 2.065 3.718 3.933 8.114 6.366 14.986 1.137 3.207 2.229 6.279 2.428 6.824.287.789.593 1.112 1.491 1.574.622.32 1.167.772 1.212 1.005.171.891-1.072 2.244-2.774 3.018-.894.407-2.167 1.026-2.827 1.377-3.149 1.673-4.506 2.273-5.707 2.525-1.132.238-1.475.213-2.598-.191-1.465-.525-1.675-.983-1.165-2.53.287-.868.261-.951-.83-2.653-.619-.966-1.935-3.367-2.924-5.336-2.251-4.48-2.572-4.941-3.444-4.941-.794 0-15.587 4.956-20.58 6.896-5.146 1.998-5.944 2.863-6.653 7.208-.188 1.153-.407 2.258-.487 2.456-.196.485-2.7 1.949-5.052 2.952-1.056.451-2.568 1.145-3.36 1.542-2.376 1.194-2.472 1.199-2.907.158zm16.228-17.256c2.823-.541 16.48-8.818 18.061-10.946.453-.609.455-.681.068-2.013-.587-2.019-7.01-15.824-7.401-15.906-.31-.066-1.791 1.376-5.003 4.87-4.525 4.921-6.243 7.979-7.509 13.361-.695 2.958-1.169 6.969-1.057 8.953.07 1.249.158 1.473.681 1.735.33.165.762.257.96.204.198-.054.738-.17 1.2-.258zm-94.167 17.133c-2.008-.258-5.841-1.536-6.557-2.185-.288-.262-.595-.9-.682-1.419-.101-.592-.361-1.074-.7-1.297-.297-.194-.66-.616-.806-.937-.457-1.003-1.443-4.885-2.299-9.057-.607-2.959-1.075-4.56-1.787-6.12-.531-1.162-1.289-3.369-1.687-4.904-.46-1.78-1.163-3.67-1.939-5.217-1.84-3.667-3.317-7.495-6.899-17.887-.811-2.352-1.569-4.163-1.807-4.312-.534-.335-1.522.541-2.127 1.887-1.247 2.776-5.292 14.825-7.395 22.028-4.169 14.28-4.787 16.544-5.307 19.447-.583 3.251-1.671 6.326-2.521 7.125l-.585.549-.795-.607c-1.064-.811-4.084-4.344-5.628-6.583-2.248-3.262-3.148-5.426-4.369-10.501-.156-.65-.644-1.676-1.085-2.28-.44-.604-1.199-2.232-1.686-3.618s-1.455-3.654-2.152-5.04c-1.36-2.708-1.57-3.387-2.19-7.08-.496-2.954-1.108-4.615-3.158-8.558-1.149-2.212-1.674-3.007-1.876-2.839-.153.127-1.061 1.37-2.017 2.761-3.166 4.609-6.012 11.395-11.563 27.57-1.318 3.842-3.39 9.672-4.603 12.954l-2.205 5.968-3.484-.104c-2.911-.087-3.676-.19-4.649-.625l-1.165-.522.978-1.167c.537-.642 1.576-1.679 2.307-2.304 1.496-1.277 2.098-2.094 4.084-5.534 1.308-2.265 1.415-2.575 1.915-5.523.402-2.373.82-3.844 1.739-6.12.665-1.648 1.339-3.645 1.497-4.437.661-3.31 3.511-14.182 4.593-17.52.642-1.98 1.857-5.013 2.701-6.741 2.28-4.669 6.596-11.716 10.717-17.499.752-1.056 1.912-3 2.577-4.32 2.266-4.499 2.302-4.552 3.123-4.634.527-.052.814.054.977.36.127.239.792 2.756 1.478 5.594 1.617 6.682 2.37 9.15 3.937 12.894.705 1.686 1.904 4.956 2.663 7.266 1.834 5.576 2.269 6.486 5.413 11.305 1.475 2.262 3.01 4.812 3.41 5.667l.728 1.555 1.183-2.843c.651-1.564 3.663-9.432 6.693-17.484 3.049-8.102 6.253-16.194 7.174-18.12 1.455-3.044 1.823-4.106 2.311-6.668.058-.302.362-.665.675-.808 1.26-.574 4.646 1.717 6.262 4.236.423.66 1.958 4.17 3.411 7.8 1.454 3.63 3.688 8.961 4.965 11.847 1.278 2.885 2.597 5.963 2.931 6.84 3.986 10.441 10.577 30.547 11.482 35.024 1.013 5.016 2.599 8.096 5.406 10.499.198.17.486.644.64 1.053.264.7.239.766-.408 1.101-.547.283-1.664.35-5.44.326-2.614-.017-5.494-.126-6.399-.242zm316.287.014c-.792-.118-2.466-.484-3.72-.813-7.299-1.913-17.148-2.293-24.803-.956-2.331.407-3.892.475-8.892.384-3.542-.064-4.366-.258-5.832-1.377-.677-.516-.793-.753-.791-1.613.003-1.579.934-3.202 3.401-5.927 2.784-3.078 5.475-5.53 8.957-8.164 3.72-2.814 4.777-3.688 6.96-5.753 1.056-.999 2.73-2.32 3.72-2.936 2.135-1.328 15.36-7.406 18.96-8.713 2.873-1.043 4.148-1.828 5.942-3.656 1.563-1.591 2.458-3.292 2.458-4.67-.001-4.037-2.613-13.136-4.758-16.569-.594-.952-2.378-2.535-4.088-3.631-1.843-1.18-7.878-3.294-11.088-3.884l-2.122-.39-2.399.781c-4.442 1.446-5.709 2.52-6.736 5.716-.497 1.545-.537 1.987-.385 4.295.162 2.461.203 2.609.933 3.374 1.237 1.298 1.655 1.411 4.655 1.257 2.101-.107 2.783-.228 3.106-.552.58-.581.514-2.516-.13-3.848-.618-1.275-.633-1.587-.088-1.785.231-.085.787-.47 1.237-.858.757-.653.931-.698 2.401-.615 1.985.112 2.744.621 3.279 2.199.51 1.501.528 3.673.039 4.602-.596 1.13-3.477 4.145-4.578 4.79-.549.322-1.484.659-2.078.75s-1.674.526-2.4.967c-1.117.678-1.69.842-3.72 1.068-2.54.283-5.091.149-7.053-.368-2.396-.632-7.459-4.693-7.864-6.308-.179-.712.424-3.675 1.273-6.26 1.429-4.348 4.097-8.72 6.82-11.175.99-.892 2.4-1.691 5.864-3.321 2.508-1.18 5.424-2.472 6.48-2.87l1.92-.725 6.72.125c6.582.122 10.511.463 14.64 1.269 5.254 1.026 6.456 1.883 8.051 5.742 1.05 2.539 1.73 3.587 3.202 4.935 1.581 1.446 2.965 4.051 4.136 7.781.822 2.618.903 3.12.893 5.52-.023 5.048-1.948 10.229-4.865 13.08-2.465 2.409-6.359 5.324-9.137 6.84-3.996 2.18-13.137 7.726-15.24 9.247-1.056.763-2.946 2.325-4.2 3.472-1.254 1.146-2.739 2.354-3.3 2.685-.59.348-1.02.78-1.02 1.026 0 .436.048.448 8.664 2.067 1.003.188 2.623.342 3.6.342 3.346 0 20.776-1.873 24.336-2.615 4.056-.845 4.503-1.009 5.694-2.085 1.231-1.112 1.798-1.299 3.929-1.299 2.246 0 2.324.15 1.434 2.771-.997 2.935-1.473 3.611-4.097 5.818-1.32 1.111-3.568 3.093-4.996 4.407-2.63 2.418-4.665 3.869-7.411 5.282-1.482.762-1.603.783-5.833.971-2.376.105-5.292.236-6.48.29s-2.808.001-3.6-.117zm-117.567-.169c-.064-.103-.252-1.283-.42-2.623-.458-3.67-.034-6.812 2.286-16.953.728-3.186 1.399-5.464 2.024-6.881 1.282-2.906 5.837-10.739 7.331-12.609.674-.843 2.475-3.075 4.002-4.96 5.59-6.901 6.944-8.797 6.944-9.725 0-1.473-2.166-4.548-4.438-6.301-1.204-.928-1.363-.985-2.365-.834-.987.148-1.11.108-1.5-.488-.577-.88-.302-1.25 1.689-2.274 1.424-.732 1.834-.832 3.346-.819 1.43.011 2.065.163 3.733.884 1.106.478 2.878 1.387 3.938 2.02 2.243 1.338 5.498 4.435 6.504 6.19.379.66 1.346 1.902 2.15 2.761 2.356 2.515 4.482 5.519 6.931 9.796 4.779 8.342 5.043 8.929 8.914 19.825 2.725 7.669 2.953 8.19 4.356 9.976 1.242 1.582 1.6 3.022 1.069 4.304-.368.888-3.491 3.4-5.41 4.351-.793.394-1.998.781-2.678.862-2.924.346-4.264-.608-5.443-3.875-.442-1.225-1.309-2.94-2.005-3.96-1.716-2.521-4.151-8.376-4.151-9.982 0-.433-.106-1.064-.235-1.403-.483-1.271-2.697-.671-8.308 2.253-5.545 2.891-8.916 4.857-11.2 6.533-1.138.835-2.622 1.897-3.297 2.359-1.882 1.287-2.226 1.898-2.349 4.175-.187 3.452-1.311 4.743-5.637 6.474-2.345.938-5.465 1.437-5.782.924zm15.807-18.949c3.973-1.997 5.475-2.9 11.799-7.094 3.678-2.44 5.897-4.064 6.069-4.442.24-.527.029-1.102-1.859-5.061-1.172-2.457-2.662-5.627-3.31-7.045-.649-1.418-1.289-2.579-1.422-2.58s-.997.502-1.92 1.118c-2.207 1.474-5.599 4.933-7.618 7.766-2.028 2.847-4.296 7.368-5.112 10.194-.739 2.558-1.023 6.211-.603 7.752.339 1.247.259 1.259 3.976-.608zm-176.222 17.439c-2.32-.225-6.385-.998-8.938-1.7-2.703-.743-5.331-2.117-8.4-4.392-1.518-1.125-3.272-2.379-3.898-2.787-1.66-1.083-2.66-2.381-4.27-5.539-1.948-3.82-2.252-5.101-2.073-8.725.248-5.023 1.595-8.252 5.044-12.091 1.094-1.218 2.266-2.349 6.997-6.749 5.147-4.789 6.773-5.67 12.36-6.701 1.386-.256 3.546-.687 4.8-.959 3.131-.677 6.814-.678 8.9-.001 5.368 1.742 8.355 5.52 9.828 12.432.855 4.013.264 6.609-2.08 9.141-2.595 2.803-4.41 3.086-8.653 1.348-3.17-1.299-6.718-2.357-7.291-2.176-.229.073-.697.413-1.04.757-.557.557-.624.811-.624 2.353 0 2.211.904 4.159 2.665 5.743 1.723 1.549 3.276 2.063 6.234 2.063 5.209 0 10.352-1.897 13.779-5.084 2.657-2.469 3.522-4.938 3.513-10.032-.005-2.972-.879-9.595-1.478-11.189-.475-1.267-1.451-2.439-2.749-3.301-.705-.468-1.967-1.487-2.803-2.265-3.494-3.248-5.242-3.932-11.577-4.534-7.175-.682-10.515-.446-18.264 1.289-3.159.708-7.466 3.384-9.814 6.098-1.203 1.391-3.795 6.783-5.672 11.798-.828 2.211-1.57 4.018-1.65 4.016-.079-.002-.288-.095-.464-.206-.261-.166-.271-.847-.055-3.782.376-5.101 1.21-8.284 3.199-12.208 1.787-3.526 5.204-7.537 8.147-9.564 1.539-1.06 9.954-4.715 12.909-5.607 3.772-1.139 9.356-.678 18.347 1.514 1.841.449 3.536.817 3.768.817.944 0 4.26 1.242 5.313 1.991.621.441 1.71 1.55 2.422 2.465.711.915 1.981 2.241 2.821 2.948 2.673 2.246 3.977 4.148 7.698 11.232 1.787 3.403 2.075 4.809 1.532 7.489-.663 3.27-2.78 8.038-4.994 11.245-1.612 2.336-4.596 5.144-6.474 6.095-2.588 1.309-9.816 3.769-12.003 4.086-1.849.267-2.205.246-4.401-.258-2.719-.625-9.206-2.677-11.072-3.502-3.158-1.397-5.681-5.87-5.706-10.119-.011-1.959-.005-1.979 1.549-4.996 1.913-3.714 2.51-4.46 4.264-5.321 1.215-.597 1.642-.675 3.656-.675 3.109 0 4.07.505 6.391 3.364.941 1.16 1.967 2.25 2.28 2.423.726.403 1.925.419 2.426.033.622-.479 1.222-2.955 1.057-4.36-.318-2.701-2.945-6.518-5.724-8.313-3.392-2.193-9.602-2.017-14.42.407-3.888 1.956-5.518 3.488-6.305 5.923-.22.683-.922 2.323-1.559 3.643-1.365 2.83-1.666 4.282-1.666 8.029 0 5.693 1.766 9.319 6.909 14.188 2.432 2.302 4.304 3.682 5.931 4.371 2.809 1.191 6.074 1.421 10.612.748 5.343-.792 8.882-2.035 12.863-4.516.955-.596 2.984-1.671 4.509-2.391 2.958-1.395 4.436-1.76 4.388-1.083-.043.594-4.534 5.584-6.311 7.012-8.783 7.058-14.791 9.021-24.683 8.065zm109.532-.699c-1.707-.173-1.819-.244-2.946-1.859-.713-1.023-.799-2.217-.393-5.465.328-2.618.394-6.021.41-21.12.014-14.07-.049-18.224-.292-19.024-.406-1.34-1.437-2.484-3.21-3.561-.791-.481-1.748-1.301-2.126-1.822-.761-1.051-1.545-3.157-1.357-3.646.196-.511 2.397-.634 6.39-.358 3.446.238 4.021.349 7.454 1.443 2.046.653 4.314 1.356 5.04 1.564 3.154.904 6.42 3.15 9.366 6.444.708.792 3.3 3.438 5.76 5.88 4.57 4.537 5.436 5.596 10.798 13.2 2.924 4.147 3.576 4.924 3.861 4.603.081-.09.608-3.15 1.173-6.8l1.027-6.636-.453-7.284c-.249-4.006-.448-8.039-.442-8.963.014-2.276 1.055-7.785 1.566-8.297.604-.604 2.521-1.261 3.189-1.093.352.088.678.412.816.808.467 1.35-.332 28.084-1.157 38.702-.592 7.623-1.807 15.332-2.874 18.239-.412 1.121-.776 2.066-.809 2.1-.074.073-3.159-4.501-5.059-7.499-1.055-1.666-2.256-3.029-5.245-5.953-5.956-5.825-6.119-5.944-10.838-7.869-7.025-2.866-8.043-3.375-10.656-5.334-1.377-1.031-2.902-2.079-3.391-2.328l-.889-.454-.412 1.009c-.473 1.157-.815 5.883-.837 11.596-.009 1.995-.135 4.209-.283 4.92s-.294 4.101-.325 7.533c-.06 6.586-.167 7.581-.813 7.526-.216-.02-1.136-.11-2.044-.202zm-77.917-64.773c-.379-.379-.759-.969-.845-1.311-.21-.839.461-4.078 1.449-6.986.5-1.475.737-2.529.62-2.76-.998-1.965-.029-5.472 2.308-8.354 1.773-2.187 2.005-.517.325 2.34-1.009 1.715-1.528 3.263-1.258 3.747.118.21.656-.343 1.648-1.694 1.42-1.933 3.441-3.803 4.577-4.235 1.996-.759 3.487 3.191 2.241 5.935-1.039 2.289-3.676 4.349-5.855 4.573l-1.306.135-.739 2.309c-.788 2.459-1.038 3.411-1.477 5.61-.319 1.596-.647 1.731-1.688.691zm7.588-12.256c1.358-.779 1.831-1.372 2.274-2.853.236-.785.238-1.141.013-1.635l-.288-.632-.613.572c-.677.634-3.447 4.674-3.447 5.029 0 .417.834.223 2.061-.481zm-64.181 5.685c-.131-.429-.298-1.055-.371-1.392-.089-.406-.44-.757-1.042-1.043-2.282-1.085-5.328-3.769-6.211-5.472-.852-1.644 1.337-3.358 5.619-4.399 1.912-.465 1.761-.229 2.082-3.234.206-1.933.571-2.921 1.046-2.832.726.135 1.236 1.611 1.236 3.581l.001 1.829 2.58.119c2.743.127 4.328.545 5.825 1.535 1.603 1.061 1.888 2.592.689 3.712-.588.549-.967.696-1.8.696-.58 0-1.054-.076-1.054-.169 0-.092.342-.522.762-.954l.762-.787-.884-.369c-1.265-.528-3.648-1.031-5.32-1.122l-1.44-.079.086 3.6c.047 1.98.17 3.691.273 3.801.338.364 4.844.476 6.678.166 2.128-.359 4.769-1.626 5.774-2.771 1.438-1.638 1.581-4.337.353-6.651-.964-1.815-4.366-5.109-6.711-6.498-4.077-2.414-8.556-3.953-13.124-4.509-1.969-.239-4.914-.153-6.349.186-.662.157-.715.556-.075.556.502 0 .883.411.623.671-.251.252-2.056.138-2.341-.148-.314-.314.123-1.495.771-2.082 1.255-1.136 7.845-1.562 11.579-.748 8.335 1.817 15.962 6.758 18.566 12.027.854 1.728.937 2.065.937 3.827 0 1.541-.114 2.164-.562 3.073-1.25 2.538-4.295 4.592-7.958 5.367-1.764.374-6.51.351-7.83-.038-.413-.121-.558-.008-.767.591-.23.659-.362.74-1.212.74-.868 0-.976-.071-1.191-.78zm-.404-7.035c.095-1.658.116-3.073.044-3.144-.199-.199-4.868.594-5.807.986-.458.192-.833.493-.833.67 0 .6 2.301 2.591 4.094 3.543.982.521 1.908.95 2.057.954.178.003.33-1.024.445-3.009zm48.994 4.448c-.839-.998-1.007-2.093-.498-3.254.226-.517.424-1.425.44-2.019.023-.917.107-1.091.552-1.155.362-.051.582-.31.712-.84.273-1.107.28-1.088-.636-1.546-.541-.269-.84-.59-.84-.899 0-.416.254-.518 1.92-.764 1.056-.157 2.801-.292 3.878-.3 1.901-.015 1.977.005 2.58.722.342.407.622.841.622.966 0 .415-1.208.696-2.987.696-1.82 0-2.09.128-2.4 1.14-.158.516-.105.54 1.186.54 1.533 0 2.281.302 2.281.92 0 .781-.523 1-2.39 1h-1.814l-.407 1.131c-.224.622-.373 1.165-.332 1.207.042.041.972-.081 2.068-.271 2.316-.402 3.115-.232 3.115.664 0 .438-.313.788-1.26 1.409-1.582 1.038-2.584 1.38-4.035 1.38-.978 0-1.231-.105-1.755-.727zm-27.297-.282c-.309-.579-.144-7.991.213-9.55.238-1.037.845-1.201 1.386-.376.312.477.46 1.628.659 5.127.141 2.482.186 4.696.1 4.92-.249.649-1.993.559-2.358-.121zm7.695.215c-1.547-.436-2.716-1.222-3.228-2.174-.376-.697-.397-.924-.144-1.534.39-.943 1.153-1.258 3.049-1.258 3.623 0 5.555 1.311 2.836 1.924-.698.158-1.231.096-2.241-.259-1.614-.567-2.624-.598-2.821-.086-.297.775.545 1.183 2.39 1.156 2.83-.039 5.632-1.139 5.099-2.002-.467-.754-1.632-1.013-7.149-1.585-1.48-.153-1.859-.488-1.859-1.641 0-1.112.517-1.81 1.779-2.401 2.258-1.057 5.273-1.391 7.749-.858 1.458.313 1.805.532 1.618 1.019-.216.565-1.299.832-4.546 1.118-3.213.283-4.863.649-4.511 1 .28.28 2.714.692 4.104.694 1.635.002 3.131.482 3.9 1.251.619.62.707.878.707 2.096 0 1.027-.126 1.549-.481 2.001-1.097 1.393-4.123 2.139-6.251 1.539zm8.726-.045c-.719-.504-.887-1.881-.548-4.499.364-2.806 1.073-5.141 1.656-5.453.367-.196.611-.059 1.376.776.512.558 1.559 2.014 2.328 3.235.768 1.221 1.509 2.22 1.646 2.22.379 0 .023-2.538-.801-5.711-.45-1.733-.632-2.844-.49-2.987.641-.64 2.273 1.491 3.17 4.138.691 2.042.748 5.002.121 6.31-.546 1.138-1.639 1.766-2.438 1.402-.73-.333-1.822-1.849-3.048-4.232l-.987-1.92-.169 1.2c-.092.66-.178 2.013-.189 3.006-.015 1.218-.143 1.981-.395 2.34-.442.631-.557.648-1.232.175zm-18.306-12.345c-.137-.256-.252-.715-.256-1.02-.004-.306-.166-.766-.36-1.022-.449-.594-.453-2.123-.008-2.984.476-.92 2.151-2.387 3.343-2.929.642-.291 1.549-.452 2.566-.456 1.306-.006 1.711.097 2.387.595.447.33.937.6 1.089.6.507 0 1.071.869 1.071 1.651 0 1.082-.485 1.903-1.907 3.233-1.713 1.603-3.02 2.138-4.972 2.037-1.285-.066-1.597-.005-1.791.34-.31.553-.853.532-1.162-.045zm5.6-2.562c.623-.213 1.514-.746 1.98-1.185 1.608-1.517.598-2.916-1.37-1.898-.874.452-3.016 2.386-3.365 3.039-.203.379-.12.43.695.43.51 0 1.436-.174 2.06-.386zm-3.488-2.254c1.247-1.186 1.42-1.44.985-1.44-.617 0-2.625 1.904-2.625 2.488 0 .216.028.392.063.392s.745-.648 1.577-1.44z" fill-rule="nonzero" transform="matrix(4.28407 0 0 4.91526 -428.521 -2472.63)"/></g></g></svg>