<svg clip-rule="evenodd" fill-rule="evenodd" stroke-linejoin="round" stroke-miterlimit="2" viewBox="0 0 683 586" xmlns="http://www.w3.org/2000/svg" xmlns:xlink="http://www.w3.org/1999/xlink"><clipPath id="a"><path clip-rule="evenodd" d="m-66.518-18.867h762.609v655.711h-762.609z"/></clipPath><g transform="matrix(.894954 0 0 .893382 59.5302 16.8558)"><path d="m-66.518-18.867h762.609v655.711h-762.609z" fill="none"/><g clip-path="url(#a)" fill-rule="nonzero"><path d="m-418.834 541.081c-3.09-.378-4.564-1.121-7.933-4-2.277-1.944-5.96-5.654-8.186-8.242-2.226-2.589-4.25-4.876-4.498-5.082-.248-.207-3.823-4.594-7.945-9.75-44.883-56.139-79.751-130.709-97.319-208.125-10.539-46.443-11.414-88.698-2.718-131.25 5.522-27.016 19.804-61.833 28.716-70.003 5.597-5.13 33.073-1.34 50.506 6.966 28.002 13.342 52.964 37.57 77.747 75.463 28.959 44.276 48.231 99.491 58.621 167.949 5.215 34.361 5.966 47.231 6.013 103.125.034 41.177-.156 50.024-1.341 62.239-.759 7.832-1.699 14.835-2.089 15.563-1.387 2.593-79.571 4.735-79.81 5.121-.467.756-3.727.765-9.764.026zm233.327-.022c-.285-.461-71.825-4.551-75.997-4.057-3.659.433-3.76.392-4.212-1.714-2.777-12.93-4.349-80.442-2.774-119.157 1.565-38.48 6.443-74.29 14.98-109.977 11.483-48.001 28.083-87.297 52.234-123.648 8.515-12.816 21.806-29.816 29.512-37.746 12.379-12.739 30.213-26.004 44-32.728 14.633-7.136 38.951-11.649 48.49-9 5.757 1.599 14.449 17.167 23.191 41.533 10.603 29.555 16.175 69.773 14.186 102.39-1.266 20.759-2.563 30.602-6.827 51.801-4.876 24.243-15.563 60.155-25.22 84.75-9.663 24.61-23.053 52.823-34.704 73.125-14.472 25.218-36.988 56.684-52.2 72.951-10.028 10.724-10.694 11.159-18.04 11.79-4.206.362-6.261.264-6.618-.313z" fill="#fff" transform="matrix(1.48983 0 0 1.49246 757.87996206 -171.493924924)"/><path d="m-387.542 518.458c-10.636-4.262-32.919-33.545-55.54-72.985-6.956-12.129-19.248-37.224-24.474-49.967-.93-2.269-2.944-7.163-4.475-10.875-13.805-33.485-24.791-76.425-27.249-106.5-.981-12.002-1.051-38.998-.125-48.375 1.325-13.421 4.919-28.103 8.643-35.305 3.227-6.24 7.565-8.387 13.64-6.751 8.855 2.384 22.249 15.405 35.667 34.673 3.701 5.314 11.04 17.04 11.04 17.639 0 .213.63 1.283 1.399 2.378 8.033 11.434 27.857 55.844 34.222 76.665 1.064 3.479 2.581 8.351 3.371 10.826 5.172 16.189 14.312 58.191 16.484 75.75.408 3.3 1.247 9.747 1.864 14.327.618 4.58 1.323 11.836 1.568 16.125s.691 12.016.99 17.173c1.354 23.273-.669 54.263-3.956 60.621-2.144 4.146-8.551 6.392-13.069 4.581zm171.642-.551c-5.524-2.702-6.992-8.266-8.414-31.904-2.819-46.838 7.039-114.124 24.598-167.904 6.022-18.444 18.888-48.902 26.526-62.798 1.664-3.027 3.025-5.647 3.025-5.823 0-.177 1.632-3.083 3.627-6.459 23.755-40.21 44.729-60.603 56.712-55.144 5.737 2.615 12.039 21.01 13.987 40.828 1.304 13.265.417 51.117-1.483 63.303-4.426 28.386-12.609 59.072-22.798 85.5-1.034 2.681-2.533 6.562-3.332 8.625-16.635 42.955-53.448 104.909-74.294 125.034-7.997 7.72-12.634 9.442-18.154 6.742z" fill="#f7b6b6" transform="matrix(1.48983 0 0 1.49246 757.87996206 -171.493924924)"/><path d="m-418.834 541.081c-3.09-.378-4.564-1.121-7.933-4-2.277-1.944-5.96-5.654-8.186-8.242-2.226-2.589-4.25-4.876-4.498-5.082-.248-.207-3.823-4.594-7.945-9.75-44.883-56.139-79.751-130.709-97.319-208.125-10.539-46.443-11.414-88.698-2.718-131.25 5.522-27.016 19.804-61.833 28.716-70.003 5.597-5.13 33.073-1.34 50.506 6.966 28.002 13.342 52.964 37.57 77.747 75.463 28.959 44.276 48.231 99.491 58.621 167.949 5.215 34.361 5.966 47.231 6.013 103.125.034 41.177-.156 50.024-1.341 62.239-.759 7.832-1.699 14.835-2.089 15.563-1.387 2.593-8.839.991-10.429-2.242-.791-1.607-1.132-10.813-1.552-41.81-.638-47.146-2.808-83.378-6.696-111.8-.842-6.16-1.839-13.563-2.215-16.45-1.101-8.453-4.256-26.146-6.755-37.875-13.096-61.464-29.142-103.064-54.242-140.625-15.634-23.397-34.176-42.157-53.766-54.4-11.696-7.31-21.015-11.056-33.501-13.465-11.926-2.302-10.571-3.03-15.913 8.546-11.097 24.049-17.49 46.989-20.88 74.927-1.808 14.894-1.802 55.476.011 71.271 10.178 88.702 52.933 181.435 120.326 260.982 3.43 4.048 6.041 7.676 5.802 8.062-.467.756-3.727.765-9.764.026zm233.327-.022c-.285-.461.802-2.434 2.416-4.383 1.614-1.95 5.75-6.92 9.191-11.045 3.44-4.125 10.53-13.238 15.753-20.25 54.629-73.337 89.081-154.248 97.882-229.875 2.672-22.955 2.665-57.054-.014-78.374-2.106-16.754-7.264-38.699-12.149-51.692-2.717-7.225-5.887-14.729-9.312-22.045l-3.667-7.833-3.94.513c-11.927 1.555-21.157 4.299-30.941 9.2-22.573 11.306-44.892 32.218-62.488 58.548-13.021 19.484-22.881 38.193-31.125 59.058-15.045 38.079-26.694 86.782-33.097 138.375-4.199 33.836-5.594 57.833-6.365 109.5-.363 24.334-.903 40.875-1.372 42.031-1.14 2.814-2.597 3.721-6.769 4.215-3.659.433-3.76.392-4.212-1.714-2.777-12.93-4.349-80.442-2.774-119.157 1.565-38.48 6.443-74.29 14.98-109.977 11.483-48.001 28.083-87.297 52.234-123.648 8.515-12.816 21.806-29.816 29.512-37.746 12.379-12.739 30.213-26.004 44-32.728 14.633-7.136 38.951-11.649 48.49-9 5.757 1.599 14.449 17.167 23.191 41.533 10.603 29.555 16.175 69.773 14.186 102.39-1.266 20.759-2.563 30.602-6.827 51.801-4.876 24.243-15.563 60.155-25.22 84.75-9.663 24.61-23.053 52.823-34.704 73.125-14.472 25.218-36.988 56.684-52.2 72.951-10.028 10.724-10.694 11.159-18.04 11.79-4.206.362-6.261.264-6.618-.313z" fill="#050505" transform="matrix(1.48983 0 0 1.49246 757.87996206 -171.493924924)"/></g></g></svg>