<svg viewBox="0 0 100 100" xmlns="http://www.w3.org/2000/svg" class="checklist-svg"><path d="m38.5874303 26.6721462c1.0687478.9673265 1.1559929 2.621708.1853949 3.696999l-7.847673 8.7288459c-.4809375.5234677-1.1592662.8397295-1.8768551.7633923-.7175889.1199623-1.4111854-.1635841-1.9193869-.7633923l-4.3623512-4.3622414c-1.0220726-.9269763-1.0220726-2.5846293 0-3.6064838 1.0219643-1.0218546 2.6796157-1.0218546 3.7014702 0l2.411229 2.4068675 6.0111682-6.6698676c.9596934-1.0742026 2.6173448-1.1614461 3.6970005-.1941196zm-.0000034 17.4533272c1.0687479.9596934 1.155993 2.6173448.185395 3.6970006l-7.8476731 8.7244828c-.4809375.5234676-1.1592661.8397294-1.8768551.7633922-.7175889.1199623-1.4111853-.163584-1.9193868-.7633922l-4.3623513-4.3622414c-1.0220725-.9269763-1.0220725-2.5846294 0-3.6097555 1.0219644-1.0142214 2.6796158-1.0142214 3.7014703 0l2.411229 2.4101391 6.0111681-6.6742307c.9596935-1.0687478 2.6173449-1.1559946 3.6970006-.1853949zm7.841125-11.1455265c0-1.9270183 1.5595016-3.4897931 3.4897931-3.4897931h24.4285519c1.9302931 0 3.4897931 1.5627748 3.4897931 3.4897931 0 1.9302932-1.5595 3.4897931-3.4897931 3.4897931h-24.4285519c-1.9302915 0-3.4897931-1.5594999-3.4897931-3.4897931zm0 17.4489656c0-1.9302915 1.5595016-3.4897931 3.4897931-3.4897931h24.4285519c1.9302931 0 3.4897931 1.5595016 3.4897931 3.4897931 0 1.9302932-1.5595 3.4897932-3.4897931 3.4897932h-24.4285519c-1.9302915 0-3.4897931-1.5595-3.4897931-3.4897932zm-6.9795863 17.4489657c0-1.9302932 1.5595017-3.4897932 3.4897932-3.4897932h31.4081381c1.9302931 0 3.4897931 1.5595 3.4897931 3.4897932 0 1.9302931-1.5595 3.4897931-3.4897931 3.4897931h-31.4081381c-1.9302915 0-3.4897932-1.5595-3.4897932-3.4897931zm-17.4489656 0c0-2.889985 2.3436148-5.2346897 5.2346897-5.2346897 2.8910765 0 5.2346913 2.3447047 5.2346913 5.2346897 0 2.8899849-2.3436148 5.2346896-5.2346913 5.2346896-2.8910749 0-5.2346897-2.3447047-5.2346897-5.2346896z"/></svg>