<svg viewBox="0 0 100 100" xmlns="http://www.w3.org/2000/svg"><path d="m44.7949223.30405264c1.2597665.5648464 2.0800799 1.8228516 2.0800799 3.21152509v5.859375h2.34375c10.3564471 0 18.75 8.39355287 18.75 18.74999997v24.4189471c4.1455061 1.8017561 7.03125 5.9326172 7.03125 10.7373029 0 6.4746112-5.2441388 11.71875-11.71875 11.71875-6.4746111 0-11.71875-5.2441388-11.71875-11.71875 0-4.8046857 2.885744-8.9355468 7.03125-10.7373029v-24.4189471c0-5.1708966-4.2041033-9.375-9.375-9.375h-2.34375v5.859375c0 1.3916016-.8203134 2.6513681-2.0800799 3.2080069-1.2744114.5712904-2.8857395.3369146-3.7939444-.6005868l-11.71875-10.546875c-.7324219-.6591797-1.1572257-1.6113281-1.1572257-2.6074201 0-.9960919.4248038-1.9467786 1.1572257-2.6132807l11.71875-10.54672747c.9082049-.92872828 2.519533-1.16308629 3.7939444-.59824436zm18.4863299 66.49277506c1.9482404 0 3.515625-1.5673846 3.515625-3.515625s-1.5673846-3.515625-3.515625-3.515625-3.515625 1.5673846-3.515625 3.515625 1.5673846 3.515625 3.515625 3.515625zm-46.875-14.2529279c4.1455083 1.8017561 7.03125 5.9326172 7.03125 10.7373029 0 6.4746112-5.244141 11.71875-11.71875 11.71875-6.47168081 0-11.7187522-5.2441388-11.7187522-11.71875 0-4.8046857 2.89306641-8.9355468 7.03125-10.7373029v-30.0878942c-4.13818359-1.933591-7.03125-5.9326172-7.03125-10.7373029 0-6.47167859 5.24707139-11.71869186 11.7187522-11.71869186 6.474609 0 11.71875 5.24701327 11.71875 11.71869186 0 4.8046857-2.8857417 8.8037119-7.03125 10.7373029zm-4.6875-44.34082207c-1.94091793 0-3.51562496 1.57470703-3.51562496 3.51562497 0 1.940918 1.57470703 3.515625 3.51562496 3.515625 1.940918 0 3.515625-1.574707 3.515625-3.515625 0-1.94091794-1.574707-3.51562497-3.515625-3.51562497zm0 51.56249997c-1.94091793 0-3.51562496 1.5673846-3.51562496 3.515625s1.57470703 3.515625 3.51562496 3.515625c1.940918 0 3.515625-1.5673846 3.515625-3.515625s-1.574707-3.515625-3.515625-3.515625z" transform="translate(13 13.375)"/></svg>