<svg viewBox="0 0 100 100" xmlns="http://www.w3.org/2000/svg" class="code-svg"><path d="m60.2364429 26.4492478-13.9591725 48.8581921c-.5343739 1.8539526-2.4646637 2.9227004-4.318618 2.3992328-1.8539526-.5343739-2.9227021-2.4646638-2.3992328-4.3186164l13.9591742-48.8560154c.5343739-1.853297 2.4646637-2.926408 4.3186163-2.3968332 1.8539526.5294682 2.9227037 2.4611758 2.3992328 4.3140401zm11.3200151 8.7910054 12.2142759 12.214276c1.3632005 1.3632004 1.3632005 3.5661337 0 4.9293341l-12.2142759 12.2142759c-1.3631971 1.3632005-3.5661304 1.3632005-4.9293308 0-1.3632004-1.3632004-1.3632004-3.5661337 0-4.9293341l9.7387059-9.7496089-9.7387059-9.7496088c-1.3632004-1.3632005-1.3632004-3.5661337 0-4.9293342 1.3632004-1.3632004 3.5661337-1.3632004 4.9293308 0zm-38.387721 4.9293342-9.7441575 9.7496088 9.7441575 9.7496089c1.3632004 1.3632004 1.3632004 3.5661337 0 4.9293341-1.3632005 1.3632005-3.5661337 1.3632005-4.9293342 0l-12.2173295-12.2142759c-1.3627644-1.3632004-1.3627644-3.5661337 0-4.9293341l12.2173295-12.214276c1.3632005-1.3632004 3.5661337-1.3632004 4.9293342 0 1.3632004 1.3632005 1.3632004 3.5661337 0 4.9293342z"/></svg>