<svg viewBox="0 0 100 100" xmlns="http://www.w3.org/2000/svg"><path d="m44.3408266 5.40234447c4.0576145.85986256 7.836914 2.46826261 11.1914053 4.67577873.9228498-.4511699 1.9628898-.7031232 3.0615226-.7031232 3.8818359 0 7.03125 3.1479478 7.03125 7.03125 0 1.0986328-.2490253 2.1386728-.7031232 3.0615225 2.2119104 3.3544913 3.8232386 7.1337909 4.6728506 11.1914076 3.1054661.7324219 5.4052681 3.515625 5.4052681 6.8408199 0 3.3251971-2.299802 6.1084002-5.4052681 6.8408221-.849612 4.0576145-2.4609402 7.8369141-4.6728506 11.1914054.4540979.9228497.7031232 1.9628897.7031232 3.0615225 0 3.7500009-2.9296875 6.7968741-6.6064462 7.0166007l-5.6542978-11.71875c.673829-.7470712 1.5087917-1.3476536 2.3144558-1.7578125 2.6513681-3.1494141 4.3652326-6.9433585 4.9951181-11.1181632h-11.9970739c.3515661-1.1132821.541994-2.2851571.541994-3.515625s-.1904279-2.4023429-.541994-3.515625h11.9970739c-.5712927-3.8525395-2.0947293-7.3828116-4.3066442-10.3857413l-8.4814444 8.3496094c-1.0986328-1.9921884-2.841796-3.7353516-4.9658195-4.8339844l8.4814445-8.4814444c-3.0029297-2.211915-6.5332041-3.7353516-10.3857413-4.308106v11.9985357c-1.1132822-.3515661-2.2851572-.541994-3.5156295-.541994-1.2304634 0-2.4023384.1904279-3.5156205.541994v-11.9985357c-3.8525395.5727544-7.3828116 2.096191-10.3857413 4.308106l8.3496094 8.4814444c-1.9921884 1.0986328-3.7353516 2.841796-4.8339844 4.8339844l-8.4814467-8.3496094c-2.2119149 3.0029297-3.7353538 6.5332018-4.3081082 10.3857413h11.9985357c-.3515616 1.1132821-.5419918 2.2851571-.5419918 3.515625s.1904302 2.4023429.5419918 3.515625h-11.9985357c.6313473 4.1748047 2.3452163 7.9687491 4.8647471 11.1181632.9374991.4101589 1.7724618 1.0107413 2.4462886 1.7578125l-5.6542978 11.71875c-3.6811531-.2197266-6.6064462-3.2665998-6.6064462-7.0166007 0-1.0986328.2519533-2.1386728.7031254-3.0615225-2.20752056-3.3544913-3.81591837-7.1337909-4.67578093-11.1914054-3.09814588-.7324219-5.40234447-3.515625-5.40234447-6.8408221 0-3.3251949 2.30419859-6.108398 5.40234447-6.8408199.85986256-4.0576167 2.46826037-7.8369163 4.67578093-11.1914076-.4511721-.9228497-.7031254-1.9628897-.7031254-3.0615225 0-3.8833022 3.14795-7.03125 7.0312522-7.03125 1.0986328 0 2.1386728.2519533 3.0615248.7031232 3.3544935-2.20751612 7.1337909-3.81591617 11.1914076-4.67577873.7324219-3.09814364 3.515625-5.40234447 6.8408154-5.40234447 3.3252016 0 6.1084047 2.30420083 6.8408266 5.40234447zm.1904279 32.09765553c0 1.6992196-.6005869 3.2665998-1.7431632 4.4824228l13.1396458 28.0224591c.4980504 1.0839835.4101589 2.3583993-.2343715 3.3691406-.6445348 1.0107413-1.7578125 1.6259775-2.9589861 1.6259775h-30.46875c-1.2011715 0-2.3144536-.6152362-2.958984-1.6259775-.6445325-1.0107413-.7324241-2.2851571-.2343781-3.3691406l13.007813-28.0224591c-1.0107413-1.215823-1.6113282-2.7832032-1.6113282-4.4824228 0-3.8818359 3.1494141-7.03125 7.03125-7.03125 3.881836 0 7.03125 3.1494141 7.03125 7.03125z" transform="translate(12.5 12.875)"/></svg>