<svg viewBox="0 0 100 100" xmlns="http://www.w3.org/2000/svg" class="game-controller-svg"><path d="m63.8571054 29h-27.918345c-11.5643029 0-20.9387604 9.2806693-20.9387604 20.9387587 0 11.6580895 9.3744575 20.9387588 20.9387604 20.9387588h27.918345c11.5599397 0 20.9387588-9.3744559 20.9387588-20.9387588 0-11.5643028-9.3788191-20.9387587-20.9387588-20.9387587zm-21.9093568 23.5561036h-3.4897931v3.4897931c0 1.439541-1.1756239 2.6173449-2.6151633 2.6173449-1.4395393 0-2.6195264-1.1778039-2.6195264-2.6173449v-3.4897931l-3.3916434-.0981498c-1.4395393 0-2.7154962-1.0796541-2.7154962-2.5191951 0-1.4395393 1.1832586-2.6184348 2.6227979-2.6184348l3.4843417.00109v-3.4897931c0-1.439541 1.1799871-2.6173449 2.6195264-2.6173449 1.4395394 0 2.6151633 1.1778039 2.6151633 2.6173449v3.4897931h3.4897931c1.439541 0 2.6195248 1.1778055 2.6195248 2.6173448-.0021799 1.439541-1.081834 2.6173449-2.6195248 2.6173449zm20.0663105 6.9795862c-2.412319 0-4.2640917-1.9488308-4.2640917-4.2640916s1.9488309-4.3622414 4.2640917-4.3622414 4.2640916 1.9499224 4.2640916 4.3622414-1.7558028 4.2640916-4.2640916 4.2640916zm6.9795862-10.4693793c-2.4123189 0-4.2640916-1.9488308-4.2640916-4.2640917 0-2.3152608 1.9488308-4.3622414 4.2640916-4.3622414 2.4123223 0 4.2640917 1.9499225 4.2640917 4.3622414 0 2.412319-1.7558062 4.2640917-4.2640917 4.2640917z"/></svg>