<svg viewBox="0 0 100 100" xmlns="http://www.w3.org/2000/svg" class="honey-dew"><g fill="none" transform="translate(20 20)"><path d="m24.480785 48c6.2808716 0 12.1846537-2.4468042 16.631288-6.8902843 4.4357383-4.444571 6.887927-10.3517757 6.887927-16.6295407 0-6.2821255-2.4467408-12.1849697-6.8901056-16.63172261l-1.8484044-1.84845239-4.0477478 4.0478528c.3618349 1.5487326.5798072 3.1628594.5798072 4.8194934 0 11.5528332-9.3684499 20.9258866-20.9253439 20.9258866-1.6620391 0-3.2706759-.2139468-4.8204594-.5800384l-4.0477461 4.0478494 1.84840611 1.8484524c4.44772519 4.4382515 10.35477669 6.8905038 16.63237889 6.8905038z" fill="#ced87f"/><path d="m49.8398441.82397422c-1.0986328-1.09863229-2.8781247-1.09863229-3.977344 0l-1.987499 1.98738003 1.987499 1.98750163c5.4890656 5.48671342 8.5125017 12.77928932 8.5125017 20.53709782 0 7.7578084-3.0222666 15.0468653-8.5078132 20.5312398-5.4843736 5.4843746-12.7734375 8.5078092-20.5312497 8.5078092-7.7566409 0-15.0468743-3.0210922-20.53124961-8.5066362l-1.99101627-1.9933595-1.98867202 1.9898441c-.52839875.5296859-.825001 1.24453-.825001 1.994529 0 .7499989.29660225 1.4613275.823946 1.988671 6.54832005 6.5425771 15.2541786 10.1519489 24.5119911 10.1519489 9.2613262 0 17.9648441-3.6058564 24.5156247-10.1531219 6.5390646-6.5460889 10.1484382-15.2531146 10.1484382-24.5109244 0-9.2578063-3.6093736-17.96600501-10.1601577-24.51197948z" fill="#f3c82d"/></g></svg>