<svg viewBox="0 0 100 100" xmlns="http://www.w3.org/2000/svg" class="horn-svg"><path d="m74.3468969 41.5864513c2.0284429.9596918 3.4897931 3.5443212 3.4897931 6.5869839s-1.4613502 5.6272921-3.4897931 6.5869838v16.0966715c0 1.4068222-.8506358 2.6827791-2.1593082 3.2280593-1.2977695.5343739-2.8027414.2399213-3.795152-.7633922l-4.7657467-4.8529936c-5.2346897-5.2346897-12.3342383-8.0810529-19.7391441-8.0810529h-.9487872v13.9591725c0 1.9302932-1.5595016 3.4897931-3.4897931 3.4897931h-6.9795862c-1.92702 0-3.4897931-1.5594999-3.4897931-3.4897931v-13.9591725c-3.8551316 0-6.9795863-3.1299095-6.9795863-6.9795862v-10.4693794c0-3.8496767 3.1244547-6.9795863 6.9795863-6.9795863h14.9079596c7.4049058 0 14.5044544-2.9445129 19.7391441-8.1770227l4.7657467-4.7599691c.9924106-.9980251 2.4973825-1.2965647 3.795152-.7564098 1.3086724.5401548 2.1593082 1.8128369 2.1593082 3.2240223zm-30.4593493 1.3522942h-.9487872v10.4693794h.9487872c8.7026719 0 17.0672712 3.2498685 23.4797647 9.0843664v-28.6381122c-6.4124935 5.8344979-14.7770928 9.0843664-23.4797647 9.0843664z"/></svg>