<svg viewBox="0 0 100 100" xmlns="http://www.w3.org/2000/svg"><path d="m12.5 73.3113154v-43.175389c0-1.9399752 1.5673828-3.5007072 3.515625-3.5007072s3.515625 1.560732 3.515625 3.5007072v42.0084866c0 1.9399753 1.5673828 3.5007072 3.515625 3.5007072s3.515625-1.5607319 3.515625-3.5007072v-45.5091938c0-5.1489568 4.2041016-9.3352192 9.375-9.3352192h42.1875c5.1708984 0 9.375 4.1862624 9.375 9.3352192v46.6760962c0 5.1489569-4.2041016 9.3352193-9.375 9.3352193h-56.25c-5.1708984 0-9.375-4.1862624-9.375-9.3352193zm23.4375-42.0084865v9.3352192c0 2.5817716 2.0947266 4.6676096 4.6875 4.6676096h9.375c2.5927734 0 4.6875-2.085838 4.6875-4.6676096v-9.3352192c0-2.5817716-2.0947266-4.6676097-4.6875-4.6676097h-9.375c-2.5927734 0-4.6875 2.0858381-4.6875 4.6676097zm3.515625 35.0070721c-1.9482422 0-3.515625 1.560732-3.515625 3.5007072 0 1.9399753 1.5673828 3.5007072 3.515625 3.5007072h35.15625c1.9482422 0 3.515625-1.5607319 3.515625-3.5007072 0-1.9399752-1.5673828-3.5007072-3.515625-3.5007072zm-3.515625-10.5021217c0 1.9399753 1.5673828 3.5007073 3.515625 3.5007073h35.15625c1.9482422 0 3.515625-1.560732 3.515625-3.5007073 0-1.9399752-1.5673828-3.5007072-3.515625-3.5007072h-35.15625c-1.9482422 0-3.515625 1.560732-3.515625 3.5007072zm29.296875-17.503536c-1.9482422 0-3.515625 1.5607319-3.515625 3.5007072 0 1.9399752 1.5673828 3.5007072 3.515625 3.5007072h9.375c1.9482422 0 3.515625-1.560732 3.515625-3.5007072 0-1.9399753-1.5673828-3.5007072-3.515625-3.5007072z"/></svg>