<svg viewBox="0 0 100 100" xmlns="http://www.w3.org/2000/svg" class="peace-svg"><path d="m49.4285535 53.3427038v-27.8529107c0-1.9270216-1.5605916-3.4897931-3.4897931-3.4897931s-3.4897931 1.5627715-3.4897931 3.4897931v23.5888208c2.9117958.0109046 5.6381967 1.6140296 6.9795862 4.2640899zm-9.2915738-3.9478281c.274166-.0843447.5499695-.1119998.825555-.1653297l-9.2654015-21.6251548c-.5670927-1.3239418-1.861589-2.1178696-3.2106116-2.1178696-2.2869052 0-3.4865216 1.9641002-3.4865216 3.4941563 0 .4587988.0910509.9251225.2834365 1.3741034l8.9393234 20.8624215 5.9142181-1.8223271zm26.7405378-2.9663238c-1.9292015 0-3.4897931 1.5627732-3.4897931 3.4897931v6.9795862c0 1.9270217 1.5605916 3.4897932 3.4897931 3.4897932s3.4897931-1.5627715 3.4897931-3.4897932v-6.9795862c0-1.9302915-1.5594999-3.4897931-3.4897931-3.4897931zm-10.4693794 13.9591725c1.9292016 0 3.4897931-1.5627715 3.4897931-3.4897932v-10.4693793c0-1.92702-1.5605915-3.4897931-3.4897931-3.4897931-1.9292015 0-3.4897931 1.5627731-3.4897931 3.4897931v10.4693793c0 1.9302932 1.5595 3.4897932 3.4897931 3.4897932zm5.2346897 1.0796541c-1.2759569 1.4613502-3.1408125 2.410139-5.2346897 2.410139-2.9892263 0-5.5204159-1.8888513-6.5139182-4.5312769-.7698271 2.3348901-2.6064385 4.2782694-5.1343583 5.0558362l-5.2303282 1.6096681c-.1703451.0524246-.3431997.0774854-.5133268.0774854-.6850898 0-1.3283017-.4060147-1.6074866-1.0671137-.0937333-.2222556-.1378476-.452036-.1378476-.6775665 0-.7404914.4755942-1.4351778 1.2323335-1.668556l5.0656525-1.5584117c1.8757635-.5772335 3.245507-2.2879968 3.245507-4.2128351 0-3.7286262-3.5486843-4.3698762-4.364423-4.3698762-.4242279 0-.8558725.0622926-1.2824983.1932477l-11.3418277 3.4897931c-1.9880911.6113668-3.080833 2.4221336-3.080833 4.1681218 0 .4652321.0744302.9317754.2244372 1.3817414l1.9775176 5.9267036c2.0197182 6.05261 7.6895421 10.1422113 14.0693201 10.1422113h8.1573918c9.0014861 0 16.5547048-6.2390948 18.6158665-14.6135087-.8833545.4144116-1.8648588.6543362-2.9117974.6543362-2.0938772 0-3.9587328-.9487888-5.2346897-2.410139z"/></svg>