<svg viewBox="0 0 100 100" xmlns="http://www.w3.org/2000/svg"><path d="m15.9374982 74.868165h33.7500014c2.3891598 0 4.4179692-1.7958999 4.6816393-4.1704104l4.2246089-38.0170896h-51.56250004l4.22460884 38.0126953c.2636723 2.5048837 2.2924818 4.1748047 4.6816438 4.1748047zm46.171879-53.90625h-43.4472665c.9338379-4.5234383 4.5043945-8.0932618 9.1918945-8.9501962 1.2670912 1.2626945 3.0249037 1.9189462 4.958497 1.9189462l9.1113299.0000134c3.3999011 0 6.5185547-2.2983402 7.1616233-5.63672039.7338837-4.36085165-2.5620148-8.29395801-6.8979532-8.29395801h-9.375c-3.2226562 0-5.9326172 2.19726562-6.7573249 5.16357422-7.6171875 1.70214772-13.4399414 8.05664058-14.4287109 15.93749818l-8.24267644-.1391574c-1.80908293 0-3.38378996 1.6992196-3.38378996 3.515625 0 1.9409179 1.57470703 3.515625 3.38378996 3.515625h58.59375004c1.9409179 0 3.515625-1.5747071 3.515625-3.515625.131835-1.8164054-1.4355496-3.515625-3.38379-3.515625z" transform="translate(17 13.375)"/></svg>