<svg viewBox="0 0 100 100" xmlns="http://www.w3.org/2000/svg" class="refresh-svg"><path d="m75.78125 28.03125v15.46875c0 1.9002932-1.5372068 3.4375-3.4375 3.4375h-15.46875c-1.9002932 0-3.4375-1.5372068-3.4375-3.4375s1.5372068-3.4375 3.4375-3.4375h6.8094742c-3.2194337-4.2646497-8.2983398-6.8513671-13.7070319-6.8513671-9.4627942 0-17.1649423 7.6999993-17.1649423 17.1638671s7.7010745 17.1660143 17.166016 17.1660143c3.7468738 0 7.3079116-1.1848631 10.2996082-3.4310549 1.5275392-1.1311522 3.6759767-.8325196 4.813574.6848144 1.1375972 1.5210942.8325195 3.6759767-.6848145 4.813574-4.1926756 3.1453123-9.1695297 4.8189437-14.4160153 4.8189437-13.25747-.0005343-24.0533684-10.7964328-24.0533684-24.0522915s10.7958984-24.0517572 24.0517572-24.0517572c7.428222 0 14.3945312 3.4879885 18.9169928 9.2511714v-7.5431642c0-1.9002932 1.5372068-3.4375 3.4375-3.4375s3.4375 1.5372068 3.4375 3.4375z" fill="#1f2937"/></svg>