<svg viewBox="0 0 100 100" xmlns="http://www.w3.org/2000/svg"><path d="m44.6875016 0h-41.2607428c-1.89062566 0-3.4267588 1.55761719-3.4267588 3.46972525v41.18554945c0 1.9121081 1.53613314 3.4697253 3.4267588 3.4697253h41.2607428c1.8906257 0 3.4375-1.5576172 3.4375-3.4697253v-41.18554945c0-1.91210806-1.5468743-3.46972525-3.4375-3.46972525zm-30.1425787 41.25h-7.13281189v-22.9667972h7.14355469v22.9667972zm-3.566406-26.1035156c-2.28808623 0-4.13574215-1.8583972-4.13574215-4.1357422 0-2.27734507 1.84765756-4.1357422 4.13574385-4.1357422 2.2773434 0 4.1357422 1.85839713 4.1357422 4.1357422 0 2.2880846-1.847656 4.1357422-4.1357422 4.1357422zm30.30371 26.1035156h-7.1328119v-11.171875c0-2.6640612-.0537109-6.09082-3.7060546-6.09082-3.7167976 0-4.2861322 2.900389-4.2861322 5.8974619v11.3652331h-7.1328118v-22.9667972h6.8427731v3.1367184h.096679c.956054-1.8046878 3.2871084-3.7060547 6.7568369-3.7060547 7.2187481 0 8.5615215 4.7587894 8.5615215 10.9462884z" fill="#1f2937" transform="translate(25.9375 26.3125)"/></svg>