<svg height="69" viewBox="0 0 22 69" width="22" xmlns="http://www.w3.org/2000/svg" class="paperclip-svg"><path d="m10.9701971.22370328c5.5916569 0 10.1245904 4.53293353 10.1245904 10.12459042v8.0185991c0 .8284271-.6715728 1.5-1.5 1.5-.8284271 0-1.5-.6715729-1.5-1.5v-8.0185991c0-3.93480264-3.1897877-7.12459042-7.1245904-7.12459042-3.9348026 0-7.12459038 3.18978778-7.12459038 7.12459042v50.6638559c0 2.2803064 1.84855355 4.1288599 4.12885991 4.1288599 2.28030637 0 4.12885987-1.8485535 4.12885987-4.1288599v-22.639762c0-.8284272.6715729-1.5 1.5-1.5.8284272 0 1.5.6715728 1.5 1.5v22.639762c0 3.9371606-3.1916993 7.1288599-7.12885987 7.1288599-3.93716061 0-7.12885991-3.1916993-7.12885991-7.1288599v-50.6638559c0-5.59165689 4.53293353-10.12459042 10.12459038-10.12459042z" fill="#cecece" transform="matrix(-1 0 0 1 21.9404 0)"/></svg>