<svg viewBox="0 0 100 100" xmlns="http://www.w3.org/2000/svg"><path d="m62.6013072 47.6263278c.2556282.1049782.4880174.2216205.7320261.3265987 3.3928831 1.6446573 5.8794481 4.1058113 7.1808279 7.1618413 1.8242556 4.2574463 1.9985476 11.1743386-3.5206971 16.7031868-4.2062455 4.2224536-9.3304285 6.1237242-16.5693537 6.1820454h-.0348584c-8.1568627-.0583212-14.4197531-2.811081-18.637618-8.1882941-3.7530864-4.782337-5.6819172-11.4426161-5.751634-19.7825453v-.0349927-.0233285c.0580973-8.3399292 1.9869281-15.0002083 5.7400145-19.7825453 4.2178649-5.3772131 10.4923748-8.1299729 18.6492375-8.1882941h.0348584c8.1684822.0583212 14.5127088 2.7994168 18.8583878 8.1533014 2.1379811 2.6477817 3.718228 5.8321183 4.7175018 9.5296813l-4.6942629 1.2597376c-.8249818-3.0093731-2.0682643-5.5755051-3.7414669-7.6284108-3.3928831-4.1757967-8.4822077-6.3220162-15.1633987-6.3686732-6.6230937.0583212-11.6310821 2.1928765-14.8961511 6.3453447-3.0442992 3.8841908-4.6245461 9.5063529-4.6826434 16.7031869.0580973 7.196834 1.6383442 12.818996 4.6826434 16.7148511 3.2534495 4.1524682 8.2730574 6.2870235 14.8961511 6.3453447 5.9724037-.046657 9.923021-1.4696938 13.2113289-4.7706728 3.7530865-3.7558842 3.6833697-8.3749219 2.486565-11.1860029-.7087872-1.6563216-1.9869281-3.0327015-3.7066085-4.0708186-.4299202 3.1376797-1.3710966 5.6338263-2.8700073 7.5584253-1.9869281 2.5428036-4.8104575 3.9191835-8.4473493 4.1174756-2.7421932.151635-5.3798112-.5132265-7.4248366-1.8662779-2.4168482-1.6096647-3.8344227-4.0591543-3.9854757-6.9168923-.2904865-5.6338263 4.1481482-9.6813164 11.0617284-10.0779005 2.4517066-.1399708 4.7523602-.0349927 6.8787219.3265987-.2788671-1.726307-.8482208-3.102687-1.6964416-4.1058113-1.1619462-1.3647157-2.9745824-2.0645699-5.3681917-2.0762341h-.0813362c-1.9288308 0-4.5315904.5365548-6.1931736 3.0676942l-3.9970951-2.7527598c2.2309368-3.3942929 5.8445897-5.2605708 10.2018881-5.2605708h.0929557c7.2737836.046657 11.6078432 4.6073735 12.0493828 12.5623829l-.023239.0233284zm-18.1263617 8.0249948c.151053 2.9277234 3.2999274 4.2924391 6.3442266 4.1174756 2.9745824-.1632993 6.3442266-1.329723 6.9135803-8.5382212-1.5337691-.3382629-3.2302106-.5132264-5.0428468-.5132264-.5577342 0-1.1154684.0116642-1.6732026.0466569-4.9847495.2799417-6.6463326 2.7061029-6.530138 4.8756509z" fill="#1f2937"/></svg>