<svg height="25" viewBox="0 0 25 25" width="25" xmlns="http://www.w3.org/2000/svg"><path d="m19.559376 17.4417963c.5859375.5859375.5859375 1.5351563 0 2.1210938-.2906256.2929687-.6749997.4382815-1.059376.4382815-.3843749 0-.767812-.1464844-1.0603116-.4394531l-4.9396884-4.93711-4.93921781 4.9359384c-.29296875.2953119-.67687511.4406247-1.06078219.4406247-.38390565 0-.76734352-.1453128-1.06054688-.4406247-.5859375-.5859375-.5859375-1.5351563 0-2.1210938l4.94062548-4.9406247-4.94062548-4.93828152c-.5859375-.5859375-.5859375-1.53515626 0-2.12109376s1.53515626-.5859375 2.12109376 0l4.93945312 4.94296858 4.9406247-4.9406254c.5859375-.5859375 1.5351563-.5859375 2.1210938 0s.5859375 1.53515625 0 2.12109375l-4.9406247 4.94062475 4.9382815 4.9382815z" fill="#fff"/></svg>