<svg height="40" viewBox="0 0 229 40" width="229" xmlns="http://www.w3.org/2000/svg"><path d="m98.537 149.924c-1.142 0-2.18-.25-3.083-.704.064.68.023 1.394-.134 2.129-1.003 4.722-6.383 8.55-12.015 8.55s-9.384-3.828-8.38-8.55c.1599652-.741605.4196601-1.45812.772-2.13-1.097.455-2.24.705-3.383.705-4.827 0-7.791-4.466-6.62-9.974 1.17-5.51 6.034-9.975 10.86-9.975 1.143 0 2.18.25 3.084.704-.0646924-.712294-.0198384-1.430295.133-2.129 1.004-4.722 6.383-8.55 12.015-8.55s9.384 3.828 8.38 8.55c-.160501.74117-.4194659 1.457528-.77 2.13 1.096-.455 2.24-.705 3.381-.705 4.828 0 7.792 4.466 6.62 9.975-1.17 5.508-6.033 9.974-10.86 9.974m-15.242-13.968c1.346.727 2.999 1.144 4.857 1.144 1.8406445-.007571 3.65968-.397121 5.342-1.144-.7404905 1.236271-1.2735433 2.585455-1.578 3.994-.302 1.42-.329 2.77-.12 3.993-1.345-.727-2.998-1.144-4.856-1.144s-3.688.417-5.342 1.144c.7400402-1.236026 1.2727509-2.584862 1.577-3.993.302-1.42.33-2.771.12-3.994m42.687 23.553v-24.067h6.661v24.067h15.118v-20.68c0-10.187-8.26-18.448-18.45-18.448s-18.45 8.26-18.45 18.45v20.68zm105.317-39.125c-10.806 0-19.565 8.76-19.565 19.565s8.759 19.564 19.565 19.564h23.148v-23.973h-15.165v-15.156zm0 15.238h7.91v8.653h-7.91c-1.561386.023739-3.014432-.795656-3.802058-2.144039-.787627-1.348382-.787627-3.01654 0-4.364922.787626-1.348383 2.240672-2.167778 3.802058-2.144039m-80.753-7.567c-.026206 1.5641.459833 3.093855 1.384 4.356.375.511.572 1.132.564 1.77-.010608.639617-.225393 1.259096-.613 1.768-1.040723 1.374628-1.568783 3.069513-1.493 4.792.077093 1.709057.760225 3.334818 1.927 4.586.283.296.439.692.433 1.104-.005926.414189-.172255.809938-.464 1.104-.799379.826569-1.395134 1.828054-1.74 2.925-.344706 1.090675-.428286 2.247092-.244 3.376.648736 2.893363 2.864927 5.178702 5.737 5.916 1.076.218 4.64.194 5.714-.069 2.176354-.534144 4.006039-2.001551 5-4.01.490114-.988481.756103-2.072922.779-3.176l.028-2.054c.010374-.749276.317494-1.463852.854-1.987.533666-.526882 1.254067-.821298 2.004-.819h6.727c1.502849.008237 2.972867-.439463 4.216-1.284 1.245607-.845272 2.206356-2.047603 2.756-3.449.548469-1.391988.655988-2.918887.308-4.374-.346682-1.44619-1.132679-2.749548-2.25-3.731-.16509-.161228-.256583-.38327-.253-.614.003188-.232775.100607-.454313.27-.614 1.142201-.978584 1.961453-2.279975 2.35-3.733.38631-1.442897.320692-2.969572-.188-4.374-.508875-1.39695-1.437725-2.602115-2.659-3.45-1.227291-.848552-2.685953-1.298929-4.178-1.29013h-19.495c-.969057-.002683-1.92923.184867-2.826.55213-1.815511.743083-3.267619 2.167908-4.045 3.969-.382705.888259-.587568 1.842927-.603 2.81m53.971-8.054c-6.072 0-12.269 4.754-13.84 10.619-1.047 3.907.222 7.32 2.981 9.165-5.419.493-10.705 4.797-12.108 10.033-1.492 5.567 1.971 10.08 7.734 10.08 5.764 0 11.646-4.513 13.137-10.08.978-3.648-.172-6.843-2.702-8.612 5.775-.435 11.452-5.009 12.947-10.586 1.571-5.865-2.077-10.62-8.149-10.62m-171.1 8.688h-7.417v22.534h7.388v7.968h31.04v-15.29h-16.629c-1.0456473-.001059-2.0479877-.417732-2.7862461-1.158241s-1.1518776-1.744113-1.1497539-2.789759c-.0021237-1.045646.4114955-2.04925 1.1497539-2.789759s1.7405988-1.157182 2.7862461-1.158241h16.627v-15.29h-31.009z" fill="#fff" fill-rule="evenodd" transform="translate(-26 -120)"/></svg>