<svg height="230" viewBox="0 0 300 230" width="300" xmlns="http://www.w3.org/2000/svg"><path d="m221.992065 213.439442c-35.4 10.8-68.8 5.8-87 1-.5 7.4-1.3 10.5-2.5 11.7-1.4 1.6-13 8.2-19.4-1.2-2.8-4.5-4.2-12.6-5-20-40.9999997-18.6-59.9999997-46-60.5999997-47-1-1-10.3-10.7-1-22.7 8.7-10.8 37.5-21.7 63.2999997-26 1-22.0000002 3.4-39.0000002 6.5-46.5000002 3.7-9 8.4-1 12.6 5 3.4 4.5 5.5 23.8 5.7 39.2000002 16.8-.8 27 .4 45.7 4 24.6 4.2 41 16.8 39.7 31-1.2 14-14 19.8-19 20.2s-13-3.3-13-3.3c-5.6-2.6-.5-5 6-7.8 7.2-3.5 5.6-7 5.6-7-2.6-8-34.5-13.3-66.2-13.3 0 17.5.7 46.5 1.2 63.4 22.2 4.2 38.8 3.3 38.8 3.3s81-2.3 83.3-54c2.5-51.8000002-81-101.4000002-142.5-117.0000002-61.3999997-16.1-96.1999997-4.7-99.1999997-3.2-3.3 1.6-.3 2.2-.3 2.2s3.3.5 9.3 2.5 1.2 5 1.2 5c-10.5 3.6-22.2 1.5-24.49999999-3.3-2.30000001-4.7 1.49999999-9 5.99999999-15.3 4.2-6.49999998 9-6.29999998 9-6.29999998 76-26.50000002 168.7999997 20.99999998 168.7999997 20.99999998 86.8 43.8 101.6 95.3000002 100 115.3000002-1.4 19.7-9 53-62.5 69.2m-166.9999997-71.6c-8.6 4-2.6 10.4-2.6 10.4 16.2 17.3 36 28.2 54.9999997 35 2.2-30 2-40.7 2-55.8-29.3999997 2-46.3999997 6.8-54.3999997 10.4" fill="#fff"/></svg>