<svg fill="none" height="auto" viewBox="0 0 400 600" width="100%" xmlns="http://www.w3.org/2000/svg" xmlns:xlink="http://www.w3.org/1999/xlink"><g><path d="m0 500c0-55.228 44.772-100 100-100h100v100c0 55.228-44.772 100-100 100s-100-44.772-100-100z" fill="#24cb71"/><path d="m200 0v200h100c55.228 0 100-44.772 100-100s-44.772-100-100-100z" fill="#ff7237"/><path d="m299.168 400c55.228 0 100-44.772 100-100s-44.772-100-100-100c-55.229 0-100 44.772-100 100s44.771 100 100 100z" fill="#00b6ff"/><path d="m0 100c0 55.228 44.772 100 100 100h100v-200h-100c-55.228 0-100 44.772-100 100z" fill="#ff3737"/><path d="m0 300c0 55.228 44.772 100 100 100h100v-200h-100c-55.228 0-100 44.772-100 100z" fill="#874fff"/></g></svg>