<svg height="126" viewBox="0 0 126 126" width="126" xmlns="http://www.w3.org/2000/svg"><path d="m148.032452 69c11.479208 25.1190629 2.650372 56.213155-22.213461 73.082965-24.969553 16.928435-57.472259 13.669773-76.818991-6.312133 13.7042425 3.539582 38.8458972-4.829368 61.755142-21.735818 22.449487-16.5669055 35.775105-33.0116718 37.27731-45.035014zm-4.388386-6.8152461c.130215.1931448.194094.4156281.307111.6209973-.137586-.3911794-.319396-.7530204-.503663-1.1173062 6.412485 10.1291021-7.407525 30.2846215-34.659355 50.425472-28.2708748 20.895508-57.3773251 26.66369-64.9605794 18.011478l-.1005796-.120395.058.069.1690758.161653c.1729851.157769.3537922.309151.5412179.454945l.285952.2146c9.1347191 3.52306 29.1460929-2.921621 49.0247945-16.53222 23.4166238-16.0285767 37.7329258-35.8931565 31.9592328-44.3744152-4.525593-6.6476053-20.114563-4.2736352-37.9565027 4.826176 25.4853257-15.7963138 49.7422067-21.5148679 55.8352957-12.6399849zm-7.007987-11.109309c.11557.1741275.255728.3163724.363921.4806899l-.012295.014715c-.481949-.6621748-1.101597-1.2188922-1.787637-1.7167496-9.159488-3.5144316-29.170203 2.9503568-49.0383008 16.5936109-23.4409129 16.0859435-37.7715161 36.0174059-32.0028827 44.5030539 4.531795 6.687966 20.1361203 4.301684 37.9854423-4.826519-25.4941135 15.840694-49.7710602 21.584447-55.8814839 12.674517-.1155693-.174127-.1721246-.380137-.2631047-.556717.1352408.3924.3172011.767632.5040792 1.140412-6.2923839-10.187683 7.5193865-30.344775 34.7372051-50.5116775 28.4595747-21.0792323 57.8314095-26.7175284 65.3950565-17.7953356zm-5.636079-6.5234506c-13.822974-3.4767321-39.3370338 4.8859545-61.8198896 21.499175-22.3750362 16.5327631-35.6564617 32.9484974-37.1610364 44.9488307-11.5416078-25.1051264-2.7641048-56.2299242 22.0736311-73.1015834 25.0313212-17.0008785 57.6712819-13.6046038 76.9072949 6.6535777z" fill-rule="evenodd" transform="translate(-27 -27)"/></svg>