<svg viewBox="0 0 136 16" xmlns="http://www.w3.org/2000/svg"><path d="m102.311 8.3c-.187-1.187-.887-1.78-2.1-1.78-.453 0-.833.107-1.14.32-.307.2-.56.467-.76.8-.187.32-.32.68-.4 1.08-.1586154.7584627-.1586154 1.5415373 0 2.3.08.387.207.74.38 1.06.187.307.433.56.74.76s.68.3 1.12.3c.68 0 1.2-.187 1.56-.56.373-.387.607-.9.7-1.54h2.74c-.187 1.373-.72 2.42-1.6 3.14s-2.007 1.08-3.38 1.08c-.7307649.0076046-1.4565283-.1212692-2.14-.38-.6161574-.2506208-1.1743352-.6250084-1.64-1.1-.4601734-.4773647-.8205334-1.0417021-1.06-1.66-.2587762-.6834592-.3876516-1.4092312-.38-2.14 0-.8.113-1.54.34-2.22.2197901-.65889286.5739231-1.2650051 1.04-1.78.4594491-.51104302 1.0263493-.91402027 1.66-1.18.653-.28 1.4-.42 2.24-.42.613 0 1.2.08 1.76.24.573.16 1.08.407 1.52.74.453.32.82.727 1.1 1.22.28.48.44 1.053.48 1.72zm6.564 1.54c0 .413.04.82.12 1.22.08.387.214.74.4 1.06.2.307.46.553.78.74s.72.28 1.2.28.88-.093 1.2-.28c.334-.187.594-.433.78-.74.2-.32.34-.673.42-1.06.161464-.8053199.161464-1.63468014 0-2.44-.08-.4-.22-.753-.42-1.06-.190468-.31091274-.4595-.56614778-.78-.74-.32-.2-.72-.3-1.2-.3s-.88.1-1.2.3c-.32.187-.58.433-.78.74-.19418.32727855-.329557.68602841-.4 1.06-.08.4-.12.807-.12 1.22zm-2.84 0c0-.827.127-1.573.38-2.24.231643-.64456058.600082-1.23133296 1.08-1.72.473507-.48427624 1.046787-.85963812 1.68-1.1.654-.267 1.387-.4 2.2-.4.814 0 1.547.133 2.2.4.667.253 1.234.62 1.7 1.1.467.467.827 1.04 1.08 1.72.254.667.38 1.413.38 2.24s-.126 1.573-.38 2.24c-.237327.6417791-.605056 1.2274224-1.08 1.72-.482914.4774276-1.062621.8457121-1.7 1.08-.653.253-1.386.38-2.2.38-.813 0-1.546-.127-2.2-.38-.629556-.2381726-1.201955-.6061433-1.68-1.08-.474283-.4930942-.841921-1.0785915-1.08-1.72-.253-.667-.38-1.413-.38-2.24zm12.147-5.18h2.7v1.44h.06c.36-.6.827-1.033 1.4-1.3.573-.28 1.16-.42 1.76-.42.76 0 1.38.107 1.86.32.493.2.88.487 1.16.86.28.36.473.807.58 1.34.12.52.18 1.1.18 1.74v6.36h-2.84v-5.84c0-.853-.133-1.487-.4-1.9-.267-.427-.74-.64-1.42-.64-.773 0-1.333.233-1.68.7-.347.453-.52 1.207-.52 2.26v5.42h-2.84zm12.075 1.9h-1.7v-1.9h1.7v-.8c0-.92.287-1.673.86-2.26.574-.587 1.44-.88 2.6-.88.254 0 .507.013.76.04l.74.04v2.12c-.333-.04-.68-.06-1.04-.06-.386 0-.666.093-.84.28-.16.173-.24.473-.24.9v.62h1.96v1.9h-1.96v8.44h-2.84zm-42.325-.744-1.537 1.434c-.477-.633-1.162-.928-1.744-.928-.499 0-.955.295-.955.884 0 .463.375.8.995 1.033 1.432.526 3.778.991 3.778 3.267 0 1.917-1.453 3.54-3.716 3.54-2.178 0-3.632-1.56-4.15-2.866l2.055-1.117c.375 1.032 1.079 1.75 2.096 1.75.79 0 1.286-.36 1.286-1.14 0-.884-1.349-1.076-2.616-1.623-1.14-.485-2.117-1.222-2.117-2.868 0-1.643 1.308-3.097 3.342-3.097 1.414.004 2.64.7 3.283 1.732zm-37.321 1.147c.319-1.768 1.77-2.98 3.818-2.98 2.385 0 4.215 1.063 4.215 4.49v6.405h-2.027l-.26-1.362c-.694.916-1.65 1.532-3.081 1.532-1.711 0-3.041-1.127-3.041-3.255s1.75-3.51 4.274-3.51h1.67v-.469c0-1.19-.835-1.575-1.75-1.575-.695 0-1.413.233-1.73 1.234zm3.24 5.83c1.133 0 2.326-.83 2.326-2.215v-.213h-1.651c-1.053 0-1.711.425-1.711 1.384.002.513.341 1.043 1.036 1.043zm7.449 2.25v-10.888h2.464v1.772c.715-1.274 1.83-1.944 2.962-1.944.438 0 .814.087 1.213.217l-.457 2.484c-.3057358-.20379777-.6666498-.30886074-1.034-.301-1.43 0-2.682 1.273-2.682 4.797v3.868h-2.465v-.005zm12.228-10.923c1.043 0 2.046.545 2.496 1.134v-5.254h2.537v14.881h-2.537v-1.093c-.285.545-1.227 1.26-2.496 1.26-3.11 0-4.704-2.206-4.704-5.464 0-3.259 1.595-5.465 4.704-5.465zm.347 8.7c1.33 0 2.374-1.134 2.374-3.236s-1.043-3.237-2.374-3.237c-1.33 0-2.392 1.135-2.392 3.237s1.062 3.236 2.392 3.236zm-73.482-5.758c.332-1.745 1.843-2.942 3.975-2.942 2.483 0 4.388 1.05 4.388 4.434v6.328h-2.11l-.27-1.345c-.724.904-1.719 1.512-3.209 1.512-1.78 0-3.167-1.113-3.167-3.214 0-2.102 1.821-3.467 4.45-3.467h1.738v-.463c0-1.176-.87-1.557-1.822-1.557-.723 0-1.47.23-1.8 1.22l-2.173-.505zm3.374 5.758c1.18 0 2.42-.82 2.42-2.186v-.211h-1.717c-1.096 0-1.781.42-1.781 1.367.002.507.353 1.03 1.079 1.03zm20.797-8.394-3.285 10.622h-2.244l-1.774-6.87-1.774 6.87h-2.246l-3.283-10.622h2.55l1.835 7.292 1.734-7.292h2.367l1.734 7.292 1.835-7.292h2.55zm9.806 0-1.862 7.292-1.759-7.292h-2.4l-1.759 7.292-1.463-4.235-.152.486-.854 2.73 1.352 4.35h2.277l1.8-6.87 1.798 6.87h2.277l3.331-10.623h-2.585zm12.393 0-1.862 7.292-1.759-7.292h-2.4l-1.757 7.292-1.463-4.235-.154.486-.854 2.73 1.352 4.35h2.277l1.8-6.87 1.8 6.87h2.275l3.331-10.623zm44.849 7.081c1.012 0 1.77.76 1.77 1.77 0 1.012-.758 1.771-1.77 1.771s-1.77-.759-1.77-1.77c0-1.012.758-1.77 1.77-1.77z" fill="#3a4eff" fill-rule="evenodd"/></svg>