<svg viewBox="0 0 204 28" xmlns="http://www.w3.org/2000/svg"><title>Chicago Camps Logo</title><g fill="none" fill-rule="evenodd"><path d="m5.9707214 28c-2.10901756 0-3.60966466-.4398205-4.50194132-1.3194614-.89227666-.879641-1.361591-2.3361894-1.40794304-4.3696451-.02317601-1.7135863-.04055803-3.5299877-.05214603-5.4492044-.01158801-1.9192166-.01158801-3.8384333 0-5.7576499.011588-1.91921668.02897002-3.73561815.05214603-5.44920444.02317602-1.78212974.49828437-3.17013464 1.42532505-4.16401469.92704069-.99388005 2.42189379-1.49082007 4.48455931-1.49082007 2.0394895 0 3.51696059.43982048 4.4324133 1.31946144.9154526.87964097 1.396355 2.32476541 1.442707 4.33537332.023176.61689107.034764 1.37086903.034764 2.26193391 0 .89106487-.011588 1.64504284-.034764 2.26193393h-3.75451474c0-.753978.005794-1.61077114.01738201-2.57037947.01158801-.95960832.00579401-1.82782537-.01738201-2.60465116-.02317602-1.30232558-.73004454-1.95348837-2.12060556-1.95348837-1.39056103 0-2.10901756.65116279-2.15536959 1.95348837-.06952805 2.90167279-.10429208 5.89473683-.10429208 8.97919213 0 3.0844554.03476403 6.0775194.10429208 8.9791922.04635203 1.3251734.76480856 1.9877601 2.15536959 1.9877601 1.48326509 0 2.23648564-.6625867 2.25966166-1.9877601.02317602-.7996736.03476403-1.6964504.03476403-2.6903305 0-.99388-.01158801-1.8792329-.03476403-2.6560587h3.75451474c.023176.7539779.0347641 1.5308037.0347641 2.3304773s-.0115881 1.5879233-.0347641 2.3647491c-.046352 2.0334557-.5388424 3.4900041-1.4774711 4.3696451-.93862865.8796409-2.45086377 1.3194614-4.5367053 1.3194614zm9.2472308-.3084455v-27.41738069h3.7892788v11.89228889h4.032627v-11.89228889h3.7545147v27.41738069h-3.7545147v-12.2350062h-4.032627v12.2350062zm15.8176317 0v-27.41738069h3.7892787v27.41738069zm13.7665541.3084455c-2.1090176 0-3.6096647-.4398205-4.5019413-1.3194614-.8922767-.879641-1.361591-2.3361894-1.4079431-4.3696451-.023176-1.7135863-.040558-3.5299877-.052146-5.4492044-.011588-1.9192166-.011588-3.8384333 0-5.7576499.011588-1.91921668.02897-3.73561815.052146-5.44920444.0231761-1.78212974.4982844-3.17013464 1.4253251-4.16401469.9270407-.99388005 2.4218938-1.49082007 4.4845593-1.49082007 2.0394895 0 3.5169606.43982048 4.4324133 1.31946144.9154526.87964097 1.396355 2.32476541 1.442707 4.33537332.023176.61689107.034764 1.37086903.034764 2.26193391 0 .89106487-.011588 1.64504284-.034764 2.26193393h-3.7545147c0-.753978.005794-1.61077114.017382-2.57037947.011588-.95960832.005794-1.82782537-.017382-2.60465116-.0231761-1.30232558-.7300446-1.95348837-2.1206056-1.95348837s-2.1090176.65116279-2.1553696 1.95348837c-.069528 2.90167279-.1042921 5.89473683-.1042921 8.97919213 0 3.0844554.0347641 6.0775194.1042921 8.9791922.046352 1.3251734.7648086 1.9877601 2.1553696 1.9877601 1.4832651 0 2.2364856-.6625867 2.2596617-1.9877601.023176-.7996736.034764-1.6964504.034764-2.6903305 0-.99388-.011588-1.8792329-.034764-2.6560587h3.7545147c.023176.7539779.034764 1.5308037.034764 2.3304773s-.011588 1.5879233-.034764 2.3647491c-.046352 2.0334557-.5388424 3.4900041-1.4774711 4.3696451-.9386287.8796409-2.4508638 1.3194614-4.5367053 1.3194614zm8.4476582-.3084455 3.4068745-27.41738069h6.2575246l3.4068745 27.41738069h-3.8240428l-.6605165-6.8543452h-4.067391l-.6605164 6.8543452zm4.8669636-10.1101592h3.3373465l-.5909885-6.0318237-.5909884-7.98531211h-.9733927l-.5909885 7.98531211zm17.1039006 10.384333c-2.1090176 0-3.6096647-.4398205-4.5019413-1.3194615-.8922767-.8796409-1.373179-2.3361893-1.4427071-4.369645-.046352-1.6907385-.075322-3.4842921-.0869101-5.380661-.011588-1.8963688-.011588-3.7927376 0-5.6891065.0115881-1.89636878.0405581-3.67849853.0869101-5.34638918.0695281-2.124847.5562244-3.63280294 1.4600891-4.52386781s2.3987178-1.33659731 4.4845593-1.33659731c1.9699614 0 3.4068745.43410853 4.3107392 1.30232558.9038646.86821706 1.413737 2.31905345 1.5296171 4.35250918.0927041 1.50795594.0927041 3.01591187 0 4.52386784h-3.7545148c.0463521-.77682582.0695281-1.63933091.0695281-2.58751533 0-.94818441-.023176-1.81068951-.0695281-2.5875153-.069528-1.30232558-.7648085-1.95348837-2.0858415-1.95348837-1.390561 0-2.1206056.65116279-2.1901336 1.95348837-.0927041 2.85597715-.1390561 5.84332923-.1390561 8.96205633 0 3.118727.046352 6.1060791.1390561 8.9620563.046352 1.3251734.7763965 1.9877601 2.1901336 1.9877601 1.4600891 0 2.2248976-.6625867 2.2944257-1.9877601.046352-.6625867.069528-1.4108527.069528-2.2447981 0-.8339453-.023176-1.5707874-.069528-2.2105263h-2.0858416v-3.2558139h5.7708283c.046352.9596083.063734 2.0448796.052146 3.2558139s-.040558 2.4789882-.08691 3.8041616c-.0927041 2.0334557-.5967825 3.4900041-1.5122351 4.369645-.9154527.879641-2.3929238 1.3194615-4.4324133 1.3194615zm15.5395194 0c-2.0858415 0-3.5864886-.4341086-4.5019413-1.3023256-.9154527-.8682171-1.396355-2.3190535-1.442707-4.3525092-.1158801-5.5520196-.1158801-11.1154631 0-16.69033046.046352-2.01060792.5272543-3.4500204 1.442707-4.31823746.9154527-.86821705 2.4160998-1.30232558 4.5019413-1.30232558 2.0858416 0 3.5806947.43410853 4.4845593 1.30232558.9038647.86821706 1.3905611 2.30762954 1.4600891 4.31823746.1390561 5.59771526.1390561 11.16115866 0 16.69033046-.069528 2.0334557-.5562244 3.4842921-1.4600891 4.3525092-.9038646.868217-2.3987177 1.3023256-4.4845593 1.3023256zm0-3.0501836c1.4137371 0 2.1437816-.6511628 2.1901336-1.9534884.0695281-1.8963688.1100861-3.872705.1216741-5.9290086.011588-2.0563035.005794-4.1126071-.017382-6.1689106-.023176-2.05630356-.05794-4.02121584-.1042921-5.89473686-.046352-1.27947776-.7763965-1.91921664-2.1901336-1.91921664-1.436913 0-2.1669576.63973888-2.1901336 1.91921664-.069528 1.87352102-.1158801 3.8384333-.1390561 5.89473686-.023176 2.0563035-.023176 4.1126071 0 6.1689106.023176 2.0563036.0695281 4.0326398.1390561 5.9290086.023176 1.3023256.7532206 1.9534884 2.1901336 1.9534884zm38.7173372-24.9155447c2.03949 0 3.516961.43982048 4.432413 1.31946144.915453.87964097 1.396355 2.32476541 1.442707 4.33537332.023176.61689107.034764 1.37086903.034764 2.26193391 0 .89106487-.011588 1.64504284-.034764 2.26193393h-3.754514c0-.753978.005794-1.61077114.017382-2.57037947.011588-.95960832.005794-1.82782537-.017382-2.60465116-.023176-1.30232558-.730045-1.95348837-2.120606-1.95348837s-2.109017.65116279-2.155369 1.95348837c-.069529 2.90167279-.104293 5.89473683-.104293 8.97919213 0 3.0844554.034764 6.0775194.104293 8.9791922.046352 1.3251734.764808 1.9877601 2.155369 1.9877601 1.483265 0 2.236486-.6625867 2.259662-1.9877601.023176-.7996736.034764-1.6964504.034764-2.6903305 0-.99388-.011588-1.8792329-.034764-2.6560587h3.754515c.023176.7539779.034764 1.5308037.034764 2.3304773s-.011588 1.5879233-.034764 2.3647491c-.046352 2.0334557-.538843 3.4900041-1.477472 4.3696451-.938628.8796409-2.450863 1.3194614-4.536705 1.3194614-2.109017 0-3.609665-.4398205-4.501941-1.3194614-.892277-.879641-1.361591-2.3361894-1.407943-4.3696451-.023176-1.7135863-.040558-3.5299877-.052146-5.4492044-.011588-1.9192166-.011588-3.8384333 0-5.7576499.011588-1.91921668.02897-3.73561815.052146-5.44920444.023176-1.78212974.498284-3.17013464 1.425325-4.16401469.927041-.99388005 2.421894-1.49082007 4.484559-1.49082007zm68.554659 0c1.993137 0 3.441638.43410853 4.345503 1.30232558.903864.86821706 1.390561 2.31905345 1.460089 4.35250918.023176.57119543.02897 1.2623419.017382 2.07343941-.011588.81109752-.02897 1.62790698-.052146 2.45042843h-3.615459c.023176-.86821708.040558-1.73072218.052146-2.58751533s-.005794-1.71929825-.052146-2.5875153c-.046352-1.30232558-.776396-1.95348837-2.190133-1.95348837-.718457 0-1.251505.15993472-1.599146.47980416-.34764.31986944-.544636.81109751-.590988 1.47368421-.069528.73113015-.098498 1.46797226-.08691 2.21052632s.040558 1.47939616.08691 2.21052631c.046352.753978.191202 1.3480212.43455 1.7821297.243348.4341086.689487.7311302 1.338415.8910649l2.085842.4798042c1.645497.3884129 2.757946 1.0795593 3.337346 2.0734394.579401.99388.903865 2.3133415.973393 3.9583843.023176.7311302.02897 1.3594451.017382 1.8849449s-.02897 1.1195431-.052146 1.7821298c-.069528 2.0334557-.556224 3.4900041-1.460089 4.369645-.903865.879641-2.38713 1.3194615-4.449795 1.3194615-2.085842 0-3.569107-.4398205-4.449796-1.3194615-.880688-.8796409-1.367385-2.3361893-1.460089-4.369645-.023176-.7996736-.02897-1.5764994-.017382-2.3304774.011588-.7539779.052146-1.5422276.121674-2.3647491h3.545931c-.046352.9367606-.075322 1.8620972-.08691 2.7760098-.011588.9139127.017382 1.7707059.08691 2.5703795.046352.6854345.249142 1.1880865.60837 1.5079559.359229.3198695.909659.4798042 1.651292.4798042.718456 0 1.245711-.1599347 1.581763-.4798042.336052-.3198694.527254-.8225214.573606-1.5079559.069528-.7768258.098498-1.4793962.08691-2.1077112-.011588-.6283149-.040558-1.365157-.08691-2.2105263-.046352-.6625867-.185408-1.2337821-.417168-1.7135863-.23176-.4798041-.648929-.7996736-1.251505-.9596083l-2.32919-.5826193c-1.575969-.3884129-2.653654-1.0624235-3.233054-2.0220319-.579401-.9596083-.892277-2.2619339-.938629-3.9069767v-1.88494492c0-.63973888.011588-1.26805385.034764-1.88494492.069528-2.03345573.550431-3.48429212 1.442707-4.35250918.892277-.86821705 2.404512-1.30232558 4.536706-1.30232558zm-50.442602.27417381 3.406875 27.41738069h-3.824043l-.660516-6.8543452h-4.067391l-.660517 6.8543452h-3.858807l3.406875-27.41738069zm12.68887 0 1.877257 10.79559359.903865 13.2974297h.764808l.834337-13.2974297 1.912021-10.79559359h6.396581v27.41738069h-3.754515v-8.2937577l.660517-15.83353731h-.799573l-1.738201 16.14198291-1.633909 7.9167686h-4.588852l-1.599145-7.9167686-1.738201-16.14198291h-.799573l.660517 15.93635251v8.1909425h-3.789279v-27.41738069zm22.422796 0c2.062666 0 3.563313.43410852 4.501942 1.30232558.938628.86821705 1.442707 2.28478172 1.512235 4.249694.046352 1.25662995.069528 2.39330885.069528 3.41003672 0 1.01672789-.023176 2.08486329-.069528 3.20440639-.069528 1.9649123-.573607 3.3814769-1.512235 4.249694-.938629.868217-2.450864 1.3023256-4.536706 1.3023256h-1.668673v9.6988984h-3.789279v-27.41738069zm-37.753731 3.29008568h-.973393l-.590989 7.98531211-.590988 6.0318237h3.337346l-.590988-6.0318237zm37.753731 0h-1.703437v11.13831091h1.668673c1.460089 0 2.224898-.6968584 2.294426-2.0905753.046352-1.0966952.069528-2.2562219.069528-3.47858017 0-1.22235822-.023176-2.38188494-.069528-3.47858017-.069528-1.39371685-.822749-2.09057527-2.259662-2.09057527z" fill="#fff"/><g transform="translate(104.0516 .357)"><path d="m.38919079 0h11.62471481v5.2604893h-11.62471481zm0 22.1685052h11.62471481v5.2604893h-11.62471481z" fill="#41b6e6"/><path d="m4.89254226 15.7873455-4.89254226 1.4027972 3.67859822-3.4756455-3.67859822-3.4756454 4.89254226 1.4027971 1.21361281-4.87844254 1.21394404 4.87844254 4.89254229-1.4027971-3.67859825 3.4756454 3.67859825 3.4756455-4.89254229-1.4027972-1.21394404 4.8784426z" fill="#e4002b"/></g></g></svg>