<svg viewBox="0 0 410 76" xmlns="http://www.w3.org/2000/svg"><title>Config Logo</title><path d="m18.0832066 68.7851027-10.20017486-7.2041791-3.94151587-11.7898461-3.94151587-11.789846 3.87526989-11.5365582c2.6589527-7.9156005 4.10599955-11.7560703 4.61038415-12.2359371.40431411-.3846658 5.02420346-3.7434865 10.26642086-7.46406374l9.5313066-6.76467246 12.7084215.09604269 12.7084214.09604268 8.0263688 5.85240309c4.4145028 3.21882851 8.1360077 5.94917604 8.2700039 6.06744714.1340087.1183206-3.7068299 4.0811581-8.5352027 8.8064211l-8.7788503 8.5913771-3.6164543-2.6244777-3.6164542-2.6244902-4.7371503.0049507-4.7371628.0049506-3.6747624 2.6969059-3.6747623 2.6969058-1.237211 3.765851c-.6804592 2.0712174-1.2466025 4.1339692-1.2581049 4.583897-.0283135 1.1062113 2.276038 7.8763666 2.9311035 8.6117367.2881909.3235129 1.9897558 1.6129107 3.7812539 2.8653147l3.2572521 2.2771028 4.7868758-.0086637 4.7868884-.0086636 3.5115301-2.5985859 3.5115426-2.5985734 8.7740472 8.5760795c6.8700282 6.7150174 8.6843667 8.6602655 8.3607966 8.9640376-.227279.2133856-3.9931248 2.9795263-8.3685196 6.1469794l-7.9552691 5.759009-12.6122946-.0049507-12.6123073-.0049506zm290.6758504 6.8145867c-1.546307-.4403573-15.213751-13.7975058-16.135752-15.7694148-.342816-.7332025-.623305-2.0079588-.623305-2.8327975 0-2.6433783.850734-3.776782 8.415257-11.2115779 5.827022-5.7270762 7.419784-7.1145167 8.510473-7.4133954 3.86-1.0577519 5.177396-.2781708 13.302275 7.871765 3.611892 3.6230348 6.838178 7.1122368 7.169533 7.7537779.364307.7053401.602462 1.8910299.602462 2.9994304 0 1.1084006-.238155 2.2940904-.602462 2.9994304-.331355.6415412-3.557641 4.1307432-7.169533 7.753778-8.122661 8.1477188-9.533358 8.9697989-13.468948 7.8490039zm-73.505778.0022689c-6.188372-1.3334035-10.726201-6.4621225-11.150524-12.6025242-.273672-3.9602975.702332-6.9880195 3.369482-10.4526647.77709-1.0094266 1.168034-1.8699108 1.168034-2.5708175 0-.7009066-.390944-1.5613909-1.168034-2.5708175-4.578968-5.9481004-4.631343-12.6630878-.143778-18.4324846 1.992974-2.5622399 2.00006-3.1875351.065609-5.7867503-2.335679-3.1383256-3.112744-5.1320162-3.299636-8.4656427-.127445-2.2732427-.025244-3.170665.553805-4.86322338 1.397953-4.08615974 3.722823-6.69189491 7.629177-8.55086066l2.479883-1.18013516 19.285681-.09457642c16.685876-.08180922 19.559752-.02491463 21.318782.42209838 4.030412 1.02413986 7.20133 3.5523546 9.005149 7.1798993 2.676923 5.38343084 2.052672 10.74026124-1.81368 15.56354684-1.013832 1.2647458-1.405714 2.0558905-1.405714 2.8378131s.391882 1.5730549 1.405714 2.8378006c3.757878 4.6879658 4.463697 10.0107834 2.015531 15.1998058-1.145351 2.4276761-2.802643 4.3355911-4.957278 5.7069615-3.226642 2.0536841-3.583656 2.1097358-14.710123 2.3093379l-10.195252.1828808-.913707 1.0150045c-.883127.9810412-.920405 1.1730822-1.114059 5.7393009-.110224 2.5983599-.413101 5.4843165-.673127 6.4132354-1.48317 5.2986343-5.837068 9.25737-11.274282 10.2510173-2.366809.4325229-3.11668.4204498-5.477666-.0882548zm140.746721-8.2668167v-8.6649201h8.498533 8.498521v-8.3351169-8.3351046h8.501473 8.501473l-.084625 16.9153749-.084625 16.9153749-16.915332.0846251-16.915418.0846251zm-281.3703373 1.1514275v-7.5135183l-5.1848762 5.2004791c-2.8516695 2.8602642-5.332607 5.2004791-5.5131738 5.2004791s-3.285997-2.973738-6.900963-6.6083123l-6.5726533-6.6083123 5.2495662-5.28082 5.2495659-5.2808325-7.391277-.0891706-7.3912899-.0891705-.0872808-9.4999985-.0872808-9.4999984h7.6521127 7.6521124l-5.3435109-5.3674553-5.3435112-5.3674554 6.6572983-6.6930992 6.6572979-6.69309929 5.3489318 5.36549459 5.3489317 5.3654946v-7.51363071-7.51364319h9.5398633 9.539852v7.348303 7.348303l5.184503-5.20010445 5.184515-5.20010444 6.736883 6.77311549 6.736883 6.7731154-5.256081 5.2873892-5.256081 5.2873767h7.48 7.48v9.5826061 9.5826186h-7.48-7.48l5.257075 5.2883758 5.257076 5.2883883-6.657584 6.6874293-6.657596 6.6874293-5.264797-5.2806327-5.264796-5.2806452v7.5135183 7.5135183h-9.539852-9.5398633zm15.8725743-36.9854409-5.497763-5.5011282-5.5022432 5.4988718-5.5022308 5.4988599 5.4977627 5.5011401 5.4977633 5.5011282 5.502231-5.4988718 5.502243-5.4988717zm39.497763 19.4360962v-23.0627755h6.861385 6.861385v-13.9372182-13.9372307h19.27723 19.277227v13.9372307 13.9372182h6.861388 6.861385v23.0627755 23.0627756h-13.232681-13.232664v-21.5827277c0-20.5621407-.029391-21.6409347-.621671-22.8138935-2.5078-4.966541-9.318172-4.966541-11.825971 0-.592268 1.1729588-.621671 2.2517528-.621671 22.8138935v21.5827277h-13.232665-13.232677zm184-21.9372244v-29h29 29l-.004982 20.4657228-.004982 20.4657103-8.699864 8.5342835-8.699865 8.5342834h-20.294755-20.294755zm35.695432 9.9989656c3.926342-1.8749404 6.292579-5.6121284 6.304568-9.9572147.022501-8.200668-8.49417-13.515688-15.822234-9.8742173-5.379272 2.6730948-7.695936 9.2099532-5.131858 14.4804334 1.175335 2.415907 3.890201 5.022138 6.027102 5.7859123.825191.2949409 2.618818.5488505 3.98586.5642661 2.035405.022893 2.875062-.1580162 4.636562-.9991798zm-63.635456-5.5959876c-3.024232-.9773177-4.714081-2.0189311-7.029331-4.3328477-3.520593-3.5185778-5.053236-7.2193624-5.030645-12.146584.02215-4.7333657 1.707607-8.73410479 5.092692-12.08812523 8.100462-8.02612218 21.939431-5.73829625 27.07553 4.47606959 4.870293 9.68577214-.389661 21.45858294-10.828216 24.23565264-2.476861.6589338-7.012932.5884739-9.28003-.1441653z"/></svg>