<svg viewBox="0 0 408 103" xmlns="http://www.w3.org/2000/svg"><title>Information Architecture Conference Logo</title><path d="m3.576 102.758884v-16.1065545h-3.096v-3.1827323h9.768v3.1827323h-3.072v16.1065545zm7.832 0v-19.2892868h3.6v7.8844959h2.52v-7.8844959h3.6v19.2892868h-3.6v-8.2220586h-2.52v8.2220586zm11.84 0v-19.2892868h8.304v3.1827323h-4.704v4.7017636h4.464v3.1827323h-4.464v5.0393262h4.704v3.1827324zm15.424 0v-19.2892868h3.6v19.2892868zm5.72 0v-19.2892868h5.208l1.44 6.1484601 1.32 9.9580943h.624l-.672-7.8362727-.288-8.2702817h3.48v19.2892868h-5.472l-1.44-6.3172415-.984-9.8134246h-.672l.624 8.7284022.312 7.4022639zm13.232 0v-19.2892868h8.304v3.1827323h-4.704v4.7017636h4.464v3.1827323h-4.464v8.2220586zm14.576.241116c-1.76 0-3.036-.37373-3.828-1.12119s-1.204-1.9892075-1.236-3.7252433c-.032-1.5752917-.048-3.2590857-.048-5.051382 0-1.7922962.016-3.4760902.048-5.0513819.032-1.7199614.444-2.9536721 1.236-3.7011319.792-.7474599 2.068-1.1211898 3.828-1.1211898s3.024.3737299 3.792 1.1211898c.768.7474598 1.184 1.9811705 1.248 3.7011319.064 1.6074405.096 3.2992717.096 5.0754935 0 1.7762219-.032 3.4519787-.096 5.0272704-.064 1.7360358-.48 2.9777833-1.248 3.7252433s-2.032 1.12119-3.792 1.12119zm0-2.941616c.928 0 1.408-.4098976 1.44-1.2296923.032-.8197946.06-1.7199614.084-2.7005001s.036-1.9892077.036-3.0260069c0-1.0367991-.012-2.0454681-.036-3.0260068-.024-.9805388-.052-1.8807055-.084-2.7005002-.032-.8037202-.512-1.2055804-1.44-1.2055804-.944 0-1.432.4018602-1.464 1.2055804-.032.8197947-.056 1.7199614-.072 2.7005002-.016.9805387-.024 1.9892077-.024 3.0260068 0 1.0367992.008 2.0454682.024 3.0260069s.04 1.8807055.072 2.7005001c.032.8197947.52 1.2296923 1.464 1.2296923zm6.776 2.7005v-19.2892868h4.632c1.792 0 3.084.3656927 3.876 1.0970782.792.7313854 1.22 1.9329472 1.284 3.6046854.016.4500834.028.8439063.036 1.1814688s.008.6751251 0 1.0126876-.02.7313854-.036 1.1814688c-.032 1.0448364-.208 1.9007985-.528 2.5678863s-.808 1.1774502-1.464 1.5310871l2.256 7.1129246h-3.816l-1.824-6.5101344h-.816v6.5101344zm3.6-9.6928667h1.032c.992 0 1.512-.4420461 1.56-1.3261384.08-1.2538037.08-2.5076073 0-3.761411-.048-.8840923-.568-1.3261384-1.56-1.3261384h-1.032zm8.096 9.6928667v-19.2892868h5.784l1.584 7.3058173.312 8.8007371h.624l.288-8.8007371 1.608-7.3058173h5.76v19.2892868h-3.6v-5.9314558l.696-10.1750987h-.648l-1.008 10.4162148-1.488 5.6903397h-3.864l-1.464-5.6903397-1.032-10.4162148h-.624l.672 10.1750987v5.9314558zm25.448-19.2892868 2.664 19.2892868h-3.696l-.408-4.0266387h-2.784l-.408 4.0266387h-3.696l2.664-19.2892868zm11.912 0v3.1827323h-3.072v16.1065545h-3.6v-16.1065545h-3.096v-3.1827323zm-14.408 3.1827323h-.672l-.288 4.6294288-.432 4.2677547h2.112l-.432-4.2677547zm15.568 16.1065545v-19.2892868h3.6v19.2892868zm10.592.241116c-1.76 0-3.036-.37373-3.828-1.12119s-1.204-1.9892075-1.236-3.7252433c-.032-1.5752917-.048-3.2590857-.048-5.051382 0-1.7922962.016-3.4760902.048-5.0513819.032-1.7199614.444-2.9536721 1.236-3.7011319.792-.7474599 2.068-1.1211898 3.828-1.1211898s3.024.3737299 3.792 1.1211898c.768.7474598 1.184 1.9811705 1.248 3.7011319.064 1.6074405.096 3.2992717.096 5.0754935 0 1.7762219-.032 3.4519787-.096 5.0272704-.064 1.7360358-.48 2.9777833-1.248 3.7252433s-2.032 1.12119-3.792 1.12119zm0-2.941616c.928 0 1.408-.4098976 1.44-1.2296923.032-.8197946.06-1.7199614.084-2.7005001s.036-1.9892077.036-3.0260069c0-1.0367991-.012-2.0454681-.036-3.0260068-.024-.9805388-.052-1.8807055-.084-2.7005002-.032-.8037202-.512-1.2055804-1.44-1.2055804-.944 0-1.432.4018602-1.464 1.2055804-.032.8197947-.056 1.7199614-.072 2.7005002-.016.9805387-.024 1.9892077-.024 3.0260068 0 1.0367992.008 2.0454682.024 3.0260069s.04 1.8807055.072 2.7005001c.032.8197947.52 1.2296923 1.464 1.2296923zm6.776 2.7005v-19.2892868h5.208l1.44 6.1484601 1.32 9.9580943h.624l-.672-7.8362727-.288-8.2702817h3.48v19.2892868h-5.472l-1.44-6.3172415-.984-9.8134246h-.672l.624 8.7284022.312 7.4022639zm17.8 0 2.664-19.2892868h5.664l2.664 19.2892868h-3.696l-.408-4.0266387h-2.784l-.408 4.0266387zm4.44-7.209371h2.112l-.432-4.2677547-.288-4.6294288h-.672l-.288 4.6294288zm7.712 7.209371v-19.2892868h4.632c1.792 0 3.084.3656927 3.876 1.0970782.792.7313854 1.22 1.9329472 1.284 3.6046854.016.4500834.028.8439063.036 1.1814688s.008.6751251 0 1.0126876-.02.7313854-.036 1.1814688c-.032 1.0448364-.208 1.9007985-.528 2.5678863s-.808 1.1774502-1.464 1.5310871l2.256 7.1129246h-3.816l-1.824-6.5101344h-.816v6.5101344zm3.6-9.6928667h1.032c.992 0 1.512-.4420461 1.56-1.3261384.08-1.2538037.08-2.5076073 0-3.761411-.048-.8840923-.568-1.3261384-1.56-1.3261384h-1.032zm12.704 9.9339827c-1.808 0-3.096-.37373-3.864-1.12119s-1.168-1.9892075-1.2-3.7252433c-.016-.675125-.024-1.4507151-.024-2.3267702s0-1.784259 0-2.7246118c0-.9403527 0-1.8525752 0-2.7366675s.008-1.663701.024-2.338826c.032-1.4788454.444-2.6482584 1.236-3.5082391s2.068-1.289971 3.828-1.289971c1.728 0 2.98.3737299 3.756 1.1211898.776.7474598 1.188 1.9811705 1.236 3.7011319.016.4018601.02.8439063.012 1.3261384-.008.4822322-.02.9242784-.036 1.3261385h-3.6c.016-.3054137.024-.6590506.024-1.0609108 0-.4018601.004-.8077389.012-1.2176362s.004-.7595157-.012-1.048855c-.032-.8037202-.496-1.2055804-1.392-1.2055804-.944 0-1.432.4018602-1.464 1.2055804-.032 1.1252084-.056 2.3629377-.072 3.7131877-.016 1.3502501-.016 2.6964816 0 4.0386944.016 1.3422129.04 2.5759235.072 3.7011319.032.8197947.52 1.2296923 1.464 1.2296923.96 0 1.456-.4098976 1.488-1.2296923.016-.2893393.024-.6389576.024-1.0488549 0-.4098974 0-.8157761 0-1.2176363 0-.4018601-.008-.7474598-.024-1.0367991h3.6c.016.3857857.024.8238133.024 1.3140826 0 .4902694-.008.928297-.024 1.3140827-.048 1.7360358-.468 2.9777833-1.26 3.7252433s-2.068 1.12119-3.828 1.12119zm6.272-.241116v-19.2892868h3.6v7.8844959h2.52v-7.8844959h3.6v19.2892868h-3.6v-8.2220586h-2.52v8.2220586zm11.84 0v-19.2892868h3.6v19.2892868zm8.096 0v-16.1065545h-3.096v-3.1827323h9.768v3.1827323h-3.072v16.1065545zm7.832 0v-19.2892868h8.304v3.1827323h-4.704v4.7017636h4.464v3.1827323h-4.464v5.0393262h4.704v3.1827324zm14.792.241116c-1.808 0-3.096-.37373-3.864-1.12119s-1.168-1.9892075-1.2-3.7252433c-.016-.675125-.024-1.4507151-.024-2.3267702s0-1.784259 0-2.7246118c0-.9403527 0-1.8525752 0-2.7366675s.008-1.663701.024-2.338826c.032-1.4788454.444-2.6482584 1.236-3.5082391s2.068-1.289971 3.828-1.289971c1.728 0 2.98.3737299 3.756 1.1211898.776.7474598 1.188 1.9811705 1.236 3.7011319.016.4018601.02.8439063.012 1.3261384-.008.4822322-.02.9242784-.036 1.3261385h-3.6c.016-.3054137.024-.6590506.024-1.0609108 0-.4018601.004-.8077389.012-1.2176362s.004-.7595157-.012-1.048855c-.032-.8037202-.496-1.2055804-1.392-1.2055804-.944 0-1.432.4018602-1.464 1.2055804-.032 1.1252084-.056 2.3629377-.072 3.7131877-.016 1.3502501-.016 2.6964816 0 4.0386944.016 1.3422129.04 2.5759235.072 3.7011319.032.8197947.52 1.2296923 1.464 1.2296923.96 0 1.456-.4098976 1.488-1.2296923.016-.2893393.024-.6389576.024-1.0488549 0-.4098974 0-.8157761 0-1.2176363 0-.4018601-.008-.7474598-.024-1.0367991h3.6c.016.3857857.024.8238133.024 1.3140826 0 .4902694-.008.928297-.024 1.3140827-.048 1.7360358-.468 2.9777833-1.26 3.7252433s-2.068 1.12119-3.828 1.12119zm8.648-.241116v-16.1065545h-3.096v-3.1827323h9.768v3.1827323h-3.072v16.1065545zm12.944.241116c-1.792 0-3.076-.37373-3.852-1.12119s-1.18-1.9892075-1.212-3.7252433c-.08-4.9026937-.08-9.7973502 0-14.6839695h3.6c-.032 1.6074405-.052 3.2912345-.06 5.0513819-.008 1.7601475-.004 3.5122577.012 5.2563307s.032 3.427867.048 5.0513819c0 .8197947.488 1.2296923 1.464 1.2296923.96 0 1.44-.4098976 1.44-1.2296923.016-1.6235149.032-3.3073089.048-5.0513819s.02-3.4961832.012-5.2563307c-.008-1.7601474-.028-3.4439414-.06-5.0513819h3.6c.08 4.8866193.08 9.7812758 0 14.6839695-.016 1.7360358-.412 2.9777833-1.188 3.7252433s-2.06 1.12119-3.852 1.12119zm7.208-.241116v-19.2892868h4.632c1.792 0 3.084.3656927 3.876 1.0970782.792.7313854 1.22 1.9329472 1.284 3.6046854.016.4500834.028.8439063.036 1.1814688s.008.6751251 0 1.0126876-.02.7313854-.036 1.1814688c-.032 1.0448364-.208 1.9007985-.528 2.5678863s-.808 1.1774502-1.464 1.5310871l2.256 7.1129246h-3.816l-1.824-6.5101344h-.816v6.5101344zm3.6-9.6928667h1.032c.992 0 1.512-.4420461 1.56-1.3261384.08-1.2538037.08-2.5076073 0-3.761411-.048-.8840923-.568-1.3261384-1.56-1.3261384h-1.032zm8.096 9.6928667v-19.2892868h8.304v3.1827323h-4.704v4.7017636h4.464v3.1827323h-4.464v5.0393262h4.704v3.1827324zm20.512.241116c-1.808 0-3.096-.37373-3.864-1.12119s-1.168-1.9892075-1.2-3.7252433c-.016-.675125-.024-1.4507151-.024-2.3267702s0-1.784259 0-2.7246118c0-.9403527 0-1.8525752 0-2.7366675s.008-1.663701.024-2.338826c.032-1.4788454.444-2.6482584 1.236-3.5082391s2.068-1.289971 3.828-1.289971c1.728 0 2.98.3737299 3.756 1.1211898.776.7474598 1.188 1.9811705 1.236 3.7011319.016.4018601.02.8439063.012 1.3261384-.008.4822322-.02.9242784-.036 1.3261385h-3.6c.016-.3054137.024-.6590506.024-1.0609108 0-.4018601.004-.8077389.012-1.2176362s.004-.7595157-.012-1.048855c-.032-.8037202-.496-1.2055804-1.392-1.2055804-.944 0-1.432.4018602-1.464 1.2055804-.032 1.1252084-.056 2.3629377-.072 3.7131877-.016 1.3502501-.016 2.6964816 0 4.0386944.016 1.3422129.04 2.5759235.072 3.7011319.032.8197947.52 1.2296923 1.464 1.2296923.96 0 1.456-.4098976 1.488-1.2296923.016-.2893393.024-.6389576.024-1.0488549 0-.4098974 0-.8157761 0-1.2176363 0-.4018601-.008-.7474598-.024-1.0367991h3.6c.016.3857857.024.8238133.024 1.3140826 0 .4902694-.008.928297-.024 1.3140827-.048 1.7360358-.468 2.9777833-1.26 3.7252433s-2.068 1.12119-3.828 1.12119zm11.384 0c-1.76 0-3.036-.37373-3.828-1.12119s-1.204-1.9892075-1.236-3.7252433c-.032-1.5752917-.048-3.2590857-.048-5.051382 0-1.7922962.016-3.4760902.048-5.0513819.032-1.7199614.444-2.9536721 1.236-3.7011319.792-.7474599 2.068-1.1211898 3.828-1.1211898s3.024.3737299 3.792 1.1211898c.768.7474598 1.184 1.9811705 1.248 3.7011319.064 1.6074405.096 3.2992717.096 5.0754935 0 1.7762219-.032 3.4519787-.096 5.0272704-.064 1.7360358-.48 2.9777833-1.248 3.7252433s-2.032 1.12119-3.792 1.12119zm0-2.941616c.928 0 1.408-.4098976 1.44-1.2296923.032-.8197946.06-1.7199614.084-2.7005001s.036-1.9892077.036-3.0260069c0-1.0367991-.012-2.0454681-.036-3.0260068-.024-.9805388-.052-1.8807055-.084-2.7005002-.032-.8037202-.512-1.2055804-1.44-1.2055804-.944 0-1.432.4018602-1.464 1.2055804-.032.8197947-.056 1.7199614-.072 2.7005002-.016.9805387-.024 1.9892077-.024 3.0260068 0 1.0367992.008 2.0454682.024 3.0260069s.04 1.8807055.072 2.7005001c.032.8197947.52 1.2296923 1.464 1.2296923zm6.776 2.7005v-19.2892868h5.208l1.44 6.1484601 1.32 9.9580943h.624l-.672-7.8362727-.288-8.2702817h3.48v19.2892868h-5.472l-1.44-6.3172415-.984-9.8134246h-.672l.624 8.7284022.312 7.4022639zm13.232 0v-19.2892868h8.304v3.1827323h-4.704v4.7017636h4.464v3.1827323h-4.464v8.2220586zm9.464 0v-19.2892868h8.304v3.1827323h-4.704v4.7017636h4.464v3.1827323h-4.464v5.0393262h4.704v3.1827324zm9.704 0v-19.2892868h4.632c1.792 0 3.084.3656927 3.876 1.0970782.792.7313854 1.22 1.9329472 1.284 3.6046854.016.4500834.028.8439063.036 1.1814688s.008.6751251 0 1.0126876-.02.7313854-.036 1.1814688c-.032 1.0448364-.208 1.9007985-.528 2.5678863s-.808 1.1774502-1.464 1.5310871l2.256 7.1129246h-3.816l-1.824-6.5101344h-.816v6.5101344zm3.6-9.6928667h1.032c.992 0 1.512-.4420461 1.56-1.3261384.08-1.2538037.08-2.5076073 0-3.761411-.048-.8840923-.568-1.3261384-1.56-1.3261384h-1.032zm8.096 9.6928667v-19.2892868h8.304v3.1827323h-4.704v4.7017636h4.464v3.1827323h-4.464v5.0393262h4.704v3.1827324zm9.704 0v-19.2892868h5.208l1.44 6.1484601 1.32 9.9580943h.624l-.672-7.8362727-.288-8.2702817h3.48v19.2892868h-5.472l-1.44-6.3172415-.984-9.8134246h-.672l.624 8.7284022.312 7.4022639zm18.08.241116c-1.808 0-3.096-.37373-3.864-1.12119s-1.168-1.9892075-1.2-3.7252433c-.016-.675125-.024-1.4507151-.024-2.3267702s0-1.784259 0-2.7246118c0-.9403527 0-1.8525752 0-2.7366675s.008-1.663701.024-2.338826c.032-1.4788454.444-2.6482584 1.236-3.5082391s2.068-1.289971 3.828-1.289971c1.728 0 2.98.3737299 3.756 1.1211898.776.7474598 1.188 1.9811705 1.236 3.7011319.016.4018601.02.8439063.012 1.3261384-.008.4822322-.02.9242784-.036 1.3261385h-3.6c.016-.3054137.024-.6590506.024-1.0609108 0-.4018601.004-.8077389.012-1.2176362s.004-.7595157-.012-1.048855c-.032-.8037202-.496-1.2055804-1.392-1.2055804-.944 0-1.432.4018602-1.464 1.2055804-.032 1.1252084-.056 2.3629377-.072 3.7131877-.016 1.3502501-.016 2.6964816 0 4.0386944.016 1.3422129.04 2.5759235.072 3.7011319.032.8197947.52 1.2296923 1.464 1.2296923.96 0 1.456-.4098976 1.488-1.2296923.016-.2893393.024-.6389576.024-1.0488549 0-.4098974 0-.8157761 0-1.2176363 0-.4018601-.008-.7474598-.024-1.0367991h3.6c.016.3857857.024.8238133.024 1.3140826 0 .4902694-.008.928297-.024 1.3140827-.048 1.7360358-.468 2.9777833-1.26 3.7252433s-2.068 1.12119-3.828 1.12119zm6.272-.241116v-19.2892868h8.304v3.1827323h-4.704v4.7017636h4.464v3.1827323h-4.464v5.0393262h4.704v3.1827324zm-398.01464036-37.2739138c5.39887428-.4818245 9.84478296-3.7356277 10.56199856-9.4855361 2.2083144-17.704123.1236733-37.0241003.1236733-54.88060171-5.17212229.27278369-9.82871971 3.25826132-10.55993423 8.80799781-2.35231309 17.8534525-.12573763 37.5329587-.12573763 55.55814m22.85958536-59.56010801c4.9931474-7.99245852 21.8668785-5.03822895 29.900921-4.79557539 4.5847943.13848205 9.0190009 2.71793131 10.3058764 7.44298852 2.8116807 10.32374578.3797955 24.51851858.3797955 35.23146958 0 4.5875372.9707799 10.5371771-.5869506 14.9032271-1.5867689 4.4474224-5.7564717 6.3904734-10.0987213 6.7779982 0-4.9391118 2.0482162-15.9532624-.6864142-20.1107593-1.888225-2.8706959-17.442436-2.8706959-19.330661 0-2.7346304 4.1575037-.6864141 15.1716475-.6864141 20.1107593-4.0882112-.3648543-8.1358769-2.0223501-9.8652862-6.1077773-1.6021161-3.7847425-.8203857-8.8337646-.8203857-12.8632949v-27.1015317c0-4.2672107-.8739878-9.70631195 1.4882402-13.48750411zm29.900921 6.03444741h-20.7034893v21.0036871h20.7034893zm62.778322 42.685048h-31.3891608v-42.6849125h31.3891608c-.623609-13.61538949-15.908674-10.84061271-25.3784704-10.84061271-5.0869876 0-10.560723-.6514463-14.3202162 3.6103983-3.3897088 3.84265843-2.3761461 9.93361931-2.3761461 14.68313561 0 11.7306948-.2964139 23.5057954.0098174 35.2319913.099517 3.8107192 1.3339859 7.0918 4.6919917 9.124293 3.9538322 2.3931262 8.9222756 1.7163196 13.3302622 1.7163196 9.2518954 0 23.4413324 2.2908383 24.0427614-10.8406126m10.685672-42.6849125h31.389161v10.1630744c-7.82324 0-20.697825-2.4791872-27.353176 2.4743766-6.703629 4.9894868-5.267789 25.1067235-3.808734 32.7576146.524473 2.7502025 2.108123 4.9818104 4.474532 6.4141399 3.953852 2.3931262 8.922302 1.7163196 13.330289 1.7163196 9.251908 0 23.441332 2.2908248 24.042761-10.8406126h-31.389161v-21.0036871c6.231911 0 12.468503.0729912 18.699926-.0027102 11.356158-.1377706 12.689235-7.9940507 12.689235-17.6133532 0-3.7168396.376423-7.59153203-1.998915-10.71514617-3.673407-4.83061089-9.345401-4.1906963-14.697447-4.1906963-9.515951 0-24.755616-2.79036015-25.378471 10.84061267m60.106905-10.40094452c7.707047-2.36219661 29.19206-2.9702398 33.547319 5.00782103 3.62426 6.63900129 1.181114 19.61449649 1.181114 27.07434889 0 9.1157764 3.864293 27.8548391-7.346907 31.3021608-7.56448 2.3260025-29.408037 3.1836372-33.600414-4.905357-3.519606-6.7909121-1.127512-19.5231507-1.127512-27.0743421 0-9.1022256-3.876928-27.96470195 7.3464-31.40463162zm24.042761 32.08210222h-10.017817v10.1630744c-9.722185 0-10.685672.9774573-10.685672 10.8406126h20.703489zm0-21.6812254h-20.703489v21.0036871h10.017818c0-9.538418 1.283596-10.8406127 10.685671-10.8406127zm21.371344.0000677h31.389161v10.1630744c-7.82324 0-20.697825-2.4791803-27.353176 2.4743766-6.703629 4.9894937-5.267789 25.1067235-3.808734 32.7576147.524473 2.7501957 2.108123 4.9818239 4.474532 6.4141398 3.953852 2.393133 8.922302 1.7163197 13.330289 1.7163197 9.251908 0 23.441332 2.2908247 24.042761-10.8406127h-31.389161v-21.0036871c6.231911 0 12.468483.0729912 18.699926-.0027101 11.356178-.1377707 12.689235-7.9940508 12.689235-17.6133533 0-3.7168395.376423-7.59153198-1.998915-10.71514612-3.673407-4.83060412-9.345381-4.1906963-14.697447-4.1906963-9.515972 0-24.755616-2.79036016-25.378471 10.84061272m83.481812 21.6812254v31.8442997c4.342236-.3875248 8.511966-2.3305759 10.098728-6.7779982 1.494037-4.1875119.586944-9.828567.586944-14.2256889 0-10.6005269 2.971592-26.6106145-.586944-36.58445249-1.576411-4.41832884-5.736516-6.54792655-10.098728-6.77799823v21.00368712h-20.703489v-21.00368712c-11.981757.63194674-15.168191 21.23974822-7.8715 29.06043042 5.936865 6.3632025 20.682618 3.4614077 28.574989 3.4614077m78.807448-33.640535c7.155005 0 13.01187 5.93836633 13.01187 13.2005404v11.9312092c0 1.4224775-1.133812 2.5727301-2.535959 2.5727301h-7.866106c-1.405567.0034698-2.539379-1.1467828-2.539379-2.5692603v-5.1591817c0-3.7671443-3.035782-6.8469602-6.749084-6.8469602h-26.261914c-3.713457 0-6.749176 3.0798159-6.749176 6.8469602v26.642708c0 3.7638322 3.035719 6.8471022 6.749176 6.8471022h4.142699c1.392041 0 2.519169-1.1434707 2.519169-2.5556963v-8.6813868c0-1.4530752 1.160708-2.6271435 2.589594-2.6271435h7.762255c1.432307 0 2.589595 1.1775382 2.589595 2.6271435v8.6813868c0 1.4122256 1.127127 2.5556963 2.519169 2.5556963h4.142698c3.713457 0 6.749239-3.0798002 6.749239-6.8471022v-3.2124427c0-1.4224775 1.133813-2.5727301 2.535959-2.5727301h7.866106c1.402147 0 2.535959 1.1502526 2.535959 2.5727301v9.9846278c0 7.2587516-5.853445 13.2005405-13.01187 13.2005405h-39.615949c-7.155036 0-13.011885-5.938319-13.011885-13.2005405v-40.1903904c0-7.25876732 5.853507-13.2005404 13.011885-13.2005404zm-15.926855 20.4050363c1.430286 0 2.589595 1.1762764 2.589595 2.6271435v7.8713364c0 1.4510248-1.159309 2.6271435-2.589595 2.6271435h-7.758834c-1.430131 0-2.589595-1.1761187-2.589595-2.6271435v-7.8713364c0-1.4508671 1.159464-2.6271435 2.589595-2.6271435z"/></svg>