<svg viewBox="0 0 100 99" xmlns="http://www.w3.org/2000/svg"><path d="m65.1725356 14.1514455c-3.7544898 1.0882731-6.7940357 4.1825183-10.3448469 5.842744-7.6027729 3.5549337-15.4501439 5.7117099-23.7931479 6.5420527-6.3692074.6340214-13.2970364.6331019-19.6552092 0-3.2248336-.3209188-8.37242943-2.3990745-11.3793316-1.3503415.94574889 4.5020578 5.7848384 9.0243453 8.87955682 12.1549123 6.63587448 6.7135464 12.29013788 14.8165147 20.77567098 19.530526 3.4220754 1.9011447 11.7301369 3.4156237 14.0230147 6.2836625.9866686 1.2340199.459771 3.9815993.459771 5.4790668 0 4.3517133 1.5085086 13.8197357-.5935643 17.5571976-1.0055191 1.7875818-6.909898 1.4565481-6.494265 4.157231.3604604 2.3439022 6.1062183.6413777 7.7774858 1.2643647 2.7034533 1.0073538 11.9793327 12.8992784 8.6207057 3.9176914 3.8335704 2.4321778 2.6220739 2.3935572 5.028975.0381608.7006909-.6855155 2.6285106-.2243673 2.4041424-1.7622945-.6924151-4.7429766-9.2689829-4.7098733-11.8009416-7.3563035-2.3581653-2.4652812-.6510357-13.852839-.4694262-17.1263941.0933335-1.6799958-1.3034507-3.7783813.0478162-5.13424 1.8326471-1.8376966 5.9554134-.5834469 8.2377165-1.4174678.8708063 3.2381529 1.3416117 13.9401952-.2491958 16.8868545-.9512662 1.7627542-6.3581728 2.0110295-5.813804 4.4827474.345288 1.568272 5.8607006.6308031 7.4423128 1.2165487 1.9177047.7103431 10.3770309 11.9374415 7.9310493 3.6206807 1.2537954.8183887 4.5935718 2.9645903 3.4482823-.3448268 1.5011522-.1264364 3.6124205-.2675855 2.3756366-2.3852814-2.1609236-3.6997609-7.1632318-3.2758539-9.8754208-5.6606755-2.2606938-1.9875813-2.2547168-15.5640992-.8717257-18.1512191 2.3852918-4.4629774 11.5816308-7.6294063 15.2395687-11.7337639 9.212431-10.3369857 15.3802586-23.9617794 18.9462423-37.2412865.6220701-2.3163161 4.8823083-11.08824821 4.2050653-12.72042805-.7820704-1.88413324-6.0000112.45103336-7.6055314.17241336-8.9342696-1.55080073-15.4653163.35448188-22.0593516 6.6569949-1.5356351 1.46804232-5.2482857 4.40734529-4.8372504 6.58067329m19.6552091-7.1553845c2.8855227-.68137761 3.9715017 3.5540141 1.3793129 4.2721733-2.4574758.6809178-4.0487432-3.64183004-1.3793129-4.2721733m-5.5172517 6.1209043v.6896534h-.6896564v-.6896534zm5.1724235 3.1034405-2.0689694 1.3793069zm-16.8965833.6896535 1.3793129 3.1034405c-1.435405-.2717234-1.8731069-1.484594-2.4137976-2.7586138zm17.931068 1.0344802c.620231 2.0790752-.9305765 2.7507977-2.7586259 2.7586138l.6896565 4.4827474h-.6896565c-.3866673-2.4225227-2.6836831-4.3912534 1.0344847-5.1724009v-.6896534l-1.0344847-.3448268zm-5.5172517 2.0689603.3448282.6896535h-.6896564zm-10.3448469 1.1494224c.2666671 0 .0551725.1714939-.1149428.1149423zm6.2069081-.1149422c-.164598 1.5075824-1.9641416 4.634931-3.103454 2.0689604zm-5.5172517 1.3793069-1.3793129.6896535v-.3448268zm-2.7586258.459769c.2666672 0 .0551725.1714938-.1149427.1149422zm10.3448469-.1149423 3.1034541.3448268-.6896565 2.0689603h-1.0344847zm-8.965534 1.3793069.3448282 3.1034406-3.4482823-1.0344802-.6896564 3.793094c-4.1172491-.8156302.9259787-4.6501034 1.7241411-6.2068811zm7.2413929.1149423c.2666671 0 .0551725.1714938-.1149428.1149422zm-5.5172517.2298845-1.0344847 1.0344801zm3.103454 2.0689603 1.7241412 4.4827475 3.4482823 1.0344802-1.0344847 2.0689603-1.3793129-.3448267c-.5834494 1.3098818-1.2754047 2.3494194-2.7586259 2.0689603 1.6234514-2.1085004.6400012-4.1724033 0-6.5517078l-.6896564 1.7241337-3.7931106-.3448268.6896565 2.0689604 1.3793129-.6896534.3448283 3.1034405-2.4137977-.3448267v-1.0344802h-.3448282l-2.0689694.3448267v-.3448267l1.379313-3.793094-2.0689694.3448267c.1218393-1.6685016 3.5227652-3.0684981 5.1724234-3.1034405v.6896534h-1.3793129c1.5641409 2.0193053 2.5701198-.2799993 3.7931105-1.3793069m7.2413929 2.0689604-2.7586259-1.3793069c1.4740258-.27862 2.942994-.5747112 2.7586259 1.3793069m1.7241411-.6896535v1.0344802l-1.0344847-.3448267zm-22.4138349 2.0689604h1.7241411v1.7241336c-.9719558-.2574706-1.9089691-.6386191-1.7241411-1.7241336m21.3793502.3448267c.2983914.9926412.273104 1.2947094-.6896564 1.7241337zm-31.7241972 1.7241337-.3448282.3448267zm16.5517551.3448267.3448282 1.0344802-2.7586258 1.3793069h-.3448282l-.6896565-.6896535v-2.0689603zm7.5862211-.3448267v.3448267l-1.3793129.3448267zm-42.0690442.6896534-.3448282 1.0344802-1.3793129-1.0344802zm24.4828044 4.8275742-.6896564-3.1034406-.6896565 4.8275742 2.0689694 1.7241336c-2.8905801-.5586192-2.9609251-.4629873-5.5172517.6896535l-1.3793129-2.0689604v-.3448267l1.0344847-2.0689603-5.1724235 1.7241336v1.0344802h1.7241412l-1.0344847 2.0689603-4.1379388 1.0344802 1.7241411 1.0344802-1.3793129 1.7241336 1.3793129.6896535-.6896564 1.3793069c-1.3600026-.5356309-1.3733359-1.3875828-1.3793129-2.7586138l-2.7586259 1.7241336v-.3448267l1.0344847-.3448268c-2.0482797-1.5921799-4.9338023-2.3190746-.6896565-4.1379207v-.3448267c-1.2482781-.2464362-1.7011526-.0041379-2.4137976 1.0344802h-.6896564l-.3448283-.3448267 1.379313-3.793094 1.3793129 2.0689603c1.6009225-1.7641335.6124149-2.6151659-.3448282-4.4827474l1.7241411-.6896535v1.7241337l2.4137976-.3448268v2.0689604l2.7586259-2.0689604-1.0344847-.6896534 2.0689694-.3448268.3448282.3448268-.3448282 1.0344802 6.8965646-2.0689604.3448282-2.4137871c1.9466703.8262048 6.1935748 2.8225217 2.4137976 4.8275742m19.4253237-4.5976897.1149427.2298845zm-24.2529189.1149422-.3448282.3448268zm29.6552278.6896535-.3448282 1.3793069h-1.3793129l.3448282-1.7241336zm-41.7242159 0-.3448282.3448267zm3.4482823.3448267.3448283 1.7241336c-1.172416-.2229879-1.3719566-.6004582-1.0344847-1.7241336zm-11.0345034.3448267-.3448282.3448268zm41.6092732.2298845-.1149427.2298845zm-45.0575555.459769.3448283.6896534h-.6896565zm39.3104183 2.0689604 1.3793129-1.379307h.6896565l.6896565 1.7241337c2.1154062-1.2979278 3.2754084-1.4390769 4.482767 1.0344802l-4.482767-.3448268.3448282 1.3793069-3.1034541.3448268.3448283-1.7241337-2.0689694-.6896534-.3448283-2.0689604c1.3314968-.2528729 1.8372449.4156312 2.0689694 1.7241337m-32.0690254-1.379307v1.0344802l-.6896565-.3448267v-.3448267zm17.2414115 2.7586139 1.0344847-2.4137871c-1.4423015.2597694-2.065751 1.2252843-1.0344847 2.4137871m9.6551905-2.2988449c.2666671 0 .0551725.1714938-.1149428.1149423zm14.1379574.2298845v1.3793069h-.3448282zm-14.8276139 2.4137871 3.4482823 1.0344802-1.3793129 1.0344801v.3448268l1.7241411 1.0344802-2.0689693-.3448268.3448282 1.7241337h-.3448282l-2.4137977-2.0689604 1.7241412.3448267-2.4137976-1.0344802-2.4137976-2.0689603 1.7241411-1.3793069c.3885065 1.3397668.612415 2.151259 2.0689694 2.4137871l-1.3793129-3.1034406c1.4528763.1098848 1.6749456.6947109 1.3793129 2.0689604m3.7931105-1.0344802v.3448267h-2.0689693zm12.4138163.6896535-.3448282.3448267zm-45.8621546 5.5172276-1.0344847-.3448267c.2275866-1.6924096-.3425294-2.8091884-1.7241412-3.793094v-.6896535c2.125981-.1999995 3.3140292 3.0657395 2.7586259 4.8275742m3.1034541-5.1724009h.3448282l.3448282.3448267v.6896535c-.7760934-.163218-1.0749445-.296551-.6896564-1.0344802m38.96559 1.0344802-.3448282 2.0689603-2.4137976-2.0689603zm-39.6552465.6896534 1.0344847 2.0689604zm38.2759336 3.1034406 1.3793129 1.3793069-1.0344847.3448267-1.7241411-1.0344802.6896564 2.7586138h-.6896564l-1.0344847-2.0689603c-2.3963263.6947109-2.6914993 1.8524091-2.0689694 4.1379207-2.9701205-.5544814-1.9250611-4.8151604 1.0344847-4.8275742l-1.7241412-2.4137871c2.0390843-1.7825243 2.8841433 1.7622945 5.1724235 1.7241337m-45.1724982-2.0689604-.3448283.3448267zm27.5862584 0-.3448282.3448267zm4.1379388 1.0344802-3.1034541.6896534c.3443685-1.91034 1.7742562-1.7108003 3.1034541-.6896534m-30.3448843-.6896535-.3448282 1.0344802zm11.3793316.3448268v1.0344801h.6896565v-1.0344801zm12.4138163 0 3.1034541 1.3793069v.6896534c-1.9977049-.0924135-4.7089743 1.842754-6.2069082.3448267h-.3448282l-1.3793129 1.0344802.3448282 1.0344802-3.1034541 2.0689604c.7117255-5.132401 4.5480545-3.7659677 7.9310493-5.5172277v-.3448267zm12.7586445.3448267.3448283 1.0344802h-1.0344847zm-19.6552091.3448267c-.005977 1.4570079-.1397704 2.2565461-1.3793129 3.1034405l.6896564-3.1034405zm2.4137976 0v.6896535h-.6896564v-.6896535zm-14.1379574.3448267v.6896535h-.6896565v-.6896535zm28.2759149.6896535v.3448267l-2.4137976 1.7241336h-.3448283l-1.0344847-2.0689603zm-12.4138163 3.1034405 1.3793129.3448268.3448282-1.379307c3.8156393 1.7356279-1.4671292 4.4363108-1.7241411 1.0344802m15.5172703-1.0344802.3448283 1.379307-2.0689694-.3448268 1.0344847-1.0344802zm-7.586221 1.0344802v.3448268l-1.379313.3448267v-1.0344802zm-32.0690255 0-.3448282.3448268zm36.2069642.1149423c.2666672 0 .0551726.1714938-.1149427.1149422zm-25.517289.5747112v.6896534h-1.0344847v-.6896534zm25.1724608 2.0689603c-1.9439117-.5981594-2.3894297-.1365513-1.7241411 1.7241337l-4.8275953-.6896535v-.3448267l3.7931106-2.0689604c1.2882782.1268963 3.123684-.413792 2.7586258 1.3793069m2.7586258-1.3793069h.3448283l.3448282 2.4137871c-.8813809-.6790787-1.2698874-1.3953988-.6896565-2.4137871m-22.4138349 1.3793069-1.379313-1.0344801zm3.103454-.6896534-1.0344847 2.0689604-1.3793129-1.379307zm3.7931106.3448267-.3448283.3448267zm1.3793129 0 1.0344847 1.3793069c-.9200017-.175172-1.4800028-.4505736-1.0344847-1.3793069m12.7586445 0-.6896564 2.4137871h-.3448283l.3448283-2.4137871zm-11.7241598 1.7241337-.6896565 1.0344801zm2.0689694.6896534-1.0344847 1.0344802zm-9.3103623 2.0689604c-.1770118.8533312-.2082762.8878138-1.0344846.6896534zm7.5862211 1.0344801.3448282 1.379307zm-.3448282 1.379307 1.7241411 1.7241336c-1.2501172-.0050575-3.1241437-.2859763-1.7241411-1.7241336z" fill="#fff"/></svg>