<svg clip-rule="evenodd" fill-rule="evenodd" stroke-linejoin="round" stroke-miterlimit="2" viewBox="0 0 358 84" xmlns="http://www.w3.org/2000/svg" xmlns:xlink="http://www.w3.org/1999/xlink"><title>Siggraph Logo</title><clipPath id="a"><path clip-rule="evenodd" d="m426.13 141.948h387.633v134.153h-387.633z"/></clipPath><g transform="matrix(.921231 0 0 .626152 -392.5636 -88.8806)"><path d="m426.13 141.948h387.633v134.153h-387.633z" fill="none"/><g clip-path="url(#a)"><path d="m12.018 68.479.025.023c.129.124.266.243.409.356l.219.166c6.019 2.334 19.201-1.934 32.296-10.942 15.427-10.613 24.856-23.763 21.053-29.377-2.982-4.399-13.251-2.829-25.004 3.196 16.788-10.456 32.767-14.243 36.783-8.367.084.126.126.275.202.411-.092-.259-.212-.5-.332-.739 4.223 6.703-4.881 20.047-22.833 33.38-18.655 13.856-37.864 17.664-42.818 11.893zm68.547-40.127c7.555 16.643 1.744 37.242-14.625 48.421-16.437 11.214-37.834 9.055-50.57-4.182 9.023 2.345 25.573-3.2 40.654-14.403 14.778-10.974 23.55-21.871 24.541-29.836zm-50.643-.825c18.732-13.912 38.064-17.633 43.042-11.744.076.114.169.209.242.316l-.01.01c-.316-.436-.724-.803-1.177-1.132-6.027-2.32-19.199 1.947-32.277 10.951-15.428 10.614-24.861 23.767-21.065 29.368 2.984 4.414 13.255 2.839 25.005-3.187-16.784 10.454-32.763 14.244-36.783 8.365-.076-.114-.113-.25-.173-.366.087.259.207.505.332.752-4.142-6.724 4.949-20.026 22.864-33.333zm-11.156-20.287c16.532-11.286 38.09-9.031 50.795 4.415-9.13-2.308-25.981 3.243-40.832 14.273-14.778 10.975-23.55 21.87-24.542 29.836-7.625-16.665-1.827-37.325 14.579-48.524zm86.132 40.922c0 4.876 3.805 6.779 8.111 6.779 2.816 0 7.139-.826 7.139-4.561 0-3.957-5.498-4.63-10.881-6.066-5.438-1.432-10.938-3.544-10.938-10.418 0-7.495 7.084-11.08 13.699-11.08 7.646 0 14.678 3.341 14.678 11.805h-7.796c-.253-4.413-3.393-5.542-7.244-5.542-2.554 0-5.531 1.075-5.531 4.155 0 2.818 1.745 3.18 10.925 5.538 2.676.668 10.873 2.361 10.873 10.676 0 6.725-5.272 11.746-15.237 11.746-8.109 0-15.705-4.004-15.591-13.032zm27.807 12.165v-36.634h8.057v36.634zm41.608-4.154c-2.821 3.639-6.507 5.021-10.05 5.021-11.339 0-18.011-8.464-18.011-19.039 0-10.868 6.672-19.339 18.011-19.339 7.483 0 14.564 4.625 15.439 12.931h-7.7c-.911-4.046-3.945-6.163-7.739-6.163-7.239 0-9.949 6.163-9.949 12.571 0 6.116 2.71 12.268 9.949 12.268 5.228 0 8.259-2.821 8.72-7.899h-8.114v-6.005h15.41v19.81h-5.132zm37.917 0c-2.816 3.639-6.509 5.021-10.05 5.021-11.336 0-18.014-8.464-18.014-19.039 0-10.868 6.678-19.339 18.014-19.339 7.483 0 14.569 4.625 15.444 12.931h-7.692c-.937-4.046-3.96-6.163-7.752-6.163-7.231 0-9.957 6.163-9.957 12.571 0 6.116 2.726 12.268 9.957 12.268 5.223 0 8.256-2.821 8.717-7.899h-8.109v-6.005h15.392v19.81h-5.124zm12.472 4.156v-36.636h19.746c6.571 0 10.72 4.566 10.72 10.1 0 4.319-1.739 7.547-5.798 9.185v.104c3.953 1.024 5.086 4.876 5.337 8.572.163 2.311.106 6.618 1.543 8.675h-8.052c-.976-2.316-.875-5.849-1.284-8.781-.567-3.847-2.052-5.542-6.108-5.542h-8.052v14.323zm8.052-30.38v10.319h8.831c3.585 0 5.536-1.542 5.536-5.241 0-3.533-1.951-5.078-5.536-5.078zm25.088 30.38 13.906-36.636h8.256l13.699 36.636h-8.362l-2.769-8.171h-13.705l-2.865 8.171zm17.91-27.608-4.775 13.438h9.493l-4.617-13.438zm19.077 27.608v-36.636h16.526c9.126 0 12.674 5.793 12.674 11.746 0 5.955-3.548 11.755-12.674 11.755h-8.466v13.135zm8.06-30.38v10.979h6.258c3.745 0 7.087-.82 7.087-5.489 0-4.667-3.342-5.49-7.087-5.49zm24.106-6.256h8.062v14.057h14.828v-14.057h8.052v36.636h-8.052v-15.808h-14.828v15.808h-8.062z" transform="matrix(1.0855 0 0 1.59706 425.184 141.94)"/></g></g></svg>