<svg clip-rule="evenodd" fill-rule="evenodd" stroke-linejoin="round" stroke-miterlimit="2" viewBox="0 0 127 130" xmlns="http://www.w3.org/2000/svg" xmlns:xlink="http://www.w3.org/1999/xlink"><clipPath id="a"><path clip-rule="evenodd" d="m474.925 36.947h182.176v225.389h-182.176z"/></clipPath><g transform="matrix(.692737 0 0 .574118 -328.998 -21.2122)"><path d="m474.925 36.947h182.176v225.389h-182.176z" fill="none"/><g clip-path="url(#a)"><path d="m123.759 25.164c.218.145.437.218.729.364.073.146.145.292.145.51v21.501c0 2.187-.291 4.155-.947 5.904s-1.604 3.207-2.843 4.373c-1.312 1.166-2.842 2.041-4.664 2.697s-3.936.947-6.341.947c-2.26 0-4.3-.291-6.05-.874-1.749-.583-3.28-1.385-4.519-2.551s-2.186-2.624-2.842-4.301c-.656-1.676-.948-3.717-.948-5.976v-21.72c0-.218 0-.364.146-.51.073-.146.292-.292.583-.364.292-.073.656-.146 1.094-.219.437-.073 1.02-.073 1.749-.073s1.312 0 1.749.073.802.146 1.093.219c.292.072.438.218.583.364.073.146.146.292.146.51v21.064c0 1.458.146 2.697.51 3.717.365 1.02.875 1.895 1.531 2.551s1.385 1.166 2.332 1.531c.948.364 1.968.51 3.061.51 1.167 0 2.187-.146 3.062-.51.874-.365 1.603-.875 2.259-1.531s1.093-1.458 1.458-2.478c.364-.948.51-2.114.51-3.353v-21.501c0-.218 0-.364.146-.51.145-.146.291-.292.583-.364.218-.073.656-.146 1.093-.219s1.02-.073 1.749-.073 1.312 0 1.75.073c.437.073.801.146 1.093.219zm33.162 32.871c.292.656.511 1.166.729 1.53.146.365.073.656-.145.875-.219.146-.584.291-1.167.364s-1.384.073-2.405.073c-.874 0-1.53-.073-2.041-.073-.51 0-.874-.073-1.166-.145-.291-.073-.51-.219-.656-.365-.145-.146-.291-.364-.364-.583l-6.706-12.901-6.705 12.901c-.146.219-.219.437-.364.583-.146.146-.365.292-.656.365-.292.072-.656.072-1.167.145-.437.073-1.166.073-1.967.073-.948 0-1.677 0-2.187-.073-.583 0-.875-.145-1.093-.364-.219-.219-.292-.51-.146-.875.073-.364.292-.874.656-1.53l8.527-15.598-7.944-14.65c-.292-.656-.51-1.239-.656-1.603s-.073-.656.146-.875c.218-.218.583-.291 1.166-.364.51-.073 1.385-.073 2.405-.073.875 0 1.531 0 2.041.073.437 0 .875.073 1.166.146.365.073.51.218.656.364s.219.365.365.583l6.268 11.808 6.122-11.808c.146-.218.219-.437.364-.583.146-.146.292-.291.583-.364.292-.073.656-.073 1.094-.146.51-.073 1.166-.073 1.968-.073.947 0 1.676 0 2.186.073s.875.146 1.093.364c.219.219.219.511.146.875-.146.437-.364.947-.656 1.603l-7.944 14.577zm29.883-28.571c1.531 1.457 2.697 3.28 3.572 5.466.801 2.187 1.166 4.665 1.166 7.507 0 3.28-.437 6.05-1.312 8.382s-2.114 4.227-3.717 5.685c-1.604 1.458-3.572 2.551-5.831 3.207s-5.029 1.02-8.163 1.02h-8.601c-.583 0-1.093-.145-1.53-.51-.437-.364-.656-.947-.656-1.749v-31.122c0-.802.219-1.385.656-1.749.437-.365.947-.51 1.53-.51h9.184c3.134 0 5.904.364 8.09 1.093 2.26.729 4.082 1.822 5.612 3.28zm-3.498 18.585c.437-1.53.656-3.352.583-5.393 0-1.676-.219-3.28-.583-4.738-.365-1.457-1.021-2.696-1.895-3.79-.875-1.02-1.968-1.895-3.353-2.478s-3.134-.874-5.393-.874h-3.645v24.27h3.79c1.968 0 3.645-.291 5.029-.801 1.385-.511 2.479-1.312 3.426-2.333.875-1.02 1.604-2.332 2.041-3.863zm38.337 11.516c.073.438.073.729-.073.875-.218.146-.583.291-1.166.364s-1.384.073-2.405.073c-.874 0-1.53-.073-2.041-.073-.51 0-.874-.073-1.166-.145-.291-.073-.51-.219-.656-.365s-.291-.364-.364-.583l-6.706-12.901-6.705 12.901c-.146.219-.219.437-.364.583-.146.146-.365.292-.656.365-.292.072-.656.072-1.167.145-.437.073-1.166.073-1.967.073-.948 0-1.677 0-2.187-.073-.583 0-.875-.145-1.093-.364-.219-.219-.292-.51-.146-.875.073-.364.291-.874.656-1.53l8.527-15.598-7.944-14.65c-.292-.656-.51-1.239-.656-1.603s-.073-.656.146-.875c.218-.218.583-.291 1.166-.364.51-.073 1.385-.073 2.405-.073.875 0 1.531 0 2.041.073.437 0 .875.073 1.166.146.364.073.51.218.656.364s.219.365.364.583l6.269 11.808 6.122-11.808c.146-.218.219-.437.364-.583.146-.146.292-.291.583-.364.292-.073.656-.073 1.094-.146.51-.073 1.166-.073 1.968-.073.947 0 1.676 0 2.186.073s.875.146 1.093.364c.219.219.219.511.146.875-.146.437-.364.947-.656 1.603l-7.944 14.577 8.454 15.671c.365.656.583 1.166.656 1.53zm-56.644-125.773c6.997 4.081 18.221 10.495 25.291 14.577 4.009 2.259 6.414 6.559 6.414 11.151v29.154c0 4.592-2.478 8.819-6.414 11.152-6.997 4.081-18.221 10.495-25.291 14.577-4.008 2.259-8.892 2.259-12.828 0-3.498-2.041-8.053-4.665-12.618-7.289l-1.824-1.048c-3.941-2.265-7.785-4.472-10.849-6.24-4.008-2.26-6.414-6.56-6.414-11.152v-29.154c0-4.592 2.479-8.819 6.414-11.151 7.07-4.082 18.222-10.569 25.291-14.577 4.009-2.26 8.892-2.26 12.828 0zm-17.128 41.472-.218-.001-.219.073c-.219.219-.437.365-.656.583-.583.438-1.02.948-1.385 1.385-.219.365-.51.729-.802 1.166-.291.438-.437.875-.656 1.458l-.291 1.385c-.073.364-.073.656-.073.947v.219s.292.802.51 1.166c.292.437.656.802 1.021 1.093.145.146.437.292.728.365.219.073.511.073.802.073.219 0 .51-.146.802-.219.219-.073.51-.219.802-.437.218-.146.364-.438.583-.729.146-.219.218-.365.218-.656v-.802c0-.218 0-.437.073-.656 0-.018.005-.041.012-.066l.05-.159.011-.066c.219-.583.583-.948.948-1.312.291-.292.656-.51 1.02-.729.364-.292.729-.437 1.166-.656.073-.073.656-.292.656-.292.073 0 .292-.291.292-.291v-.219l-.146-.437-.219-.073-.801-.292-1.385-.583c-.583-.145-1.166-.437-1.604-.728-.291-.073-.437-.146-.729-.365l-.072-.073h-.219c-.117-.058-.14-.07-.182-.072-.012 0-.024-.001-.037 0zm23.542 12.536h-.656l-.152.011-.278.05c-.048.007-.098.011-.153.011l-.583.292-.51.656c-.219.291-.365.437-.438.729-.058.175-.07.303-.072.459v2.456h-19.898v-2.332c0-.219-.073-.365-.219-.583-.073-.292-.291-.438-.437-.729-.219-.219-.364-.364-.656-.583-.219-.073-.437-.219-.656-.292-.291-.073-.583-.073-.802-.073-.291 0-.583.073-.801.219-.292.073-.583.292-.802.583-.292.219-.437.437-.583.802-.073.219-.219.437-.219.729v5.393s.073.219.073.292 0 .073.073.218c.219.365.364.656.656.948.291.219.583.364.802.437.072 0 .218.073.291.073h25.874s.219-.073.292-.073.073 0 .219-.073c.364-.218.655-.364.947-.656.219-.291.364-.437.437-.801 0-.073.073-.219.073-.292v-.583c0-.073.292-4.665.292-4.665v-.291l-.012-.153-.05-.278c-.007-.047-.011-.098-.011-.152-.073-.365-.365-.656-.656-.948-.292-.291-.583-.437-.802-.583-.218-.073-.364-.073-.583-.218zm-24.999-37.099c-.073.073-.219.073-.292.073-.146.073-.146.073-.219.073-.073.073-.218.218-.437.291-.364.292-.583.583-.802.948 0 .018-.004.041-.011.066l-.05.159-.012.066c-.072.146-.072.219-.072.219v.073c-.073.073-.073.219-.073.292v14.941c.145.364.145.729.218 1.093.073.365.146.802.365 1.166.218.511.364.875.656 1.312.437.656.874 1.239 1.457 1.822.511.511 1.021.948 1.604 1.312.219.073.51.219.802.438l.437.145c.51.219.875.365 1.312.584 1.093.364 2.259.728 3.425.947.729.219 1.458.219 2.187.292.51.072.875.072 1.312.072l2.331.001c.369.002.672.014 1.022.072.583.073 1.166.219 1.603.292.365.073.802.291 1.166.364.292.073.656.146.948.365.291.073.437.291.729.364.218.073.364.292.583.365.073.072.291.218.364.291l.729.729c.291.364.51.802.729 1.385.073.073.073.291.073.291v.875c.145.291.145.51.218.729.073.291.146.51.365.729.218.218.364.364.656.583.218.073.364.218.656.291.218.073.583.073.801.073.219 0 .511-.146.802-.219.292-.218.51-.364.729-.583.292-.145.437-.437.583-.728.146-.292.219-.438.219-.729v-1.166c0-.584-.073-1.167-.292-1.604-.218-.437-.364-1.02-.656-1.458-.218-.364-.364-.728-.656-1.093-.073-.146-.291-.219-.364-.437l-.437-.438c-.219-.291-.511-.437-.802-.728-.146-.219-.437-.365-.729-.583-.219-.073-.364-.292-.583-.365-1.385-.874-2.916-1.53-4.592-1.968-.219-.146-.51-.146-.802-.218-.364-.146-.728-.146-1.093-.219-.947-.219-1.749-.292-2.697-.292h-1.384c-.365-.072-.656-.072-1.021-.072-.583 0-1.093-.146-1.676-.219-.51-.073-.875-.219-1.312-.292-.091-.018-.178-.041-.262-.066l-.497-.159-.262-.066c-.291-.073-.51-.219-.728-.292l-.583-.291c-.073-.073-.292-.219-.365-.292-.073-.146-.219-.146-.291-.219-.511-.364-.948-.801-1.312-1.384 0-.073-.073-.219-.073-.292-.146-.073-.219-.219-.219-.291-.146-.146-.219-.219-.219-.438-.072-.145-.072-.218-.072-.437v-14.213c-.073-.072-.073-.218-.073-.291-.073-.292-.219-.437-.292-.656-.146-.146-.364-.802-1.02-1.093-.506-.253-1.175-.287-1.345-.291zm25.072.219h-.802c-.018 0-.041.004-.066.011l-.159.05-.066.012c-.146.072-.146.072-.219.072-.364.219-.656.365-.947.656-.292.146-.511.511-.584.802 0 .073-.072.219-.072.292v14.358c-.073.51-.365.948-.656 1.312l-.219.219c-.146 0-.146.145-.219.218l-.291.292c-.073.073-.292.219-.365.291-.145.146-.218.292-.437.365s-.437.291-.656.364c-.364.146-.656.365-.947.438-.146.072-.146.072-.219.072h-.073c-.146 0-.146.073-.219.073l-.073.219v.219l.146.437.365.073.874.219c.656.291 1.166.437 1.822.728l1.094.583.583.292h.146c.072 0 .291.073.291.073h.219c.146 0 .146-.073.218-.073.365-.292.656-.437.948-.729.437-.51 1.02-1.02 1.385-1.603.364-.438.583-.948.801-1.385.146-.365.365-.948.438-1.385.146-.364.218-.729.218-1.093v-14.504c-.072-.073-.072-.219-.072-.292-.073-.146-.073-.146-.073-.219-.073-.072-.219-.218-.292-.437-.291-.364-.583-.583-.947-.802-.019 0-.041-.004-.066-.011l-.16-.05-.066-.012c-.146-.072-.219-.072-.219-.072h-.072c-.073-.073-.219-.073-.292-.073z" transform="matrix(1.44355 0 0 1.7418 337.095 155.221)"/></g></g></svg>