<svg viewBox="0 0 799 460" xmlns="http://www.w3.org/2000/svg"><path d="m5 10c2.76142375 0 5-2.23857625 5-5s-2.23857625-5-5-5-5 2.23857625-5 5 2.23857625 5 5 5zm36 0c2.7614237 0 5-2.23857625 5-5s-2.2385763-5-5-5-5 2.23857625-5 5 2.2385763 5 5 5zm36 0c2.7614237 0 5-2.23857625 5-5s-2.2385763-5-5-5-5 2.23857625-5 5 2.2385763 5 5 5zm-54 0c2.7614237 0 5-2.23857625 5-5s-2.2385763-5-5-5-5 2.23857625-5 5 2.2385763 5 5 5zm36 0c2.7614237 0 5-2.23857625 5-5s-2.2385763-5-5-5-5 2.23857625-5 5 2.2385763 5 5 5zm36 0c2.7614237 0 5-2.23857625 5-5s-2.2385763-5-5-5-5 2.23857625-5 5 2.2385763 5 5 5zm442 0c2.761424 0 5-2.23857625 5-5s-2.238576-5-5-5-5 2.23857625-5 5 2.238576 5 5 5zm36 0c2.761424 0 5-2.23857625 5-5s-2.238576-5-5-5-5 2.23857625-5 5 2.238576 5 5 5zm36 0c2.761424 0 5-2.23857625 5-5s-2.238576-5-5-5-5 2.23857625-5 5 2.238576 5 5 5zm-54 0c2.761424 0 5-2.23857625 5-5s-2.238576-5-5-5-5 2.23857625-5 5 2.238576 5 5 5zm36 0c2.761424 0 5-2.23857625 5-5s-2.238576-5-5-5-5 2.23857625-5 5 2.238576 5 5 5zm36 0c2.761424 0 5-2.23857625 5-5s-2.238576-5-5-5-5 2.23857625-5 5 2.238576 5 5 5zm-90 18c2.761424 0 5-2.2385763 5-5s-2.238576-5-5-5-5 2.2385763-5 5 2.238576 5 5 5zm36 0c2.761424 0 5-2.2385763 5-5s-2.238576-5-5-5-5 2.2385763-5 5 2.238576 5 5 5zm36 0c2.761424 0 5-2.2385763 5-5s-2.238576-5-5-5-5 2.2385763-5 5 2.238576 5 5 5zm-54 0c2.761424 0 5-2.2385763 5-5s-2.238576-5-5-5-5 2.2385763-5 5 2.238576 5 5 5zm36 0c2.761424 0 5-2.2385763 5-5s-2.238576-5-5-5-5 2.2385763-5 5 2.238576 5 5 5zm36 0c2.761424 0 5-2.2385763 5-5s-2.238576-5-5-5-5 2.2385763-5 5 2.238576 5 5 5zm-90 18c2.761424 0 5-2.2385763 5-5s-2.238576-5-5-5-5 2.2385763-5 5 2.238576 5 5 5zm-18 0c2.761424 0 5-2.2385763 5-5s-2.238576-5-5-5-5 2.2385763-5 5 2.238576 5 5 5zm54 0c2.761424 0 5-2.2385763 5-5s-2.238576-5-5-5-5 2.2385763-5 5 2.238576 5 5 5zm36 0c2.761424 0 5-2.2385763 5-5s-2.238576-5-5-5-5 2.2385763-5 5 2.238576 5 5 5zm-54 0c2.761424 0 5-2.2385763 5-5s-2.238576-5-5-5-5 2.2385763-5 5 2.238576 5 5 5zm36 0c2.761424 0 5-2.2385763 5-5s-2.238576-5-5-5-5 2.2385763-5 5 2.238576 5 5 5zm36 0c2.761424 0 5-2.2385763 5-5s-2.238576-5-5-5-5 2.2385763-5 5 2.238576 5 5 5zm-90 18c2.761424 0 5-2.2385763 5-5s-2.238576-5-5-5-5 2.2385763-5 5 2.238576 5 5 5zm-18 0c2.761424 0 5-2.2385763 5-5s-2.238576-5-5-5-5 2.2385763-5 5 2.238576 5 5 5zm54 0c2.761424 0 5-2.2385763 5-5s-2.238576-5-5-5-5 2.2385763-5 5 2.238576 5 5 5zm36 0c2.761424 0 5-2.2385763 5-5s-2.238576-5-5-5-5 2.2385763-5 5 2.238576 5 5 5zm-54 0c2.761424 0 5-2.2385763 5-5s-2.238576-5-5-5-5 2.2385763-5 5 2.238576 5 5 5zm36 0c2.761424 0 5-2.2385763 5-5s-2.238576-5-5-5-5 2.2385763-5 5 2.238576 5 5 5zm-54 18c2.761424 0 5-2.2385763 5-5s-2.238576-5-5-5-5 2.2385763-5 5 2.238576 5 5 5zm-18 0c2.761424 0 5-2.2385763 5-5s-2.238576-5-5-5-5 2.2385763-5 5 2.238576 5 5 5zm54 0c2.761424 0 5-2.2385763 5-5s-2.238576-5-5-5-5 2.2385763-5 5 2.238576 5 5 5zm36 0c2.761424 0 5-2.2385763 5-5s-2.238576-5-5-5-5 2.2385763-5 5 2.238576 5 5 5zm-54 0c2.761424 0 5-2.2385763 5-5s-2.238576-5-5-5-5 2.2385763-5 5 2.238576 5 5 5zm36 0c2.761424 0 5-2.2385763 5-5s-2.238576-5-5-5-5 2.2385763-5 5 2.238576 5 5 5zm-54 18c2.761424 0 5-2.2385763 5-5s-2.238576-5-5-5-5 2.2385763-5 5 2.238576 5 5 5zm-18 0c2.761424 0 5-2.2385763 5-5s-2.238576-5-5-5-5 2.2385763-5 5 2.238576 5 5 5zm54 0c2.761424 0 5-2.2385763 5-5s-2.238576-5-5-5-5 2.2385763-5 5 2.238576 5 5 5zm36 0c2.761424 0 5-2.2385763 5-5s-2.238576-5-5-5-5 2.2385763-5 5 2.238576 5 5 5zm-54 0c2.761424 0 5-2.2385763 5-5s-2.238576-5-5-5-5 2.2385763-5 5 2.238576 5 5 5zm36 0c2.761424 0 5-2.2385763 5-5s-2.238576-5-5-5-5 2.2385763-5 5 2.238576 5 5 5zm-586-72c2.76142375 0 5-2.2385763 5-5s-2.23857625-5-5-5-5 2.2385763-5 5 2.23857625 5 5 5zm36 0c2.7614237 0 5-2.2385763 5-5s-2.2385763-5-5-5-5 2.2385763-5 5 2.2385763 5 5 5zm36 0c2.7614237 0 5-2.2385763 5-5s-2.2385763-5-5-5-5 2.2385763-5 5 2.2385763 5 5 5zm-54 0c2.7614237 0 5-2.2385763 5-5s-2.2385763-5-5-5-5 2.2385763-5 5 2.2385763 5 5 5zm36 0c2.7614237 0 5-2.2385763 5-5s-2.2385763-5-5-5-5 2.2385763-5 5 2.2385763 5 5 5zm36 0c2.7614237 0 5-2.2385763 5-5s-2.2385763-5-5-5-5 2.2385763-5 5 2.2385763 5 5 5zm-90 18c2.76142375 0 5-2.2385763 5-5s-2.23857625-5-5-5-5 2.2385763-5 5 2.23857625 5 5 5zm36 0c2.7614237 0 5-2.2385763 5-5s-2.2385763-5-5-5-5 2.2385763-5 5 2.2385763 5 5 5zm36 0c2.7614237 0 5-2.2385763 5-5s-2.2385763-5-5-5-5 2.2385763-5 5 2.2385763 5 5 5zm-54 0c2.7614237 0 5-2.2385763 5-5s-2.2385763-5-5-5-5 2.2385763-5 5 2.2385763 5 5 5zm36 0c2.7614237 0 5-2.2385763 5-5s-2.2385763-5-5-5-5 2.2385763-5 5 2.2385763 5 5 5zm36 0c2.7614237 0 5-2.2385763 5-5s-2.2385763-5-5-5-5 2.2385763-5 5 2.2385763 5 5 5zm18 0c2.761424 0 5-2.2385763 5-5s-2.238576-5-5-5-5 2.2385763-5 5 2.238576 5 5 5zm-72 72c2.7614237 0 5-2.238576 5-5s-2.2385763-5-5-5-5 2.238576-5 5 2.2385763 5 5 5zm36 0c2.7614237 0 5-2.238576 5-5s-2.2385763-5-5-5-5 2.238576-5 5 2.2385763 5 5 5zm-18 0c2.7614237 0 5-2.238576 5-5s-2.2385763-5-5-5-5 2.238576-5 5 2.2385763 5 5 5zm36 0c2.7614237 0 5-2.238576 5-5s-2.2385763-5-5-5-5 2.238576-5 5 2.2385763 5 5 5zm18 0c2.761424 0 5-2.238576 5-5s-2.238576-5-5-5-5 2.238576-5 5 2.238576 5 5 5zm18 0c2.761424 0 5-2.238576 5-5s-2.238576-5-5-5-5 2.238576-5 5 2.238576 5 5 5zm-90 18c2.7614237 0 5-2.238576 5-5s-2.2385763-5-5-5-5 2.238576-5 5 2.2385763 5 5 5zm36 0c2.7614237 0 5-2.238576 5-5s-2.2385763-5-5-5-5 2.238576-5 5 2.2385763 5 5 5zm-18 0c2.7614237 0 5-2.238576 5-5s-2.2385763-5-5-5-5 2.238576-5 5 2.2385763 5 5 5zm36 0c2.7614237 0 5-2.238576 5-5s-2.2385763-5-5-5-5 2.238576-5 5 2.2385763 5 5 5zm18 0c2.761424 0 5-2.238576 5-5s-2.238576-5-5-5-5 2.238576-5 5 2.238576 5 5 5zm18 0c2.761424 0 5-2.238576 5-5s-2.238576-5-5-5-5 2.238576-5 5 2.238576 5 5 5zm-90 18c2.7614237 0 5-2.238576 5-5s-2.2385763-5-5-5-5 2.238576-5 5 2.2385763 5 5 5zm36 0c2.7614237 0 5-2.238576 5-5s-2.2385763-5-5-5-5 2.238576-5 5 2.2385763 5 5 5zm-18 0c2.7614237 0 5-2.238576 5-5s-2.2385763-5-5-5-5 2.238576-5 5 2.2385763 5 5 5zm36 0c2.7614237 0 5-2.238576 5-5s-2.2385763-5-5-5-5 2.238576-5 5 2.2385763 5 5 5zm18 0c2.761424 0 5-2.238576 5-5s-2.238576-5-5-5-5 2.238576-5 5 2.238576 5 5 5zm18 0c2.761424 0 5-2.238576 5-5s-2.238576-5-5-5-5 2.238576-5 5 2.238576 5 5 5zm-54 18c2.7614237 0 5-2.238576 5-5s-2.2385763-5-5-5-5 2.238576-5 5 2.2385763 5 5 5zm-18 0c2.7614237 0 5-2.238576 5-5s-2.2385763-5-5-5-5 2.238576-5 5 2.2385763 5 5 5zm36 0c2.7614237 0 5-2.238576 5-5s-2.2385763-5-5-5-5 2.238576-5 5 2.2385763 5 5 5zm18 0c2.761424 0 5-2.238576 5-5s-2.238576-5-5-5-5 2.238576-5 5 2.238576 5 5 5zm18 0c2.761424 0 5-2.238576 5-5s-2.238576-5-5-5-5 2.238576-5 5 2.238576 5 5 5zm112 0c2.761424 0 5-2.238576 5-5s-2.238576-5-5-5-5 2.238576-5 5 2.238576 5 5 5zm18 0c2.761424 0 5-2.238576 5-5s-2.238576-5-5-5-5 2.238576-5 5 2.238576 5 5 5zm18 0c2.761424 0 5-2.238576 5-5s-2.238576-5-5-5-5 2.238576-5 5 2.238576 5 5 5zm18 0c2.761424 0 5-2.238576 5-5s-2.238576-5-5-5-5 2.238576-5 5 2.238576 5 5 5zm18 0c2.761424 0 5-2.238576 5-5s-2.238576-5-5-5-5 2.238576-5 5 2.238576 5 5 5zm18 0c2.761424 0 5-2.238576 5-5s-2.238576-5-5-5-5 2.238576-5 5 2.238576 5 5 5zm18 0c2.761424 0 5-2.238576 5-5s-2.238576-5-5-5-5 2.238576-5 5 2.238576 5 5 5zm18 0c2.761424 0 5-2.238576 5-5s-2.238576-5-5-5-5 2.238576-5 5 2.238576 5 5 5zm18 0c2.761424 0 5-2.238576 5-5s-2.238576-5-5-5-5 2.238576-5 5 2.238576 5 5 5zm-144-18c2.761424 0 5-2.238576 5-5s-2.238576-5-5-5-5 2.238576-5 5 2.238576 5 5 5zm18 0c2.761424 0 5-2.238576 5-5s-2.238576-5-5-5-5 2.238576-5 5 2.238576 5 5 5zm18 0c2.761424 0 5-2.238576 5-5s-2.238576-5-5-5-5 2.238576-5 5 2.238576 5 5 5zm18 0c2.761424 0 5-2.238576 5-5s-2.238576-5-5-5-5 2.238576-5 5 2.238576 5 5 5zm18 0c2.761424 0 5-2.238576 5-5s-2.238576-5-5-5-5 2.238576-5 5 2.238576 5 5 5zm18 0c2.761424 0 5-2.238576 5-5s-2.238576-5-5-5-5 2.238576-5 5 2.238576 5 5 5zm18 0c2.761424 0 5-2.238576 5-5s-2.238576-5-5-5-5 2.238576-5 5 2.238576 5 5 5zm18 0c2.761424 0 5-2.238576 5-5s-2.238576-5-5-5-5 2.238576-5 5 2.238576 5 5 5zm18 0c2.761424 0 5-2.238576 5-5s-2.238576-5-5-5-5 2.238576-5 5 2.238576 5 5 5zm-144-18c2.761424 0 5-2.238576 5-5s-2.238576-5-5-5-5 2.238576-5 5 2.238576 5 5 5zm18 0c2.761424 0 5-2.238576 5-5s-2.238576-5-5-5-5 2.238576-5 5 2.238576 5 5 5zm18 0c2.761424 0 5-2.238576 5-5s-2.238576-5-5-5-5 2.238576-5 5 2.238576 5 5 5zm18 0c2.761424 0 5-2.238576 5-5s-2.238576-5-5-5-5 2.238576-5 5 2.238576 5 5 5zm18 0c2.761424 0 5-2.238576 5-5s-2.238576-5-5-5-5 2.238576-5 5 2.238576 5 5 5zm18 0c2.761424 0 5-2.238576 5-5s-2.238576-5-5-5-5 2.238576-5 5 2.238576 5 5 5zm18 0c2.761424 0 5-2.238576 5-5s-2.238576-5-5-5-5 2.238576-5 5 2.238576 5 5 5zm18 0c2.761424 0 5-2.238576 5-5s-2.238576-5-5-5-5 2.238576-5 5 2.238576 5 5 5zm18 0c2.761424 0 5-2.238576 5-5s-2.238576-5-5-5-5 2.238576-5 5 2.238576 5 5 5zm-144-18c2.761424 0 5-2.238576 5-5s-2.238576-5-5-5-5 2.238576-5 5 2.238576 5 5 5zm18 0c2.761424 0 5-2.238576 5-5s-2.238576-5-5-5-5 2.238576-5 5 2.238576 5 5 5zm18 0c2.761424 0 5-2.238576 5-5s-2.238576-5-5-5-5 2.238576-5 5 2.238576 5 5 5zm18 0c2.761424 0 5-2.238576 5-5s-2.238576-5-5-5-5 2.238576-5 5 2.238576 5 5 5zm18 0c2.761424 0 5-2.238576 5-5s-2.238576-5-5-5-5 2.238576-5 5 2.238576 5 5 5zm18 0c2.761424 0 5-2.238576 5-5s-2.238576-5-5-5-5 2.238576-5 5 2.238576 5 5 5zm18 0c2.761424 0 5-2.238576 5-5s-2.238576-5-5-5-5 2.238576-5 5 2.238576 5 5 5zm18 0c2.761424 0 5-2.238576 5-5s-2.238576-5-5-5-5 2.238576-5 5 2.238576 5 5 5zm18 0c2.761424 0 5-2.238576 5-5s-2.238576-5-5-5-5 2.238576-5 5 2.238576 5 5 5zm-125-18c2.761424 0 5-2.2385763 5-5s-2.238576-5-5-5-5 2.2385763-5 5 2.238576 5 5 5zm18 0c2.761424 0 5-2.2385763 5-5s-2.238576-5-5-5-5 2.2385763-5 5 2.238576 5 5 5zm18 0c2.761424 0 5-2.2385763 5-5s-2.238576-5-5-5-5 2.2385763-5 5 2.238576 5 5 5zm18 0c2.761424 0 5-2.2385763 5-5s-2.238576-5-5-5-5 2.2385763-5 5 2.238576 5 5 5zm18 0c2.761424 0 5-2.2385763 5-5s-2.238576-5-5-5-5 2.2385763-5 5 2.238576 5 5 5zm18 0c2.761424 0 5-2.2385763 5-5s-2.238576-5-5-5-5 2.2385763-5 5 2.238576 5 5 5zm18 0c2.761424 0 5-2.2385763 5-5s-2.238576-5-5-5-5 2.2385763-5 5 2.238576 5 5 5zm-109-18c2.761424 0 5-2.2385763 5-5s-2.238576-5-5-5-5 2.2385763-5 5 2.238576 5 5 5zm18 0c2.761424 0 5-2.2385763 5-5s-2.238576-5-5-5-5 2.2385763-5 5 2.238576 5 5 5zm18 0c2.761424 0 5-2.2385763 5-5s-2.238576-5-5-5-5 2.2385763-5 5 2.238576 5 5 5zm18 0c2.761424 0 5-2.2385763 5-5s-2.238576-5-5-5-5 2.2385763-5 5 2.238576 5 5 5zm18 0c2.761424 0 5-2.2385763 5-5s-2.238576-5-5-5-5 2.2385763-5 5 2.238576 5 5 5zm18 0c2.761424 0 5-2.2385763 5-5s-2.238576-5-5-5-5 2.2385763-5 5 2.238576 5 5 5zm18 0c2.761424 0 5-2.2385763 5-5s-2.238576-5-5-5-5 2.2385763-5 5 2.238576 5 5 5zm-108-18c2.761424 0 5-2.2385763 5-5s-2.238576-5-5-5-5 2.2385763-5 5 2.238576 5 5 5zm18 0c2.761424 0 5-2.2385763 5-5s-2.238576-5-5-5-5 2.2385763-5 5 2.238576 5 5 5zm18 0c2.761424 0 5-2.2385763 5-5s-2.238576-5-5-5-5 2.2385763-5 5 2.238576 5 5 5zm18 0c2.761424 0 5-2.2385763 5-5s-2.238576-5-5-5-5 2.2385763-5 5 2.238576 5 5 5zm18 0c2.761424 0 5-2.2385763 5-5s-2.238576-5-5-5-5 2.2385763-5 5 2.238576 5 5 5zm18 0c2.761424 0 5-2.2385763 5-5s-2.238576-5-5-5-5 2.2385763-5 5 2.238576 5 5 5zm18 0c2.761424 0 5-2.2385763 5-5s-2.238576-5-5-5-5 2.2385763-5 5 2.238576 5 5 5zm-108-18c2.761424 0 5-2.2385763 5-5s-2.238576-5-5-5-5 2.2385763-5 5 2.238576 5 5 5zm18 0c2.761424 0 5-2.2385763 5-5s-2.238576-5-5-5-5 2.2385763-5 5 2.238576 5 5 5zm18 0c2.761424 0 5-2.2385763 5-5s-2.238576-5-5-5-5 2.2385763-5 5 2.238576 5 5 5zm18 0c2.761424 0 5-2.2385763 5-5s-2.238576-5-5-5-5 2.2385763-5 5 2.238576 5 5 5zm18 0c2.761424 0 5-2.2385763 5-5s-2.238576-5-5-5-5 2.2385763-5 5 2.238576 5 5 5zm18 0c2.761424 0 5-2.2385763 5-5s-2.238576-5-5-5-5 2.2385763-5 5 2.238576 5 5 5zm18 0c2.761424 0 5-2.2385763 5-5s-2.238576-5-5-5-5 2.2385763-5 5 2.238576 5 5 5zm-108-18c2.761424 0 5-2.2385763 5-5s-2.238576-5-5-5-5 2.2385763-5 5 2.238576 5 5 5zm18 0c2.761424 0 5-2.2385763 5-5s-2.238576-5-5-5-5 2.2385763-5 5 2.238576 5 5 5zm18 0c2.761424 0 5-2.2385763 5-5s-2.238576-5-5-5-5 2.2385763-5 5 2.238576 5 5 5zm18 0c2.761424 0 5-2.2385763 5-5s-2.238576-5-5-5-5 2.2385763-5 5 2.238576 5 5 5zm18 0c2.761424 0 5-2.2385763 5-5s-2.238576-5-5-5-5 2.2385763-5 5 2.238576 5 5 5zm18 0c2.761424 0 5-2.2385763 5-5s-2.238576-5-5-5-5 2.2385763-5 5 2.238576 5 5 5zm18 0c2.761424 0 5-2.2385763 5-5s-2.238576-5-5-5-5 2.2385763-5 5 2.238576 5 5 5zm-87-18c2.761424 0 5-2.23857625 5-5s-2.238576-5-5-5-5 2.23857625-5 5 2.238576 5 5 5zm18 0c2.761424 0 5-2.23857625 5-5s-2.238576-5-5-5-5 2.23857625-5 5 2.238576 5 5 5zm18 0c2.761424 0 5-2.23857625 5-5s-2.238576-5-5-5-5 2.23857625-5 5 2.238576 5 5 5zm18 0c2.761424 0 5-2.23857625 5-5s-2.238576-5-5-5-5 2.23857625-5 5 2.238576 5 5 5zm18 0c2.761424 0 5-2.23857625 5-5s-2.238576-5-5-5-5 2.23857625-5 5 2.238576 5 5 5zm-277 180c2.7614237 0 5-2.238576 5-5s-2.2385763-5-5-5-5 2.238576-5 5 2.2385763 5 5 5zm-18 0c2.7614237 0 5-2.238576 5-5s-2.2385763-5-5-5-5 2.238576-5 5 2.2385763 5 5 5zm36 0c2.7614237 0 5-2.238576 5-5s-2.2385763-5-5-5-5 2.238576-5 5 2.2385763 5 5 5zm18 0c2.761424 0 5-2.238576 5-5s-2.238576-5-5-5-5 2.238576-5 5 2.238576 5 5 5zm18 0c2.761424 0 5-2.238576 5-5s-2.238576-5-5-5-5 2.238576-5 5 2.238576 5 5 5zm21 0c2.761424 0 5-2.238576 5-5s-2.238576-5-5-5-5 2.238576-5 5 2.238576 5 5 5zm-75 18c2.7614237 0 5-2.238576 5-5s-2.2385763-5-5-5-5 2.238576-5 5 2.2385763 5 5 5zm-18 0c2.7614237 0 5-2.238576 5-5s-2.2385763-5-5-5-5 2.238576-5 5 2.2385763 5 5 5zm36 0c2.7614237 0 5-2.238576 5-5s-2.2385763-5-5-5-5 2.238576-5 5 2.2385763 5 5 5zm18 0c2.761424 0 5-2.238576 5-5s-2.238576-5-5-5-5 2.238576-5 5 2.238576 5 5 5zm18 0c2.761424 0 5-2.238576 5-5s-2.238576-5-5-5-5 2.238576-5 5 2.238576 5 5 5zm21 0c2.761424 0 5-2.238576 5-5s-2.238576-5-5-5-5 2.238576-5 5 2.238576 5 5 5zm-75 18c2.7614237 0 5-2.238576 5-5s-2.2385763-5-5-5-5 2.238576-5 5 2.2385763 5 5 5zm-18 0c2.7614237 0 5-2.238576 5-5s-2.2385763-5-5-5-5 2.238576-5 5 2.2385763 5 5 5zm36 0c2.7614237 0 5-2.238576 5-5s-2.2385763-5-5-5-5 2.238576-5 5 2.2385763 5 5 5zm18 0c2.761424 0 5-2.238576 5-5s-2.238576-5-5-5-5 2.238576-5 5 2.238576 5 5 5zm18 0c2.761424 0 5-2.238576 5-5s-2.238576-5-5-5-5 2.238576-5 5 2.238576 5 5 5zm21 0c2.761424 0 5-2.238576 5-5s-2.238576-5-5-5-5 2.238576-5 5 2.238576 5 5 5zm-75 18c2.7614237 0 5-2.238576 5-5s-2.2385763-5-5-5-5 2.238576-5 5 2.2385763 5 5 5zm18 0c2.7614237 0 5-2.238576 5-5s-2.2385763-5-5-5-5 2.238576-5 5 2.2385763 5 5 5zm18 0c2.761424 0 5-2.238576 5-5s-2.238576-5-5-5-5 2.238576-5 5 2.238576 5 5 5zm18 0c2.761424 0 5-2.238576 5-5s-2.238576-5-5-5-5 2.238576-5 5 2.238576 5 5 5zm21 0c2.761424 0 5-2.238576 5-5s-2.238576-5-5-5-5 2.238576-5 5 2.238576 5 5 5zm-75 18c2.7614237 0 5-2.238576 5-5s-2.2385763-5-5-5-5 2.238576-5 5 2.2385763 5 5 5zm18 0c2.7614237 0 5-2.238576 5-5s-2.2385763-5-5-5-5 2.238576-5 5 2.2385763 5 5 5zm18 0c2.761424 0 5-2.238576 5-5s-2.238576-5-5-5-5 2.238576-5 5 2.238576 5 5 5zm18 0c2.761424 0 5-2.238576 5-5s-2.238576-5-5-5-5 2.238576-5 5 2.238576 5 5 5zm21 0c2.761424 0 5-2.238576 5-5s-2.238576-5-5-5-5 2.238576-5 5 2.238576 5 5 5zm18 0c2.761424 0 5-2.238576 5-5s-2.238576-5-5-5-5 2.238576-5 5 2.238576 5 5 5zm-93 18c2.7614237 0 5-2.238576 5-5s-2.2385763-5-5-5-5 2.238576-5 5 2.2385763 5 5 5zm18 0c2.7614237 0 5-2.238576 5-5s-2.2385763-5-5-5-5 2.238576-5 5 2.2385763 5 5 5zm18 0c2.761424 0 5-2.238576 5-5s-2.238576-5-5-5-5 2.238576-5 5 2.238576 5 5 5zm18 0c2.761424 0 5-2.238576 5-5s-2.238576-5-5-5-5 2.238576-5 5 2.238576 5 5 5zm21 0c2.761424 0 5-2.238576 5-5s-2.238576-5-5-5-5 2.238576-5 5 2.238576 5 5 5zm18 0c2.761424 0 5-2.238576 5-5s-2.238576-5-5-5-5 2.238576-5 5 2.238576 5 5 5zm37 0c2.761424 0 5-2.238576 5-5s-2.238576-5-5-5-5 2.238576-5 5 2.238576 5 5 5zm18 0c2.761424 0 5-2.238576 5-5s-2.238576-5-5-5-5 2.238576-5 5 2.238576 5 5 5zm18 0c2.761424 0 5-2.238576 5-5s-2.238576-5-5-5-5 2.238576-5 5 2.238576 5 5 5zm21 0c2.761424 0 5-2.238576 5-5s-2.238576-5-5-5-5 2.238576-5 5 2.238576 5 5 5zm18 0c2.761424 0 5-2.238576 5-5s-2.238576-5-5-5-5 2.238576-5 5 2.238576 5 5 5zm-75-18c2.761424 0 5-2.238576 5-5s-2.238576-5-5-5-5 2.238576-5 5 2.238576 5 5 5zm18 0c2.761424 0 5-2.238576 5-5s-2.238576-5-5-5-5 2.238576-5 5 2.238576 5 5 5zm18 0c2.761424 0 5-2.238576 5-5s-2.238576-5-5-5-5 2.238576-5 5 2.238576 5 5 5zm21 0c2.761424 0 5-2.238576 5-5s-2.238576-5-5-5-5 2.238576-5 5 2.238576 5 5 5zm18 0c2.761424 0 5-2.238576 5-5s-2.238576-5-5-5-5 2.238576-5 5 2.238576 5 5 5zm-57-36c2.761424 0 5-2.238576 5-5s-2.238576-5-5-5-5 2.238576-5 5 2.238576 5 5 5zm18 0c2.761424 0 5-2.238576 5-5s-2.238576-5-5-5-5 2.238576-5 5 2.238576 5 5 5zm18 0c2.761424 0 5-2.238576 5-5s-2.238576-5-5-5-5 2.238576-5 5 2.238576 5 5 5zm21 0c2.761424 0 5-2.238576 5-5s-2.238576-5-5-5-5 2.238576-5 5 2.238576 5 5 5zm18 0c2.761424 0 5-2.238576 5-5s-2.238576-5-5-5-5 2.238576-5 5 2.238576 5 5 5zm36 0c2.761424 0 5-2.238576 5-5s-2.238576-5-5-5-5 2.238576-5 5 2.238576 5 5 5zm18 0c2.761424 0 5-2.238576 5-5s-2.238576-5-5-5-5 2.238576-5 5 2.238576 5 5 5zm18 0c2.761424 0 5-2.238576 5-5s-2.238576-5-5-5-5 2.238576-5 5 2.238576 5 5 5zm21 0c2.761424 0 5-2.238576 5-5s-2.238576-5-5-5-5 2.238576-5 5 2.238576 5 5 5zm18 0c2.761424 0 5-2.238576 5-5s-2.238576-5-5-5-5 2.238576-5 5 2.238576 5 5 5zm-57 36c2.761424 0 5-2.238576 5-5s-2.238576-5-5-5-5 2.238576-5 5 2.238576 5 5 5zm18 0c2.761424 0 5-2.238576 5-5s-2.238576-5-5-5-5 2.238576-5 5 2.238576 5 5 5zm18 0c2.761424 0 5-2.238576 5-5s-2.238576-5-5-5-5 2.238576-5 5 2.238576 5 5 5zm21 0c2.761424 0 5-2.238576 5-5s-2.238576-5-5-5-5 2.238576-5 5 2.238576 5 5 5zm18 0c2.761424 0 5-2.238576 5-5s-2.238576-5-5-5-5 2.238576-5 5 2.238576 5 5 5zm-75 18c2.761424 0 5-2.238576 5-5s-2.238576-5-5-5-5 2.238576-5 5 2.238576 5 5 5zm18 0c2.761424 0 5-2.238576 5-5s-2.238576-5-5-5-5 2.238576-5 5 2.238576 5 5 5zm18 0c2.761424 0 5-2.238576 5-5s-2.238576-5-5-5-5 2.238576-5 5 2.238576 5 5 5zm21 0c2.761424 0 5-2.238576 5-5s-2.238576-5-5-5-5 2.238576-5 5 2.238576 5 5 5zm18 0c2.761424 0 5-2.238576 5-5s-2.238576-5-5-5-5 2.238576-5 5 2.238576 5 5 5zm-75 18c2.761424 0 5-2.238576 5-5s-2.238576-5-5-5-5 2.238576-5 5 2.238576 5 5 5zm18 0c2.761424 0 5-2.238576 5-5s-2.238576-5-5-5-5 2.238576-5 5 2.238576 5 5 5zm18 0c2.761424 0 5-2.238576 5-5s-2.238576-5-5-5-5 2.238576-5 5 2.238576 5 5 5zm21 0c2.761424 0 5-2.238576 5-5s-2.238576-5-5-5-5 2.238576-5 5 2.238576 5 5 5zm18 0c2.761424 0 5-2.238576 5-5s-2.238576-5-5-5-5 2.238576-5 5 2.238576 5 5 5zm33 0c2.761424 0 5-2.238576 5-5s-2.238576-5-5-5-5 2.238576-5 5 2.238576 5 5 5zm18 0c2.761424 0 5-2.238576 5-5s-2.238576-5-5-5-5 2.238576-5 5 2.238576 5 5 5zm18 0c2.761424 0 5-2.238576 5-5s-2.238576-5-5-5-5 2.238576-5 5 2.238576 5 5 5zm21 0c2.761424 0 5-2.238576 5-5s-2.238576-5-5-5-5 2.238576-5 5 2.238576 5 5 5zm18 0c2.761424 0 5-2.238576 5-5s-2.238576-5-5-5-5 2.238576-5 5 2.238576 5 5 5zm-75-18c2.761424 0 5-2.238576 5-5s-2.238576-5-5-5-5 2.238576-5 5 2.238576 5 5 5zm18 0c2.761424 0 5-2.238576 5-5s-2.238576-5-5-5-5 2.238576-5 5 2.238576 5 5 5zm18 0c2.761424 0 5-2.238576 5-5s-2.238576-5-5-5-5 2.238576-5 5 2.238576 5 5 5zm21 0c2.761424 0 5-2.238576 5-5s-2.238576-5-5-5-5 2.238576-5 5 2.238576 5 5 5zm18 0c2.761424 0 5-2.238576 5-5s-2.238576-5-5-5-5 2.238576-5 5 2.238576 5 5 5zm21 0c2.761424 0 5-2.238576 5-5s-2.238576-5-5-5-5 2.238576-5 5 2.238576 5 5 5zm-96-18c2.761424 0 5-2.238576 5-5s-2.238576-5-5-5-5 2.238576-5 5 2.238576 5 5 5zm18 0c2.761424 0 5-2.238576 5-5s-2.238576-5-5-5-5 2.238576-5 5 2.238576 5 5 5zm18 0c2.761424 0 5-2.238576 5-5s-2.238576-5-5-5-5 2.238576-5 5 2.238576 5 5 5zm21 0c2.761424 0 5-2.238576 5-5s-2.238576-5-5-5-5 2.238576-5 5 2.238576 5 5 5zm18 0c2.761424 0 5-2.238576 5-5s-2.238576-5-5-5-5 2.238576-5 5 2.238576 5 5 5zm21 0c2.761424 0 5-2.238576 5-5s-2.238576-5-5-5-5 2.238576-5 5 2.238576 5 5 5zm-78-18c2.761424 0 5-2.238576 5-5s-2.238576-5-5-5-5 2.238576-5 5 2.238576 5 5 5zm18 0c2.761424 0 5-2.238576 5-5s-2.238576-5-5-5-5 2.238576-5 5 2.238576 5 5 5zm21 0c2.761424 0 5-2.238576 5-5s-2.238576-5-5-5-5 2.238576-5 5 2.238576 5 5 5zm18 0c2.761424 0 5-2.238576 5-5s-2.238576-5-5-5-5 2.238576-5 5 2.238576 5 5 5zm21 0c2.761424 0 5-2.238576 5-5s-2.238576-5-5-5-5 2.238576-5 5 2.238576 5 5 5zm-78-18c2.761424 0 5-2.238576 5-5s-2.238576-5-5-5-5 2.238576-5 5 2.238576 5 5 5zm18 0c2.761424 0 5-2.238576 5-5s-2.238576-5-5-5-5 2.238576-5 5 2.238576 5 5 5zm21 0c2.761424 0 5-2.238576 5-5s-2.238576-5-5-5-5 2.238576-5 5 2.238576 5 5 5zm18 0c2.761424 0 5-2.238576 5-5s-2.238576-5-5-5-5 2.238576-5 5 2.238576 5 5 5zm21 0c2.761424 0 5-2.238576 5-5s-2.238576-5-5-5-5 2.238576-5 5 2.238576 5 5 5zm-78-18c2.761424 0 5-2.238576 5-5s-2.238576-5-5-5-5 2.238576-5 5 2.238576 5 5 5zm18 0c2.761424 0 5-2.238576 5-5s-2.238576-5-5-5-5 2.238576-5 5 2.238576 5 5 5zm21 0c2.761424 0 5-2.238576 5-5s-2.238576-5-5-5-5 2.238576-5 5 2.238576 5 5 5zm18 0c2.761424 0 5-2.238576 5-5s-2.238576-5-5-5-5 2.238576-5 5 2.238576 5 5 5zm21 0c2.761424 0 5-2.238576 5-5s-2.238576-5-5-5-5 2.238576-5 5 2.238576 5 5 5zm18 0c2.761424 0 5-2.238576 5-5s-2.238576-5-5-5-5 2.238576-5 5 2.238576 5 5 5zm-96-18c2.761424 0 5-2.238576 5-5s-2.238576-5-5-5-5 2.238576-5 5 2.238576 5 5 5zm18 0c2.761424 0 5-2.238576 5-5s-2.238576-5-5-5-5 2.238576-5 5 2.238576 5 5 5zm21 0c2.761424 0 5-2.238576 5-5s-2.238576-5-5-5-5 2.238576-5 5 2.238576 5 5 5zm18 0c2.761424 0 5-2.238576 5-5s-2.238576-5-5-5-5 2.238576-5 5 2.238576 5 5 5zm21 0c2.761424 0 5-2.238576 5-5s-2.238576-5-5-5-5 2.238576-5 5 2.238576 5 5 5zm18 0c2.761424 0 5-2.238576 5-5s-2.238576-5-5-5-5 2.238576-5 5 2.238576 5 5 5zm-78-18c2.761424 0 5-2.238576 5-5s-2.238576-5-5-5-5 2.238576-5 5 2.238576 5 5 5zm21 0c2.761424 0 5-2.238576 5-5s-2.238576-5-5-5-5 2.238576-5 5 2.238576 5 5 5zm18 0c2.761424 0 5-2.238576 5-5s-2.238576-5-5-5-5 2.238576-5 5 2.238576 5 5 5zm21 0c2.761424 0 5-2.238576 5-5s-2.238576-5-5-5-5 2.238576-5 5 2.238576 5 5 5zm18 0c2.761424 0 5-2.238576 5-5s-2.238576-5-5-5-5 2.238576-5 5 2.238576 5 5 5zm-78-18c2.761424 0 5-2.238576 5-5s-2.238576-5-5-5-5 2.238576-5 5 2.238576 5 5 5zm21 0c2.761424 0 5-2.238576 5-5s-2.238576-5-5-5-5 2.238576-5 5 2.238576 5 5 5zm18 0c2.761424 0 5-2.238576 5-5s-2.238576-5-5-5-5 2.238576-5 5 2.238576 5 5 5zm21 0c2.761424 0 5-2.238576 5-5s-2.238576-5-5-5-5 2.238576-5 5 2.238576 5 5 5zm18 0c2.761424 0 5-2.238576 5-5s-2.238576-5-5-5-5 2.238576-5 5 2.238576 5 5 5zm18 0c2.761424 0 5-2.238576 5-5s-2.238576-5-5-5-5 2.238576-5 5 2.238576 5 5 5zm-96-18c2.761424 0 5-2.238576 5-5s-2.238576-5-5-5-5 2.238576-5 5 2.238576 5 5 5zm21 0c2.761424 0 5-2.238576 5-5s-2.238576-5-5-5-5 2.238576-5 5 2.238576 5 5 5zm18 0c2.761424 0 5-2.238576 5-5s-2.238576-5-5-5-5 2.238576-5 5 2.238576 5 5 5zm21 0c2.761424 0 5-2.238576 5-5s-2.238576-5-5-5-5 2.238576-5 5 2.238576 5 5 5zm18 0c2.761424 0 5-2.238576 5-5s-2.238576-5-5-5-5 2.238576-5 5 2.238576 5 5 5zm18 0c2.761424 0 5-2.238576 5-5s-2.238576-5-5-5-5 2.238576-5 5 2.238576 5 5 5zm-96-18c2.761424 0 5-2.238576 5-5s-2.238576-5-5-5-5 2.238576-5 5 2.238576 5 5 5zm21 0c2.761424 0 5-2.238576 5-5s-2.238576-5-5-5-5 2.238576-5 5 2.238576 5 5 5zm18 0c2.761424 0 5-2.238576 5-5s-2.238576-5-5-5-5 2.238576-5 5 2.238576 5 5 5zm21 0c2.761424 0 5-2.238576 5-5s-2.238576-5-5-5-5 2.238576-5 5 2.238576 5 5 5zm18 0c2.761424 0 5-2.238576 5-5s-2.238576-5-5-5-5 2.238576-5 5 2.238576 5 5 5zm18 0c2.761424 0 5-2.238576 5-5s-2.238576-5-5-5-5 2.238576-5 5 2.238576 5 5 5zm-369 90c2.761424 0 5-2.238576 5-5s-2.238576-5-5-5-5 2.238576-5 5 2.238576 5 5 5zm18 0c2.761424 0 5-2.238576 5-5s-2.238576-5-5-5-5 2.238576-5 5 2.238576 5 5 5zm18 0c2.761424 0 5-2.238576 5-5s-2.238576-5-5-5-5 2.238576-5 5 2.238576 5 5 5zm21 0c2.761424 0 5-2.238576 5-5s-2.238576-5-5-5-5 2.238576-5 5 2.238576 5 5 5zm18 0c2.761424 0 5-2.238576 5-5s-2.238576-5-5-5-5 2.238576-5 5 2.238576 5 5 5zm36 0c2.761424 0 5-2.238576 5-5s-2.238576-5-5-5-5 2.238576-5 5 2.238576 5 5 5zm18 0c2.761424 0 5-2.238576 5-5s-2.238576-5-5-5-5 2.238576-5 5 2.238576 5 5 5zm18 0c2.761424 0 5-2.238576 5-5s-2.238576-5-5-5-5 2.238576-5 5 2.238576 5 5 5zm21 0c2.761424 0 5-2.238576 5-5s-2.238576-5-5-5-5 2.238576-5 5 2.238576 5 5 5zm18 0c2.761424 0 5-2.238576 5-5s-2.238576-5-5-5-5 2.238576-5 5 2.238576 5 5 5zm-186-18c2.761424 0 5-2.238576 5-5s-2.238576-5-5-5-5 2.238576-5 5 2.238576 5 5 5zm18 0c2.761424 0 5-2.238576 5-5s-2.238576-5-5-5-5 2.238576-5 5 2.238576 5 5 5zm18 0c2.761424 0 5-2.238576 5-5s-2.238576-5-5-5-5 2.238576-5 5 2.238576 5 5 5zm21 0c2.761424 0 5-2.238576 5-5s-2.238576-5-5-5-5 2.238576-5 5 2.238576 5 5 5zm18 0c2.761424 0 5-2.238576 5-5s-2.238576-5-5-5-5 2.238576-5 5 2.238576 5 5 5zm36 0c2.761424 0 5-2.238576 5-5s-2.238576-5-5-5-5 2.238576-5 5 2.238576 5 5 5zm18 0c2.761424 0 5-2.238576 5-5s-2.238576-5-5-5-5 2.238576-5 5 2.238576 5 5 5zm18 0c2.761424 0 5-2.238576 5-5s-2.238576-5-5-5-5 2.238576-5 5 2.238576 5 5 5zm21 0c2.761424 0 5-2.238576 5-5s-2.238576-5-5-5-5 2.238576-5 5 2.238576 5 5 5zm18 0c2.761424 0 5-2.238576 5-5s-2.238576-5-5-5-5 2.238576-5 5 2.238576 5 5 5zm-186 54c2.761424 0 5-2.238576 5-5s-2.238576-5-5-5-5 2.238576-5 5 2.238576 5 5 5zm18 0c2.761424 0 5-2.238576 5-5s-2.238576-5-5-5-5 2.238576-5 5 2.238576 5 5 5zm21 0c2.761424 0 5-2.238576 5-5s-2.238576-5-5-5-5 2.238576-5 5 2.238576 5 5 5zm18 0c2.761424 0 5-2.238576 5-5s-2.238576-5-5-5-5 2.238576-5 5 2.238576 5 5 5zm72 0c2.761424 0 5-2.238576 5-5s-2.238576-5-5-5-5 2.238576-5 5 2.238576 5 5 5zm18 0c2.761424 0 5-2.238576 5-5s-2.238576-5-5-5-5 2.238576-5 5 2.238576 5 5 5zm21 0c2.761424 0 5-2.238576 5-5s-2.238576-5-5-5-5 2.238576-5 5 2.238576 5 5 5zm18 0c2.761424 0 5-2.238576 5-5s-2.238576-5-5-5-5 2.238576-5 5 2.238576 5 5 5zm-316 54c2.7614237 0 5-2.238576 5-5s-2.2385763-5-5-5-5 2.238576-5 5 2.2385763 5 5 5zm18 0c2.761424 0 5-2.238576 5-5s-2.238576-5-5-5-5 2.238576-5 5 2.238576 5 5 5zm18 0c2.761424 0 5-2.238576 5-5s-2.238576-5-5-5-5 2.238576-5 5 2.238576 5 5 5zm21 0c2.761424 0 5-2.238576 5-5s-2.238576-5-5-5-5 2.238576-5 5 2.238576 5 5 5zm18 0c2.761424 0 5-2.238576 5-5s-2.238576-5-5-5-5 2.238576-5 5 2.238576 5 5 5zm37 0c2.761424 0 5-2.238576 5-5s-2.238576-5-5-5-5 2.238576-5 5 2.238576 5 5 5zm18 0c2.761424 0 5-2.238576 5-5s-2.238576-5-5-5-5 2.238576-5 5 2.238576 5 5 5zm18 0c2.761424 0 5-2.238576 5-5s-2.238576-5-5-5-5 2.238576-5 5 2.238576 5 5 5zm21 0c2.761424 0 5-2.238576 5-5s-2.238576-5-5-5-5 2.238576-5 5 2.238576 5 5 5zm18 0c2.761424 0 5-2.238576 5-5s-2.238576-5-5-5-5 2.238576-5 5 2.238576 5 5 5zm-187 18c2.7614237 0 5-2.238576 5-5s-2.2385763-5-5-5-5 2.238576-5 5 2.2385763 5 5 5zm18 0c2.761424 0 5-2.238576 5-5s-2.238576-5-5-5-5 2.238576-5 5 2.238576 5 5 5zm18 0c2.761424 0 5-2.238576 5-5s-2.238576-5-5-5-5 2.238576-5 5 2.238576 5 5 5zm18 0c2.761424 0 5-2.238576 5-5s-2.238576-5-5-5-5 2.238576-5 5 2.238576 5 5 5zm18 0c2.761424 0 5-2.238576 5-5s-2.238576-5-5-5-5 2.238576-5 5 2.238576 5 5 5zm18 0c2.761424 0 5-2.238576 5-5s-2.238576-5-5-5-5 2.238576-5 5 2.238576 5 5 5zm18 0c2.761424 0 5-2.238576 5-5s-2.238576-5-5-5-5 2.238576-5 5 2.238576 5 5 5zm18 0c2.761424 0 5-2.238576 5-5s-2.238576-5-5-5-5 2.238576-5 5 2.238576 5 5 5zm18 0c2.761424 0 5-2.238576 5-5s-2.238576-5-5-5-5 2.238576-5 5 2.238576 5 5 5zm18 0c2.761424 0 5-2.238576 5-5s-2.238576-5-5-5-5 2.238576-5 5 2.238576 5 5 5zm97 0c2.761424 0 5-2.238576 5-5s-2.238576-5-5-5-5 2.238576-5 5 2.238576 5 5 5zm18 0c2.761424 0 5-2.238576 5-5s-2.238576-5-5-5-5 2.238576-5 5 2.238576 5 5 5zm18 0c2.761424 0 5-2.238576 5-5s-2.238576-5-5-5-5 2.238576-5 5 2.238576 5 5 5zm18 0c2.761424 0 5-2.238576 5-5s-2.238576-5-5-5-5 2.238576-5 5 2.238576 5 5 5zm18 0c2.761424 0 5-2.238576 5-5s-2.238576-5-5-5-5 2.238576-5 5 2.238576 5 5 5zm18 0c2.761424 0 5-2.238576 5-5s-2.238576-5-5-5-5 2.238576-5 5 2.238576 5 5 5zm18 0c2.761424 0 5-2.238576 5-5s-2.238576-5-5-5-5 2.238576-5 5 2.238576 5 5 5zm18 0c2.761424 0 5-2.238576 5-5s-2.238576-5-5-5-5 2.238576-5 5 2.238576 5 5 5zm18 0c2.761424 0 5-2.238576 5-5s-2.238576-5-5-5-5 2.238576-5 5 2.238576 5 5 5zm18 0c2.761424 0 5-2.238576 5-5s-2.238576-5-5-5-5 2.238576-5 5 2.238576 5 5 5zm-421 18c2.7614237 0 5-2.238576 5-5s-2.2385763-5-5-5-5 2.238576-5 5 2.2385763 5 5 5zm18 0c2.761424 0 5-2.238576 5-5s-2.238576-5-5-5-5 2.238576-5 5 2.238576 5 5 5zm18 0c2.761424 0 5-2.238576 5-5s-2.238576-5-5-5-5 2.238576-5 5 2.238576 5 5 5zm18 0c2.761424 0 5-2.238576 5-5s-2.238576-5-5-5-5 2.238576-5 5 2.238576 5 5 5zm18 0c2.761424 0 5-2.238576 5-5s-2.238576-5-5-5-5 2.238576-5 5 2.238576 5 5 5zm18 0c2.761424 0 5-2.238576 5-5s-2.238576-5-5-5-5 2.238576-5 5 2.238576 5 5 5zm18 0c2.761424 0 5-2.238576 5-5s-2.238576-5-5-5-5 2.238576-5 5 2.238576 5 5 5zm18 0c2.761424 0 5-2.238576 5-5s-2.238576-5-5-5-5 2.238576-5 5 2.238576 5 5 5zm18 0c2.761424 0 5-2.238576 5-5s-2.238576-5-5-5-5 2.238576-5 5 2.238576 5 5 5zm18 0c2.761424 0 5-2.238576 5-5s-2.238576-5-5-5-5 2.238576-5 5 2.238576 5 5 5zm97 0c2.761424 0 5-2.238576 5-5s-2.238576-5-5-5-5 2.238576-5 5 2.238576 5 5 5zm18 0c2.761424 0 5-2.238576 5-5s-2.238576-5-5-5-5 2.238576-5 5 2.238576 5 5 5zm18 0c2.761424 0 5-2.238576 5-5s-2.238576-5-5-5-5 2.238576-5 5 2.238576 5 5 5zm18 0c2.761424 0 5-2.238576 5-5s-2.238576-5-5-5-5 2.238576-5 5 2.238576 5 5 5zm18 0c2.761424 0 5-2.238576 5-5s-2.238576-5-5-5-5 2.238576-5 5 2.238576 5 5 5zm18 0c2.761424 0 5-2.238576 5-5s-2.238576-5-5-5-5 2.238576-5 5 2.238576 5 5 5zm18 0c2.761424 0 5-2.238576 5-5s-2.238576-5-5-5-5 2.238576-5 5 2.238576 5 5 5zm18 0c2.761424 0 5-2.238576 5-5s-2.238576-5-5-5-5 2.238576-5 5 2.238576 5 5 5zm18 0c2.761424 0 5-2.238576 5-5s-2.238576-5-5-5-5 2.238576-5 5 2.238576 5 5 5zm18 0c2.761424 0 5-2.238576 5-5s-2.238576-5-5-5-5 2.238576-5 5 2.238576 5 5 5zm152 0c2.761424 0 5-2.238576 5-5s-2.238576-5-5-5-5 2.238576-5 5 2.238576 5 5 5zm18 0c2.761424 0 5-2.238576 5-5s-2.238576-5-5-5-5 2.238576-5 5 2.238576 5 5 5zm18 0c2.761424 0 5-2.238576 5-5s-2.238576-5-5-5-5 2.238576-5 5 2.238576 5 5 5zm18 0c2.761424 0 5-2.238576 5-5s-2.238576-5-5-5-5 2.238576-5 5 2.238576 5 5 5zm18 0c2.761424 0 5-2.238576 5-5s-2.238576-5-5-5-5 2.238576-5 5 2.238576 5 5 5zm18 0c2.761424 0 5-2.238576 5-5s-2.238576-5-5-5-5 2.238576-5 5 2.238576 5 5 5zm18 0c2.761424 0 5-2.238576 5-5s-2.238576-5-5-5-5 2.238576-5 5 2.238576 5 5 5zm-72-18c2.761424 0 5-2.238576 5-5s-2.238576-5-5-5-5 2.238576-5 5 2.238576 5 5 5zm18 0c2.761424 0 5-2.238576 5-5s-2.238576-5-5-5-5 2.238576-5 5 2.238576 5 5 5zm18 0c2.761424 0 5-2.238576 5-5s-2.238576-5-5-5-5 2.238576-5 5 2.238576 5 5 5zm-627 36c2.761424 0 5-2.238576 5-5s-2.238576-5-5-5-5 2.238576-5 5 2.238576 5 5 5zm18 0c2.761424 0 5-2.238576 5-5s-2.238576-5-5-5-5 2.238576-5 5 2.238576 5 5 5zm18 0c2.761424 0 5-2.238576 5-5s-2.238576-5-5-5-5 2.238576-5 5 2.238576 5 5 5zm18 0c2.761424 0 5-2.238576 5-5s-2.238576-5-5-5-5 2.238576-5 5 2.238576 5 5 5zm18 0c2.761424 0 5-2.238576 5-5s-2.238576-5-5-5-5 2.238576-5 5 2.238576 5 5 5zm18 0c2.761424 0 5-2.238576 5-5s-2.238576-5-5-5-5 2.238576-5 5 2.238576 5 5 5zm18 0c2.761424 0 5-2.238576 5-5s-2.238576-5-5-5-5 2.238576-5 5 2.238576 5 5 5zm18 0c2.761424 0 5-2.238576 5-5s-2.238576-5-5-5-5 2.238576-5 5 2.238576 5 5 5zm18 0c2.761424 0 5-2.238576 5-5s-2.238576-5-5-5-5 2.238576-5 5 2.238576 5 5 5zm115 0c2.761424 0 5-2.238576 5-5s-2.238576-5-5-5-5 2.238576-5 5 2.238576 5 5 5zm18 0c2.761424 0 5-2.238576 5-5s-2.238576-5-5-5-5 2.238576-5 5 2.238576 5 5 5zm18 0c2.761424 0 5-2.238576 5-5s-2.238576-5-5-5-5 2.238576-5 5 2.238576 5 5 5zm18 0c2.761424 0 5-2.238576 5-5s-2.238576-5-5-5-5 2.238576-5 5 2.238576 5 5 5zm18 0c2.761424 0 5-2.238576 5-5s-2.238576-5-5-5-5 2.238576-5 5 2.238576 5 5 5zm18 0c2.761424 0 5-2.238576 5-5s-2.238576-5-5-5-5 2.238576-5 5 2.238576 5 5 5zm18 0c2.761424 0 5-2.238576 5-5s-2.238576-5-5-5-5 2.238576-5 5 2.238576 5 5 5zm18 0c2.761424 0 5-2.238576 5-5s-2.238576-5-5-5-5 2.238576-5 5 2.238576 5 5 5zm18 0c2.761424 0 5-2.238576 5-5s-2.238576-5-5-5-5 2.238576-5 5 2.238576 5 5 5zm152 0c2.761424 0 5-2.238576 5-5s-2.238576-5-5-5-5 2.238576-5 5 2.238576 5 5 5zm18 0c2.761424 0 5-2.238576 5-5s-2.238576-5-5-5-5 2.238576-5 5 2.238576 5 5 5zm18 0c2.761424 0 5-2.238576 5-5s-2.238576-5-5-5-5 2.238576-5 5 2.238576 5 5 5zm18 0c2.761424 0 5-2.238576 5-5s-2.238576-5-5-5-5 2.238576-5 5 2.238576 5 5 5zm18 0c2.761424 0 5-2.238576 5-5s-2.238576-5-5-5-5 2.238576-5 5 2.238576 5 5 5zm18 0c2.761424 0 5-2.238576 5-5s-2.238576-5-5-5-5 2.238576-5 5 2.238576 5 5 5zm18 0c2.761424 0 5-2.238576 5-5s-2.238576-5-5-5-5 2.238576-5 5 2.238576 5 5 5zm-663 18c2.761424 0 5-2.238576 5-5s-2.238576-5-5-5-5 2.238576-5 5 2.238576 5 5 5zm18 0c2.761424 0 5-2.238576 5-5s-2.238576-5-5-5-5 2.238576-5 5 2.238576 5 5 5zm18 0c2.761424 0 5-2.238576 5-5s-2.238576-5-5-5-5 2.238576-5 5 2.238576 5 5 5zm18 0c2.761424 0 5-2.238576 5-5s-2.238576-5-5-5-5 2.238576-5 5 2.238576 5 5 5zm18 0c2.761424 0 5-2.238576 5-5s-2.238576-5-5-5-5 2.238576-5 5 2.238576 5 5 5zm18 0c2.761424 0 5-2.238576 5-5s-2.238576-5-5-5-5 2.238576-5 5 2.238576 5 5 5zm18 0c2.761424 0 5-2.238576 5-5s-2.238576-5-5-5-5 2.238576-5 5 2.238576 5 5 5zm18 0c2.761424 0 5-2.238576 5-5s-2.238576-5-5-5-5 2.238576-5 5 2.238576 5 5 5zm18 0c2.761424 0 5-2.238576 5-5s-2.238576-5-5-5-5 2.238576-5 5 2.238576 5 5 5zm115 0c2.761424 0 5-2.238576 5-5s-2.238576-5-5-5-5 2.238576-5 5 2.238576 5 5 5zm18 0c2.761424 0 5-2.238576 5-5s-2.238576-5-5-5-5 2.238576-5 5 2.238576 5 5 5zm18 0c2.761424 0 5-2.238576 5-5s-2.238576-5-5-5-5 2.238576-5 5 2.238576 5 5 5zm18 0c2.761424 0 5-2.238576 5-5s-2.238576-5-5-5-5 2.238576-5 5 2.238576 5 5 5zm18 0c2.761424 0 5-2.238576 5-5s-2.238576-5-5-5-5 2.238576-5 5 2.238576 5 5 5zm18 0c2.761424 0 5-2.238576 5-5s-2.238576-5-5-5-5 2.238576-5 5 2.238576 5 5 5zm18 0c2.761424 0 5-2.238576 5-5s-2.238576-5-5-5-5 2.238576-5 5 2.238576 5 5 5zm18 0c2.761424 0 5-2.238576 5-5s-2.238576-5-5-5-5 2.238576-5 5 2.238576 5 5 5zm18 0c2.761424 0 5-2.238576 5-5s-2.238576-5-5-5-5 2.238576-5 5 2.238576 5 5 5zm134 0c2.761424 0 5-2.238576 5-5s-2.238576-5-5-5-5 2.238576-5 5 2.238576 5 5 5zm18 0c2.761424 0 5-2.238576 5-5s-2.238576-5-5-5-5 2.238576-5 5 2.238576 5 5 5zm18 0c2.761424 0 5-2.238576 5-5s-2.238576-5-5-5-5 2.238576-5 5 2.238576 5 5 5zm18 0c2.761424 0 5-2.238576 5-5s-2.238576-5-5-5-5 2.238576-5 5 2.238576 5 5 5zm18 0c2.761424 0 5-2.238576 5-5s-2.238576-5-5-5-5 2.238576-5 5 2.238576 5 5 5zm18 0c2.761424 0 5-2.238576 5-5s-2.238576-5-5-5-5 2.238576-5 5 2.238576 5 5 5zm18 0c2.761424 0 5-2.238576 5-5s-2.238576-5-5-5-5 2.238576-5 5 2.238576 5 5 5zm18 0c2.761424 0 5-2.238576 5-5s-2.238576-5-5-5-5 2.238576-5 5 2.238576 5 5 5zm18 0c2.761424 0 5-2.238576 5-5s-2.238576-5-5-5-5 2.238576-5 5 2.238576 5 5 5zm-681 18c2.761424 0 5-2.238576 5-5s-2.238576-5-5-5-5 2.238576-5 5 2.238576 5 5 5zm18 0c2.761424 0 5-2.238576 5-5s-2.238576-5-5-5-5 2.238576-5 5 2.238576 5 5 5zm18 0c2.761424 0 5-2.238576 5-5s-2.238576-5-5-5-5 2.238576-5 5 2.238576 5 5 5zm18 0c2.761424 0 5-2.238576 5-5s-2.238576-5-5-5-5 2.238576-5 5 2.238576 5 5 5zm18 0c2.761424 0 5-2.238576 5-5s-2.238576-5-5-5-5 2.238576-5 5 2.238576 5 5 5zm18 0c2.761424 0 5-2.238576 5-5s-2.238576-5-5-5-5 2.238576-5 5 2.238576 5 5 5zm18 0c2.761424 0 5-2.238576 5-5s-2.238576-5-5-5-5 2.238576-5 5 2.238576 5 5 5zm18 0c2.761424 0 5-2.238576 5-5s-2.238576-5-5-5-5 2.238576-5 5 2.238576 5 5 5zm133 0c2.761424 0 5-2.238576 5-5s-2.238576-5-5-5-5 2.238576-5 5 2.238576 5 5 5zm18 0c2.761424 0 5-2.238576 5-5s-2.238576-5-5-5-5 2.238576-5 5 2.238576 5 5 5zm18 0c2.761424 0 5-2.238576 5-5s-2.238576-5-5-5-5 2.238576-5 5 2.238576 5 5 5zm18 0c2.761424 0 5-2.238576 5-5s-2.238576-5-5-5-5 2.238576-5 5 2.238576 5 5 5zm18 0c2.761424 0 5-2.238576 5-5s-2.238576-5-5-5-5 2.238576-5 5 2.238576 5 5 5zm18 0c2.761424 0 5-2.238576 5-5s-2.238576-5-5-5-5 2.238576-5 5 2.238576 5 5 5zm18 0c2.761424 0 5-2.238576 5-5s-2.238576-5-5-5-5 2.238576-5 5 2.238576 5 5 5zm18 0c2.761424 0 5-2.238576 5-5s-2.238576-5-5-5-5 2.238576-5 5 2.238576 5 5 5zm152 0c2.761424 0 5-2.238576 5-5s-2.238576-5-5-5-5 2.238576-5 5 2.238576 5 5 5zm18 0c2.761424 0 5-2.238576 5-5s-2.238576-5-5-5-5 2.238576-5 5 2.238576 5 5 5zm18 0c2.761424 0 5-2.238576 5-5s-2.238576-5-5-5-5 2.238576-5 5 2.238576 5 5 5zm18 0c2.761424 0 5-2.238576 5-5s-2.238576-5-5-5-5 2.238576-5 5 2.238576 5 5 5zm18 0c2.761424 0 5-2.238576 5-5s-2.238576-5-5-5-5 2.238576-5 5 2.238576 5 5 5zm18 0c2.761424 0 5-2.238576 5-5s-2.238576-5-5-5-5 2.238576-5 5 2.238576 5 5 5zm18 0c2.761424 0 5-2.238576 5-5s-2.238576-5-5-5-5 2.238576-5 5 2.238576 5 5 5zm18 0c2.761424 0 5-2.238576 5-5s-2.238576-5-5-5-5 2.238576-5 5 2.238576 5 5 5zm18 0c2.761424 0 5-2.238576 5-5s-2.238576-5-5-5-5 2.238576-5 5 2.238576 5 5 5zm-663 18c2.761424 0 5-2.238576 5-5s-2.238576-5-5-5-5 2.238576-5 5 2.238576 5 5 5zm18 0c2.761424 0 5-2.238576 5-5s-2.238576-5-5-5-5 2.238576-5 5 2.238576 5 5 5zm18 0c2.761424 0 5-2.238576 5-5s-2.238576-5-5-5-5 2.238576-5 5 2.238576 5 5 5zm18 0c2.761424 0 5-2.238576 5-5s-2.238576-5-5-5-5 2.238576-5 5 2.238576 5 5 5zm18 0c2.761424 0 5-2.238576 5-5s-2.238576-5-5-5-5 2.238576-5 5 2.238576 5 5 5zm18 0c2.761424 0 5-2.238576 5-5s-2.238576-5-5-5-5 2.238576-5 5 2.238576 5 5 5zm18 0c2.761424 0 5-2.238576 5-5s-2.238576-5-5-5-5 2.238576-5 5 2.238576 5 5 5zm151 0c2.761424 0 5-2.238576 5-5s-2.238576-5-5-5-5 2.238576-5 5 2.238576 5 5 5zm18 0c2.761424 0 5-2.238576 5-5s-2.238576-5-5-5-5 2.238576-5 5 2.238576 5 5 5zm18 0c2.761424 0 5-2.238576 5-5s-2.238576-5-5-5-5 2.238576-5 5 2.238576 5 5 5zm18 0c2.761424 0 5-2.238576 5-5s-2.238576-5-5-5-5 2.238576-5 5 2.238576 5 5 5zm18 0c2.761424 0 5-2.238576 5-5s-2.238576-5-5-5-5 2.238576-5 5 2.238576 5 5 5zm18 0c2.761424 0 5-2.238576 5-5s-2.238576-5-5-5-5 2.238576-5 5 2.238576 5 5 5zm18 0c2.761424 0 5-2.238576 5-5s-2.238576-5-5-5-5 2.238576-5 5 2.238576 5 5 5zm152 0c2.761424 0 5-2.238576 5-5s-2.238576-5-5-5-5 2.238576-5 5 2.238576 5 5 5zm18 0c2.761424 0 5-2.238576 5-5s-2.238576-5-5-5-5 2.238576-5 5 2.238576 5 5 5zm18 0c2.761424 0 5-2.238576 5-5s-2.238576-5-5-5-5 2.238576-5 5 2.238576 5 5 5zm18 0c2.761424 0 5-2.238576 5-5s-2.238576-5-5-5-5 2.238576-5 5 2.238576 5 5 5zm18 0c2.761424 0 5-2.238576 5-5s-2.238576-5-5-5-5 2.238576-5 5 2.238576 5 5 5zm18 0c2.761424 0 5-2.238576 5-5s-2.238576-5-5-5-5 2.238576-5 5 2.238576 5 5 5zm18 0c2.761424 0 5-2.238576 5-5s-2.238576-5-5-5-5 2.238576-5 5 2.238576 5 5 5zm18 0c2.761424 0 5-2.238576 5-5s-2.238576-5-5-5-5 2.238576-5 5 2.238576 5 5 5zm18 0c2.761424 0 5-2.238576 5-5s-2.238576-5-5-5-5 2.238576-5 5 2.238576 5 5 5zm-663 18c2.761424 0 5-2.238576 5-5s-2.238576-5-5-5-5 2.238576-5 5 2.238576 5 5 5zm18 0c2.761424 0 5-2.238576 5-5s-2.238576-5-5-5-5 2.238576-5 5 2.238576 5 5 5zm18 0c2.761424 0 5-2.238576 5-5s-2.238576-5-5-5-5 2.238576-5 5 2.238576 5 5 5zm18 0c2.761424 0 5-2.238576 5-5s-2.238576-5-5-5-5 2.238576-5 5 2.238576 5 5 5zm18 0c2.761424 0 5-2.238576 5-5s-2.238576-5-5-5-5 2.238576-5 5 2.238576 5 5 5zm18 0c2.761424 0 5-2.238576 5-5s-2.238576-5-5-5-5 2.238576-5 5 2.238576 5 5 5zm18 0c2.761424 0 5-2.238576 5-5s-2.238576-5-5-5-5 2.238576-5 5 2.238576 5 5 5zm151 0c2.761424 0 5-2.238576 5-5s-2.238576-5-5-5-5 2.238576-5 5 2.238576 5 5 5zm18 0c2.761424 0 5-2.238576 5-5s-2.238576-5-5-5-5 2.238576-5 5 2.238576 5 5 5zm18 0c2.761424 0 5-2.238576 5-5s-2.238576-5-5-5-5 2.238576-5 5 2.238576 5 5 5zm18 0c2.761424 0 5-2.238576 5-5s-2.238576-5-5-5-5 2.238576-5 5 2.238576 5 5 5zm18 0c2.761424 0 5-2.238576 5-5s-2.238576-5-5-5-5 2.238576-5 5 2.238576 5 5 5zm18 0c2.761424 0 5-2.238576 5-5s-2.238576-5-5-5-5 2.238576-5 5 2.238576 5 5 5zm18 0c2.761424 0 5-2.238576 5-5s-2.238576-5-5-5-5 2.238576-5 5 2.238576 5 5 5zm-367 18c2.761424 0 5-2.238576 5-5s-2.238576-5-5-5-5 2.238576-5 5 2.238576 5 5 5zm18 0c2.761424 0 5-2.238576 5-5s-2.238576-5-5-5-5 2.238576-5 5 2.238576 5 5 5zm18 0c2.761424 0 5-2.238576 5-5s-2.238576-5-5-5-5 2.238576-5 5 2.238576 5 5 5zm18 0c2.761424 0 5-2.238576 5-5s-2.238576-5-5-5-5 2.238576-5 5 2.238576 5 5 5zm18 0c2.761424 0 5-2.238576 5-5s-2.238576-5-5-5-5 2.238576-5 5 2.238576 5 5 5zm18 0c2.761424 0 5-2.238576 5-5s-2.238576-5-5-5-5 2.238576-5 5 2.238576 5 5 5zm169 0c2.761424 0 5-2.238576 5-5s-2.238576-5-5-5-5 2.238576-5 5 2.238576 5 5 5zm18 0c2.761424 0 5-2.238576 5-5s-2.238576-5-5-5-5 2.238576-5 5 2.238576 5 5 5zm18 0c2.761424 0 5-2.238576 5-5s-2.238576-5-5-5-5 2.238576-5 5 2.238576 5 5 5zm18 0c2.761424 0 5-2.238576 5-5s-2.238576-5-5-5-5 2.238576-5 5 2.238576 5 5 5zm18 0c2.761424 0 5-2.238576 5-5s-2.238576-5-5-5-5 2.238576-5 5 2.238576 5 5 5zm18 0c2.761424 0 5-2.238576 5-5s-2.238576-5-5-5-5 2.238576-5 5 2.238576 5 5 5zm-328 18c2.761424 0 5-2.238576 5-5s-2.238576-5-5-5-5 2.238576-5 5 2.238576 5 5 5zm18 0c2.761424 0 5-2.238576 5-5s-2.238576-5-5-5-5 2.238576-5 5 2.238576 5 5 5zm18 0c2.761424 0 5-2.238576 5-5s-2.238576-5-5-5-5 2.238576-5 5 2.238576 5 5 5zm18 0c2.761424 0 5-2.238576 5-5s-2.238576-5-5-5-5 2.238576-5 5 2.238576 5 5 5zm18 0c2.761424 0 5-2.238576 5-5s-2.238576-5-5-5-5 2.238576-5 5 2.238576 5 5 5zm187 0c2.761424 0 5-2.238576 5-5s-2.238576-5-5-5-5 2.238576-5 5 2.238576 5 5 5zm18 0c2.761424 0 5-2.238576 5-5s-2.238576-5-5-5-5 2.238576-5 5 2.238576 5 5 5zm18 0c2.761424 0 5-2.238576 5-5s-2.238576-5-5-5-5 2.238576-5 5 2.238576 5 5 5zm18 0c2.761424 0 5-2.238576 5-5s-2.238576-5-5-5-5 2.238576-5 5 2.238576 5 5 5zm18 0c2.761424 0 5-2.238576 5-5s-2.238576-5-5-5-5 2.238576-5 5 2.238576 5 5 5zm185-18c2.761424 0 5-2.238576 5-5s-2.238576-5-5-5-5 2.238576-5 5 2.238576 5 5 5zm18 0c2.761424 0 5-2.238576 5-5s-2.238576-5-5-5-5 2.238576-5 5 2.238576 5 5 5zm18 0c2.761424 0 5-2.238576 5-5s-2.238576-5-5-5-5 2.238576-5 5 2.238576 5 5 5zm18 0c2.761424 0 5-2.238576 5-5s-2.238576-5-5-5-5 2.238576-5 5 2.238576 5 5 5zm18 0c2.761424 0 5-2.238576 5-5s-2.238576-5-5-5-5 2.238576-5 5 2.238576 5 5 5zm18 0c2.761424 0 5-2.238576 5-5s-2.238576-5-5-5-5 2.238576-5 5 2.238576 5 5 5zm18 0c2.761424 0 5-2.238576 5-5s-2.238576-5-5-5-5 2.238576-5 5 2.238576 5 5 5zm-108-18c2.761424 0 5-2.238576 5-5s-2.238576-5-5-5-5 2.238576-5 5 2.238576 5 5 5zm18 0c2.761424 0 5-2.238576 5-5s-2.238576-5-5-5-5 2.238576-5 5 2.238576 5 5 5zm18 0c2.761424 0 5-2.238576 5-5s-2.238576-5-5-5-5 2.238576-5 5 2.238576 5 5 5zm18 0c2.761424 0 5-2.238576 5-5s-2.238576-5-5-5-5 2.238576-5 5 2.238576 5 5 5zm18 0c2.761424 0 5-2.238576 5-5s-2.238576-5-5-5-5 2.238576-5 5 2.238576 5 5 5zm18 0c2.761424 0 5-2.238576 5-5s-2.238576-5-5-5-5 2.238576-5 5 2.238576 5 5 5zm18 0c2.761424 0 5-2.238576 5-5s-2.238576-5-5-5-5 2.238576-5 5 2.238576 5 5 5zm-72 36c2.761424 0 5-2.238576 5-5s-2.238576-5-5-5-5 2.238576-5 5 2.238576 5 5 5zm18 0c2.761424 0 5-2.238576 5-5s-2.238576-5-5-5-5 2.238576-5 5 2.238576 5 5 5zm18 0c2.761424 0 5-2.238576 5-5s-2.238576-5-5-5-5 2.238576-5 5 2.238576 5 5 5zm-699-396c2.7614237 0 5-2.2385763 5-5s-2.2385763-5-5-5-5 2.2385763-5 5 2.2385763 5 5 5zm36 0c2.7614237 0 5-2.2385763 5-5s-2.2385763-5-5-5-5 2.2385763-5 5 2.2385763 5 5 5zm-54 0c2.7614237 0 5-2.2385763 5-5s-2.2385763-5-5-5-5 2.2385763-5 5 2.2385763 5 5 5zm36 0c2.7614237 0 5-2.2385763 5-5s-2.2385763-5-5-5-5 2.2385763-5 5 2.2385763 5 5 5zm36 0c2.7614237 0 5-2.2385763 5-5s-2.2385763-5-5-5-5 2.2385763-5 5 2.2385763 5 5 5zm18 0c2.761424 0 5-2.2385763 5-5s-2.238576-5-5-5-5 2.2385763-5 5 2.238576 5 5 5zm-72 18c2.7614237 0 5-2.2385763 5-5s-2.2385763-5-5-5-5 2.2385763-5 5 2.2385763 5 5 5zm36 0c2.7614237 0 5-2.2385763 5-5s-2.2385763-5-5-5-5 2.2385763-5 5 2.2385763 5 5 5zm-54 0c2.7614237 0 5-2.2385763 5-5s-2.2385763-5-5-5-5 2.2385763-5 5 2.2385763 5 5 5zm36 0c2.7614237 0 5-2.2385763 5-5s-2.2385763-5-5-5-5 2.2385763-5 5 2.2385763 5 5 5zm36 0c2.7614237 0 5-2.2385763 5-5s-2.2385763-5-5-5-5 2.2385763-5 5 2.2385763 5 5 5zm18 0c2.761424 0 5-2.2385763 5-5s-2.238576-5-5-5-5 2.2385763-5 5 2.238576 5 5 5zm-72 18c2.7614237 0 5-2.2385763 5-5s-2.2385763-5-5-5-5 2.2385763-5 5 2.2385763 5 5 5zm36 0c2.7614237 0 5-2.2385763 5-5s-2.2385763-5-5-5-5 2.2385763-5 5 2.2385763 5 5 5zm-54 0c2.7614237 0 5-2.2385763 5-5s-2.2385763-5-5-5-5 2.2385763-5 5 2.2385763 5 5 5zm36 0c2.7614237 0 5-2.2385763 5-5s-2.2385763-5-5-5-5 2.2385763-5 5 2.2385763 5 5 5zm36 0c2.7614237 0 5-2.2385763 5-5s-2.2385763-5-5-5-5 2.2385763-5 5 2.2385763 5 5 5zm18 0c2.761424 0 5-2.2385763 5-5s-2.238576-5-5-5-5 2.2385763-5 5 2.238576 5 5 5z" fill="#3a4eff"/></svg>