<svg viewBox="0 0 100 100" xmlns="http://www.w3.org/2000/svg"><path d="m27.918345 0c-15.4205227 0-27.918345 12.4978223-27.918345 27.918345s12.4978223 27.918345 27.918345 27.918345 27.918345-12.4978223 27.918345-27.918345-12.4978223-27.918345-27.918345-27.918345zm16.4238396 30.3830121-11.2436779 11.2436779c-1.3632005 1.3632004-3.5715852 1.3632004-4.9347856 0-1.3632005-1.3632005-1.3632005-3.5715852 0-4.9347856l5.2946692-5.2837663h-19.4992178c-1.9302915 0-3.4897931-1.5594999-3.4897931-3.4897931s1.5605916-3.4897931 3.4897931-3.4897931h19.4992178l-5.3851876-5.3851876c-1.3632004-1.3632004-1.3632004-3.5715851 0-4.9347856 1.3632004-1.3632004 3.5715852-1.3632004 4.9347856 0l11.2436779 11.2436779c.9629666.962965 1.1156444 2.0317145 1.1156444 2.5660884s-.1526778 1.603125-1.025126 2.4646671z" transform="translate(22 22.1429)"/></svg>