<svg clip-rule="evenodd" fill-rule="evenodd" stroke-linejoin="round" stroke-miterlimit="2" viewBox="0 0 268 166" xmlns="http://www.w3.org/2000/svg" xmlns:xlink="http://www.w3.org/1999/xlink"><g transform="matrix(.950734 0 0 .902976 4.74764 4.65214)"><path d="m-4.994-5.152h281.151v183.172h-281.151z" fill="none"/><g><path d="m20.928.864c-5.824 0-9.968-1.232-12.432-3.696s-3.76-6.544-3.888-12.24c-.064-4.8-.112-9.888-.144-15.264s-.032-10.752 0-16.128.08-10.464.144-15.264c.064-4.992 1.376-8.88 3.936-11.664s6.688-4.176 12.384-4.176c5.632 0 9.712 1.232 12.24 3.696s3.856 6.512 3.984 12.144c.064 1.728.096 3.84.096 6.336s-.032 4.608-.096 6.336h-10.368c0-2.112.016-4.512.048-7.2s.016-5.12-.048-7.296c-.064-3.648-2.016-5.472-5.856-5.472s-5.824 1.824-5.952 5.472c-.192 8.128-.288 16.512-.288 25.152s.096 17.024.288 25.152c.128 3.712 2.112 5.568 5.952 5.568 4.096 0 6.176-1.856 6.24-5.568.064-2.24.096-4.752.096-7.536s-.032-5.264-.096-7.44h10.368c.064 2.112.096 4.288.096 6.528s-.032 4.448-.096 6.624c-.128 5.696-1.488 9.776-4.08 12.24-2.592 2.464-6.768 3.696-12.528 3.696zm25.536-.864v-76.8h10.464v33.312h11.136v-33.312h10.368v76.8h-10.368v-34.272h-11.136v34.272zm43.68 0v-76.8h10.464v76.8zm38.016.864c-5.824 0-9.968-1.232-12.432-3.696s-3.76-6.544-3.888-12.24c-.064-4.8-.112-9.888-.144-15.264s-.032-10.752 0-16.128.08-10.464.144-15.264c.064-4.992 1.376-8.88 3.936-11.664s6.688-4.176 12.384-4.176c5.632 0 9.712 1.232 12.24 3.696s3.856 6.512 3.984 12.144c.064 1.728.096 3.84.096 6.336s-.032 4.608-.096 6.336h-10.368c0-2.112.016-4.512.048-7.2s.016-5.12-.048-7.296c-.064-3.648-2.016-5.472-5.856-5.472s-5.824 1.824-5.952 5.472c-.192 8.128-.288 16.512-.288 25.152s.096 17.024.288 25.152c.128 3.712 2.112 5.568 5.952 5.568 4.096 0 6.176-1.856 6.24-5.568.064-2.24.096-4.752.096-7.536s-.032-5.264-.096-7.44h10.368c.064 2.112.096 4.288.096 6.528s-.032 4.448-.096 6.624c-.128 5.696-1.488 9.776-4.08 12.24-2.592 2.464-6.768 3.696-12.528 3.696zm23.328-.864 9.408-76.8h17.28l9.408 76.8h-10.56l-1.824-19.2h-11.232l-1.824 19.2zm13.44-28.32h9.216l-1.632-16.896-1.632-22.368h-2.688l-1.632 22.368zm47.232 29.088c-5.824 0-9.968-1.232-12.432-3.696s-3.792-6.544-3.984-12.24c-.128-4.736-.208-9.76-.24-15.072s-.032-10.624 0-15.936.112-10.304.24-14.976c.192-5.952 1.536-10.176 4.032-12.672s6.624-3.744 12.384-3.744c5.44 0 9.408 1.216 11.904 3.648s3.904 6.496 4.224 12.192c.256 4.224.256 8.448 0 12.672h-10.368c.128-2.176.192-4.592.192-7.248s-.064-5.072-.192-7.248c-.192-3.648-2.112-5.472-5.76-5.472-3.84 0-5.856 1.824-6.048 5.472-.256 8-.384 16.368-.384 25.104s.128 17.104.384 25.104c.128 3.712 2.144 5.568 6.048 5.568 4.032 0 6.144-1.856 6.336-5.568.128-1.856.192-3.952.192-6.288s-.064-4.4-.192-6.192h-5.76v-9.12h15.936c.128 2.688.176 5.728.144 9.12s-.112 6.944-.24 10.656c-.256 5.696-1.648 9.776-4.176 12.24-2.528 2.464-6.608 3.696-12.24 3.696zm42.912 0c-5.76 0-9.904-1.216-12.432-3.648s-3.856-6.496-3.984-12.192c-.32-15.552-.32-31.136 0-46.752.128-5.632 1.456-9.664 3.984-12.096s6.672-3.648 12.432-3.648 9.888 1.216 12.384 3.648 3.84 6.464 4.032 12.096c.384 15.68.384 31.264 0 46.752-.192 5.696-1.536 9.76-4.032 12.192-2.496 2.432-6.624 3.648-12.384 3.648zm0-8.544c3.904 0 5.92-1.824 6.048-5.472.192-5.312.304-10.848.336-16.608s.016-11.52-.048-17.28-.16-11.264-.288-16.512c-.128-3.584-2.144-5.376-6.048-5.376-3.968 0-5.984 1.792-6.048 5.376-.192 5.248-.32 10.752-.384 16.512s-.064 11.52 0 17.28.192 11.296.384 16.608c.064 3.648 2.08 5.472 6.048 5.472zm-234.144 95.64c-5.824 0-9.968-1.232-12.432-3.696s-3.76-6.544-3.888-12.24c-.064-4.8-.112-9.888-.144-15.264s-.032-10.752 0-16.128.08-10.464.144-15.264c.064-4.992 1.376-8.88 3.936-11.664s6.688-4.176 12.384-4.176c5.632 0 9.712 1.232 12.24 3.696s3.856 6.512 3.984 12.144c.064 1.728.096 3.84.096 6.336s-.032 4.608-.096 6.336h-10.368c0-2.112.016-4.512.048-7.2s.016-5.12-.048-7.296c-.064-3.648-2.016-5.472-5.856-5.472s-5.824 1.824-5.952 5.472c-.192 8.128-.288 16.512-.288 25.152s.096 17.024.288 25.152c.128 3.712 2.112 5.568 5.952 5.568 4.096 0 6.176-1.856 6.24-5.568.064-2.24.096-4.752.096-7.536s-.032-5.264-.096-7.44h10.368c.064 2.112.096 4.288.096 6.528s-.032 4.448-.096 6.624c-.128 5.696-1.488 9.776-4.08 12.24s-6.768 3.696-12.528 3.696zm23.328-.864 9.408-76.8h17.28l9.408 76.8h-10.56l-1.824-19.2h-11.232l-1.824 19.2zm13.44-28.32h9.216l-1.632-16.896-1.632-22.368h-2.688l-1.632 22.368zm30.528 28.32v-76.8h17.76l5.184 30.24 2.496 37.248h2.112l2.304-37.248 5.28-30.24h17.664v76.8h-10.368v-23.232l1.824-44.352h-2.208l-4.8 45.216-4.512 22.176h-12.672l-4.416-22.176-4.8-45.216h-2.208l1.824 44.64v22.944zm64.512 0v-76.8h15.168c5.696 0 9.84 1.216 12.432 3.648s3.984 6.4 4.176 11.904c.128 3.52.192 6.704.192 9.552s-.064 5.84-.192 8.976c-.192 5.504-1.584 9.472-4.176 11.904s-6.768 3.648-12.528 3.648h-4.608v27.168zm10.464-36.384h4.608c4.032 0 6.144-1.952 6.336-5.856.128-3.072.192-6.32.192-9.744s-.064-6.672-.192-9.744c-.192-3.904-2.272-5.856-6.24-5.856h-4.704zm47.04 37.152c-5.76 0-9.856-1.232-12.288-3.696s-3.776-6.544-4.032-12.24c-.064-2.24-.08-4.416-.048-6.528s.144-4.32.336-6.624h9.792c-.128 2.624-.208 5.216-.24 7.776s.048 4.96.24 7.2c.128 1.92.688 3.328 1.68 4.224s2.512 1.344 4.56 1.344c1.984 0 3.44-.448 4.368-1.344s1.456-2.304 1.584-4.224c.192-2.176.272-4.144.24-5.904s-.112-3.824-.24-6.192c-.128-1.856-.512-3.456-1.152-4.8s-1.792-2.24-3.456-2.688l-6.432-1.632c-4.352-1.088-7.328-2.976-8.928-5.664s-2.464-6.336-2.592-10.944v-5.28c0-1.792.032-3.552.096-5.28.192-5.696 1.52-9.76 3.984-12.192s6.64-3.648 12.528-3.648c5.504 0 9.504 1.216 12 3.648s3.84 6.496 4.032 12.192c.064 1.6.08 3.536.048 5.808s-.08 4.56-.144 6.864h-9.984c.064-2.432.112-4.848.144-7.248s-.016-4.816-.144-7.248c-.128-3.648-2.144-5.472-6.048-5.472-1.984 0-3.456.448-4.416 1.344s-1.504 2.272-1.632 4.128c-.192 2.048-.272 4.112-.24 6.192s.112 4.144.24 6.192c.128 2.112.528 3.776 1.2 4.992s1.904 2.048 3.696 2.496l5.76 1.344c4.544 1.088 7.616 3.024 9.216 5.808s2.496 6.48 2.688 11.088c.064 2.048.08 3.808.048 5.28s-.08 3.136-.144 4.992c-.192 5.696-1.536 9.776-4.032 12.24s-6.592 3.696-12.288 3.696z" transform="matrix(1.05181721 0 0 1.1074504 -9.664385 80.748731)"/><g fill-rule="nonzero"><path d="m366.151 0h35.096v16.11h-35.096zm0 67.89h35.096v16.11h-35.096z" fill="#41b6e6" transform="matrix(.9620688 0 0 1.01295498 -110.410004 92.963717)"/><path d="m379.747 48.348-14.771 4.296 11.106-10.644-11.106-10.644 14.771 4.296 3.664-14.94 3.665 14.94 14.771-4.296-11.106 10.644 11.106 10.644-14.771-4.296-3.665 14.94z" fill="#e4002b" transform="matrix(.9620688 0 0 1.01295498 -110.410004 92.963717)"/></g></g></g></svg>