<svg viewBox="0 0 648 211" xmlns="http://www.w3.org/2000/svg"><path d="m0 210.525265c0-.17356 18.25625-23.6977 40.56944-52.27587 22.3132-28.57817 40.56945-52.27008 40.56945-52.6487 0-.37861-18.01813-23.74282-40.04028-51.92046-22.02215-28.17763-40.29418-51.65122003-40.6045-52.16352003-.46619-.7696 14.68645-.93145 87.20261-.93145h87.766843l40.502936 51.91937003c22.276614 28.55566 40.484109 52.4675 40.461122 53.13741-.023032.66992-18.279281 24.604-40.569465 53.18684l-40.527607 51.96881-87.665279.022344c-48.2159.011156-87.66527-.121184-87.66527-.294734zm182.773066-69.98006c14.145226-18.09564 25.986584-33.45259 26.314128-34.12655.469045-.96512-4.760543-8.10116-24.621598-33.59745-13.869423-17.80463-25.894782-33.08908-26.723019-33.96545l-1.505887-1.59339-40.109319.18228-40.109331.18229 23.12167 29.63332c12.71692 16.29834 24.658794 31.57668 26.537499 33.95187l3.415828 4.31853-21.964027 28.13703c-12.08021 15.47536-24.0075 30.7564-26.50508 33.95786l-4.54106 5.82083h40.485801 40.485802zm37.490352 69.06089c7.567635-8.86224 81.045126-104.17778 80.790809-104.80244-.191344-.46998-18.585324-24.19076-40.87551-52.71284l-40.527611-51.85833003 87.200824-.18151c47.96046-.0998 87.55059-.0485 87.97807.11406999.73183.27830001 79.4185 100.66304004 81.41761 103.86874004.86949 1.39429-1.8551 5.0671-40.17101 54.15139l-41.10376 52.65564h-87.88189c-83.628321 0-87.830854-.0598-86.827532-1.23472zm183.067342-70.02639c14.44906-18.43264 26.21-33.89241 26.135753-34.35505-.074953-.46265-11.883473-15.92599-26.241533-34.36299l-26.10555-33.52181-40.4411-.0328-40.441097-.0328 1.392771 1.94028c.766024 1.06715 12.653956 16.35763 26.417626 33.97884l25.02486 32.03857-22.61271 28.99199c-12.43698 15.9456-24.303298 31.11817-26.369581 33.71683-2.066282 2.59866-3.756877 4.90313-3.756877 5.12105 0 .21793 18.163438.31425 40.363198.21406l40.36321-.18217zm40.8862 67.20417c1.10062-1.45521 18.91946-24.8118 39.59742-51.90354l37.59631-49.25771-39.51369-51.75828c-21.73253-28.46704-39.51369-51.94170003-39.51369-52.16590003 0-.22419 10.55688-.40323 23.45973-.39786l23.45972.01 27.71939 36.32635003c15.24567 19.97948 27.94567 36.31184 28.22222 36.29412.27656-.0177 12.88533-16.34848 28.01949-36.29057l27.51667-36.25835003 23.8433-.0455 23.84331-.0455-8.22502 10.75972003c-51.5378 67.42023-70.49959 92.60659-70.46589 93.59762.0221.64926 17.34724 23.86884 38.50035 51.59907s38.69566 50.81547 38.98344 51.30054c.41434.6984-4.38189.88194-23.04582.88194h-23.56905l-27.74809-36.35449c-15.26146-19.99497-27.97294-36.1081-28.24774-35.80695-.2748.30116-12.78132 16.66068-27.79225 36.3545l-27.2926 35.80694h-23.67432-23.67432z"/></svg>