<svg viewBox="0 0 124 124" xmlns="http://www.w3.org/2000/svg"><path d="m99.0410256 0c13.7844614-0 24.9589744 11.1745134 24.9589744 24.9589744v21.7714743c0 1.7604077-1.427092 3.1875-3.1875 3.1875h-17.789103c-1.760407 0-3.1874996-1.4270923-3.1874996-3.1875v-13.0038461c0-5.281223-4.281277-9.5625-9.5625-9.5625h-56.5467948c-5.281223 0-9.5625 4.281277-9.5625 9.5625v56.5467948c0 5.281223 4.281277 9.5625 9.5625 9.5625h13.0038461c1.7604077 0 3.1875-1.4270923 3.1875-3.1875v-19.6967948c0-1.7604077 1.4270924-3.1875 3.1875-3.1875h17.7891026c1.7604076 0 3.1875 1.4270923 3.1875 3.1875v19.6967948c0 1.7604077 1.4270923 3.1875 3.1875 3.1875h13.0038461c5.281223 0 9.5625-4.281277 9.5625-9.5625v-13.0038461c0-1.7604077 1.4270926-3.1875 3.1874996-3.1875h17.789103c1.760408 0 3.1875 1.4270923 3.1875 3.1875v21.7714743c0 13.7844614-11.174513 24.9589744-24.9589744 24.9589744h-68.4410256c-16.8999133 0-30.6-13.700087-30.6-30.6v-62.8c-0-16.8999133 13.7000867-30.6 30.6-30.6zm-28.1464743 37.8358974c1.7604076 0 3.1875 1.4270924 3.1875 3.1875v17.7891026c0 1.7604076-1.4270924 3.1875-3.1875 3.1875h-17.7891026c-1.7604076 0-3.1875-1.4270924-3.1875-3.1875v-17.7891026c0-1.7604076 1.4270924-3.1875 3.1875-3.1875z" fill="#fff" fill-rule="evenodd"/></svg>