<svg viewBox="0 0 205 47" xmlns="http://www.w3.org/2000/svg"><title>Leadership by Design Logo</title><path d="m0 .48h7.08v15.51h9.48v5.49h-16.56zm35.97 15.66v5.34h-17.46v-21h17.07v5.34h-10.11v2.46h8.88v5.1h-8.88v2.76zm17.04 1.68h-7.98l-1.41 3.66h-7.2l9.18-21h6.96l9.18 21h-7.32zm-1.95-5.1-2.04-5.28-2.04 5.28zm11.82-12.24h10.35c2.34 0 4.405.425 6.195 1.275s3.18 2.065 4.17 3.645 1.485 3.44 1.485 5.58-.495 4-1.485 5.58-2.38 2.795-4.17 3.645-3.855 1.275-6.195 1.275h-10.35zm10.05 15.48c1.52 0 2.735-.435 3.645-1.305s1.365-2.095 1.365-3.675-.455-2.805-1.365-3.675-2.125-1.305-3.645-1.305h-2.97v9.96zm32.19.18v5.34h-17.46v-21h17.07v5.34h-10.11v2.46h8.88v5.1h-8.88v2.76zm11.73.06h-1.92v5.28h-7.08v-21h10.11c1.94 0 3.63.32 5.07.96s2.55 1.56 3.33 2.76 1.17 2.6 1.17 4.2c0 1.5-.34 2.81-1.02 3.93s-1.66 2.01-2.94 2.67l4.41 6.48h-7.56zm3.54-7.8c0-.78-.24-1.385-.72-1.815s-1.2-.645-2.16-.645h-2.58v4.92h2.58c.96 0 1.68-.215 2.16-.645s.72-1.035.72-1.815zm17.64 13.56c-1.74 0-3.435-.195-5.085-.585s-3.005-.915-4.065-1.575l2.28-5.16c1 .58 2.12 1.045 3.36 1.395s2.43.525 3.57.525c.98 0 1.68-.095 2.1-.285s.63-.475.63-.855c0-.44-.275-.77-.825-.99s-1.455-.46-2.715-.72c-1.62-.34-2.97-.705-4.05-1.095s-2.02-1.03-2.82-1.92-1.2-2.095-1.2-3.615c0-1.32.37-2.52 1.11-3.6s1.845-1.93 3.315-2.55 3.255-.93 5.355-.93c1.44 0 2.855.155 4.245.465s2.615.765 3.675 1.365l-2.13 5.13c-2.06-1.04-4.01-1.56-5.85-1.56-1.82 0-2.73.44-2.73 1.32 0 .42.27.735.81.945s1.43.435 2.67.675c1.6.3 2.95.645 4.05 1.035s2.055 1.025 2.865 1.905 1.215 2.08 1.215 3.6c0 1.32-.37 2.515-1.11 3.585s-1.845 1.92-3.315 2.55-3.255.945-5.355.945zm32.58-21.48v21h-7.08v-7.74h-6.54v7.74h-7.08v-21h7.08v7.44h6.54v-7.44zm3.42 0h7.08v21h-7.08zm20.61 0c1.94 0 3.63.32 5.07.96s2.55 1.56 3.33 2.76 1.17 2.6 1.17 4.2-.39 3-1.17 4.2-1.89 2.12-3.33 2.76-3.13.96-5.07.96h-3.03v5.16h-7.08v-21zm-.45 10.38c.96 0 1.68-.215 2.16-.645s.72-1.035.72-1.815-.24-1.385-.72-1.815-1.2-.645-2.16-.645h-2.58v4.92zm-182.97 14.62c2.8 0 4.915.5 6.345 1.5s2.145 2.33 2.145 3.99c0 .98-.245 1.86-.735 2.64s-1.215 1.41-2.175 1.89c1.24.46 2.2 1.13 2.88 2.01s1.02 1.94 1.02 3.18c0 1.84-.76 3.265-2.28 4.275s-3.72 1.515-6.6 1.515h-11.82v-21zm16.47 0 4.29 7.26 4.32-7.26h6.84l-7.92 13.38v7.62h-7.08v-7.71l-7.92-13.29zm-16.47 12.75h-4.26v3.3h4.26c1.56 0 2.34-.55 2.34-1.65s-.78-1.65-2.34-1.65zm-.96-7.8h-3.3v3.12h3.3c1.54 0 2.31-.52 2.31-1.56s-.77-1.56-2.31-1.56zm74.78-4.95h10.35c2.34 0 4.405.425 6.195 1.275s3.18 2.065 4.17 3.645 1.485 3.44 1.485 5.58-.495 4-1.485 5.58-2.38 2.795-4.17 3.645-3.855 1.275-6.195 1.275h-10.35zm10.05 15.48c1.52 0 2.735-.435 3.645-1.305s1.365-2.095 1.365-3.675-.455-2.805-1.365-3.675-2.125-1.305-3.645-1.305h-2.97v9.96zm32.19.18v5.34h-17.46v-21h17.07v5.34h-10.11v2.46h8.88v5.1h-8.88v2.76zm10.56 5.82c-1.74 0-3.435-.195-5.085-.585s-3.005-.915-4.065-1.575l2.28-5.16c1 .58 2.12 1.045 3.36 1.395s2.43.525 3.57.525c.98 0 1.68-.095 2.1-.285s.63-.475.63-.855c0-.44-.275-.77-.825-.99s-1.455-.46-2.715-.72c-1.62-.34-2.97-.705-4.05-1.095s-2.02-1.03-2.82-1.92-1.2-2.095-1.2-3.615c0-1.32.37-2.52 1.11-3.6s1.845-1.93 3.315-2.55 3.255-.93 5.355-.93c1.44 0 2.855.155 4.245.465s2.615.765 3.675 1.365l-2.13 5.13c-2.06-1.04-4.01-1.56-5.85-1.56-1.82 0-2.73.44-2.73 1.32 0 .42.27.735.81.945s1.43.435 2.67.675c1.6.3 2.95.645 4.05 1.035s2.055 1.025 2.865 1.905 1.215 2.08 1.215 3.6c0 1.32-.37 2.515-1.11 3.585s-1.845 1.92-3.315 2.55-3.255.945-5.355.945zm11.88-21.48h7.08v21h-7.08zm24.39 9.93h6.15v8.88c-1.24.86-2.68 1.52-4.32 1.98s-3.25.69-4.83.69c-2.24 0-4.25-.465-6.03-1.395s-3.175-2.23-4.185-3.9-1.515-3.565-1.515-5.685.505-4.015 1.515-5.685 2.42-2.97 4.23-3.9 3.855-1.395 6.135-1.395c2.06 0 3.905.345 5.535 1.035s2.985 1.695 4.065 3.015l-4.53 3.99c-1.32-1.54-2.89-2.31-4.71-2.31-1.56 0-2.8.47-3.72 1.41s-1.38 2.22-1.38 3.84c0 1.58.455 2.85 1.365 3.81s2.125 1.44 3.645 1.44c.9 0 1.76-.17 2.58-.51zm29.88-9.93v21h-5.82l-7.98-9.54v9.54h-6.9v-21h5.82l7.98 9.54v-9.54z" fill="#fff"/></svg>