<?xml version="1.0" encoding="UTF-8"?>
<svg width="330px" height="84px" viewBox="0 0 330 84" version="1.1" xmlns="http://www.w3.org/2000/svg" xmlns:xlink="http://www.w3.org/1999/xlink">
    <title>siggraph logo</title>
    <g id="Page-1" stroke="none" stroke-width="1" fill="none" fill-rule="evenodd">
        <path d="M106.510037,34.1899864 L110.93488,45.9334626 L101.920111,45.9334626 L106.510037,34.1899864 Z M96.1470986,54.9207178 L98.484141,54.9207178 L101.246836,47.7914437 L111.671275,47.7914437 L114.459865,54.9207178 L116.805,54.9207178 L107.824218,32.0115522 L105.385214,32.0115522 L96.1470986,54.9207178 L96.1470986,54.9207178 Z M134.996382,38.9401384 C134.226,35.4151534 131.306315,33.3920904 127.970689,33.3920904 C121.907974,33.3920904 119.341111,38.4562217 119.341111,43.4637073 C119.341111,48.4711929 121.907974,53.5385611 127.970689,53.5385611 C132.202937,53.5385611 134.896038,50.2676728 135.315217,46.1891778 L137.498507,46.1891778 C136.891588,51.8035823 133.326142,55.3981607 127.970689,55.3981607 C120.757256,55.3981607 117.157822,49.7206366 117.157822,43.4637073 C117.157822,37.2019227 120.757256,31.529254 127.970689,31.529254 C132.303281,31.529254 136.601885,34.1268669 137.176435,38.9401384 L134.996382,38.9401384 M140.769395,32.0115522 L143.980401,32.0115522 L151.905952,52.0932849 L159.795898,32.0115522 L163.008522,32.0115522 L163.008522,54.9207178 L160.823614,54.9207178 L160.823614,35.118977 L160.757258,35.118977 L152.930431,54.9207178 L150.874999,54.9207178 L143.015804,35.118977 L142.951066,35.118977 L142.951066,54.9207178 L140.769395,54.9207178 L140.769395,32.0115522 M170.895231,47.3123824 C170.895231,50.361543 173.274353,51.551104 175.967455,51.551104 C177.728329,51.551104 180.431141,51.0348183 180.431141,48.6993944 C180.431141,46.2247837 176.993552,45.8039866 173.627175,44.9057466 C170.226811,44.0107436 166.787604,42.690088 166.787604,38.3914837 C166.787604,33.7044513 171.217303,31.4628975 175.354062,31.4628975 C180.134964,31.4628975 184.532294,33.552317 184.532294,38.8446498 L179.657521,38.8446498 C179.498913,36.0851919 177.535733,35.3795475 175.127479,35.3795475 C173.530068,35.3795475 171.66885,36.0512044 171.66885,37.9771604 C171.66885,39.7396529 172.759686,39.966236 178.500329,41.4406443 C180.173807,41.8582045 185.29944,42.9166711 185.29944,48.1167523 C185.29944,52.3214864 182.002656,55.4612802 175.771622,55.4612802 C170.701017,55.4612802 165.950865,52.9575374 166.022077,47.3123824 L170.895231,47.3123824 M188.283862,54.9190993 L193.322098,54.9190993 L193.322098,32.0115522 L188.283862,32.0115522 L188.283862,54.9190993 Z M214.302071,52.3214864 C212.53796,54.5970277 210.233287,55.4612802 208.017628,55.4612802 C200.927197,55.4612802 196.754832,50.1689474 196.754832,43.555959 C196.754832,36.7600857 200.927197,31.4628975 208.017628,31.4628975 C212.696568,31.4628975 217.124649,34.3550684 217.671685,39.5486758 L212.856795,39.5486758 C212.2871,37.0190378 210.390276,35.6951453 208.017628,35.6951453 C203.490822,35.6951453 201.796305,39.5486758 201.796305,43.555959 C201.796305,47.3803573 203.490822,51.2274139 208.017628,51.2274139 C211.286898,51.2274139 213.182103,49.463303 213.470187,46.2879033 L208.396345,46.2879033 L208.396345,42.5330983 L218.032599,42.5330983 L218.032599,54.9207178 L214.823212,54.9207178 L214.302071,52.3214864 M238.01237,52.3214864 C236.251496,54.5970277 233.941967,55.4612802 231.727927,55.4612802 C224.639114,55.4612802 220.463512,50.1689474 220.463512,43.555959 C220.463512,36.7600857 224.639114,31.4628975 231.727927,31.4628975 C236.406867,31.4628975 240.838184,34.3550684 241.38522,39.5486758 L236.575186,39.5486758 C235.989307,37.0190378 234.098956,35.6951453 231.727927,35.6951453 C227.205976,35.6951453 225.501748,39.5486758 225.501748,43.555959 C225.501748,47.3803573 227.205976,51.2274139 231.727927,51.2274139 C234.99396,51.2274139 236.890783,49.463303 237.178868,46.2879033 L232.108262,46.2879033 L232.108262,42.5330983 L241.733187,42.5330983 L241.733187,54.9207178 L238.528655,54.9207178 L238.01237,52.3214864 M250.846681,35.9233468 L256.368834,35.9233468 C258.610388,35.9233468 259.8307,36.8895617 259.8307,39.0987466 C259.8307,41.4115122 258.610388,42.3761086 256.368834,42.3761086 L250.846681,42.3761086 L250.846681,35.9233468 Z M245.811682,54.9207178 L250.846681,54.9207178 L250.846681,45.9642132 L255.881681,45.9642132 C258.417792,45.9642132 259.346783,47.0242982 259.701224,49.4293155 C259.956939,51.2630199 259.893819,53.4722047 260.503975,54.9207178 L265.538974,54.9207178 C264.640734,53.6340497 264.67634,50.9409482 264.574378,49.495672 C264.417388,47.1845248 263.708507,44.7762706 261.237133,44.1353642 L261.237133,44.0706262 C263.774863,43.0461471 264.862462,41.0279394 264.862462,38.3267457 C264.862462,34.8664987 262.268086,32.0115522 258.15884,32.0115522 L245.811682,32.0115522 L245.811682,54.9207178 L245.811682,54.9207178 Z M277.733998,37.6567072 L277.797118,37.6567072 L280.684433,46.0597018 L274.747957,46.0597018 L277.733998,37.6567072 Z M266.534321,54.9207178 L271.637295,54.9207178 L273.42892,49.8112698 L281.998615,49.8112698 L283.730357,54.9207178 L288.95957,54.9207178 L280.393112,32.0115522 L275.230255,32.0115522 L266.534321,54.9207178 L266.534321,54.9207178 Z M294.703451,35.9233468 L298.616864,35.9233468 C300.958761,35.9233468 303.048181,36.4380141 303.048181,39.3560802 C303.048181,42.2757647 300.958761,42.7888135 298.616864,42.7888135 L294.703451,42.7888135 L294.703451,35.9233468 Z M289.663596,54.9207178 L294.703451,54.9207178 L294.703451,46.7070819 L299.997402,46.7070819 C305.704058,46.7070819 307.922954,43.0801346 307.922954,39.3560802 C307.922954,35.6336442 305.704058,32.0115522 299.997402,32.0115522 L289.663596,32.0115522 L289.663596,54.9207178 L289.663596,54.9207178 Z M309.777698,32.0115522 L314.819171,32.0115522 L314.819171,40.8013564 L324.091273,40.8013564 L324.091273,32.0115522 L329.126272,32.0115522 L329.126272,54.9207178 L324.091273,54.9207178 L324.091273,45.0352227 L314.819171,45.0352227 L314.819171,54.9207178 L309.777698,54.9207178 L309.777698,32.0115522 M80.564658,28.3522358 C88.1195846,44.9947614 82.3093476,65.5943983 65.9403401,76.7730353 C49.5033577,87.9872782 28.1058248,85.8282653 15.3702385,72.5909594 C24.3930996,74.936094 40.9433735,69.3912829 56.0240944,58.1883692 C70.8021652,47.2136569 79.5741664,36.3166303 80.564658,28.3522358 Z M41.0162038,31.9014976 C57.8043899,21.4446894 73.7833508,17.6575155 77.7987263,23.5341089 C77.8828857,23.6603481 77.9249654,23.8092455 78.0010326,23.9451953 C77.9087809,23.6862433 77.7890156,23.4450942 77.6692503,23.2055635 C81.8917874,29.9091851 72.7880038,43.2533088 54.8361518,56.5861033 C36.0249027,70.5581857 16.6504328,74.3129906 11.8970439,68.3328164 L12.0187857,68.4788758 L12.0427045,68.5021467 C12.1724502,68.6263628 12.3093891,68.7445546 12.4522024,68.8577413 L12.6706632,69.0238947 C18.6896803,71.3577002 31.8719589,67.0898464 44.9668412,58.0815514 C60.3939106,47.4693721 69.8230027,34.3194625 66.0196442,28.705058 C63.0384585,24.3061098 52.7693907,25.8760067 41.0162038,31.9014976 Z M29.9217262,27.5268261 C48.6536713,13.6146264 67.9860614,9.89380885 72.9644149,15.7833499 C73.0404821,15.8966414 73.1327338,15.99213 73.205564,16.0989477 L73.1958533,16.1086584 C72.8802555,15.6732953 72.472406,15.305907 72.0192399,14.9773616 C65.9921305,12.6565037 52.8195626,16.9243574 39.7424833,25.9277971 C24.3137955,36.5415949 14.8814665,49.6947414 18.6767327,55.2961983 C21.6611553,59.7097126 31.9318416,58.1349603 43.6817916,52.1094694 C26.8984608,62.5630406 10.9194999,66.3534515 6.89926906,60.4736212 C6.82320189,60.3603296 6.78597753,60.2243798 6.72609486,60.1078514 C6.81349119,60.3668034 6.93325652,60.6128079 7.0578772,60.8604308 C2.91626259,54.1357693 12.0070986,40.8337254 29.9217262,27.5268261 Z M18.7657475,7.23955018 C35.2982185,-4.04590455 56.8559779,-1.79140313 69.5608137,11.6546829 C60.4311349,9.34677261 43.5798292,14.8980575 28.7289282,25.9277971 C13.9508575,36.9025093 5.17885627,47.7979175 4.18674617,55.7639305 C-3.43777373,39.0987466 2.35951565,18.439227 18.7657475,7.23955018 Z" id="siggraph-logo" fill="#1F2937"></path>
    </g>
</svg>