<svg viewBox="0 0 422 477" xmlns="http://www.w3.org/2000/svg" xmlns:xlink="http://www.w3.org/1999/xlink"><defs><path id="a" d="m0 0h422v477h-422z"/></defs><path d="m255.73548 462.878148c-37.621913 18.081964-61.458737 16.549772-77.414623 7.214945-15.51019-9.077712-23.737198-25.790148-29.914008-40.151823-21.666027 1.752576-42.79722-1.164885-55.4811786-16.282162-8.4157727-10.027461-13.2450106-25.527786-11.7768384-48.956679-20.5072194-5.530583-33.663091-20.658354-41.093091-38.126391-7.2517219-17.048259-8.9977982-36.305602-6.9213832-50.709255-13.449506-7.666207-22.2637826-22.269254-26.00237827-37.780074-3.72286521-15.43211-2.38053634-31.688037 4.03747357-42.743955-27.3551941-40.837637 1.122103-79.757934 25.6930134-97.2800174 6.4704446-4.6144162 12.6682286-7.7354701 17.4869795-9.079811 2.076415-.5808687 3.9483345-.8201425 5.552837-.7681949 7.7708257-39.9938811 52.109626-61.6848907 81.861087-66.1125055 8.022512-1.1947948 15.001574-1.1313033 19.961898.0671646 1.955815.4717262 3.623239 1.1349764 4.997029 1.9498716.298878-.4050864.63446-.8201425 1.01199-1.2414952 3.376796-3.7932244 10.156606-8.763403 19.196352-13.08554838 17.770127-8.49841772 44.291609-14.56631735 70.016083-4.7015203 16.64278 6.38273358 33.002413 19.42000738 46.388998 42.92603468 17.036041-4.5168177 31.534241 3.7302576 42.608454 16.7654325 9.978328 11.743831 17.135667 27.3601195 20.853289 40.2095423 2.065928 7.135187 3.041214 13.454954 2.952075 17.886241 11.792569 2.357057 21.943931 10.721671 28.73947 21.897751 10.403049 17.118571 12.83602 40.717999 1.594016 58.401173 23.40686 22.321727 24.927466 53.820863 19.673507 78.141786-3.334848 15.43211-9.448736 27.936265-14.251757 33.498332 8.961094 31.179055 6.617262 53.458804-.194008 69.347424-9.957354 23.208509-29.546966 32.989351-38.801694 36.903786-9.83151 56.113904-75.873042 70.176487-110.773592 41.809948z" xlink:href="#a"/></svg>