<svg height="331" viewBox="0 0 360 331" width="360" xmlns="http://www.w3.org/2000/svg" xmlns:xlink="http://www.w3.org/1999/xlink"><defs><path id="a" d="m0 0h360v331h-360z"/></defs><path d="m118.06232 26.4661719c4.247213-8.0649963 6.914043-13.0131366 9.011956-15.8938672 2.291397-3.14833947 4.350509-4.42341696 6.373965-4.90091511 1.476561-.34631735 3.036494-.27810332 4.862271.20464206 1.659035.44076753 3.69088 1.30656089 6.479359 2.24056827 4.852833 1.6161476 8.292027.33582288 11.162303-1.43249447 2.557242-1.57941697 4.778376-3.45792619 6.984829-4.72250922 2.702486-1.54793358 5.428567-2.31402952 8.391653-1.80504797 2.656343.45650922 5.677632 2.0044428 9.072256 5.72473063 5.374034 5.89264211 14.471983 11.27630261 25.674137 16.92757191 17.653197 8.8993063 40.404098 18.2393801 62.88601 30.1610923 34.55081 18.3180886 68.326636 42.7596974 83.069182 80.4610629 9.869788 25.239188 11.306499 56.470716-1.474464 95.903668-20.887371 64.430767-68.605589 89.83262-114.381101 97.971077-45.403749 8.070244-88.853257-1.007468-101.766356-5.47811-89.9124379-31.142325-149.6780575-112.873218-130.97983593-187.032355 22.79966553-90.4308042 100.29503693-106.1725016 114.63383593-108.3291141z" fill-rule="evenodd" xlink:href="#a"/></svg>