<svg viewBox="0 0 397 386" xmlns="http://www.w3.org/2000/svg" xmlns:xlink="http://www.w3.org/1999/xlink"><defs><path id="a" d="m0 0h397v386h-397z"/></defs><path d="m217.431376 18.5829155c5.122872 3.8881993 9.170833 8.4900222 13.528158 13.3122288 9.789562 10.8302878 21.262279 22.7572473 51.574792 29.499941 13.208306 2.9384502 20.030063 10.6046568 26.731221 19.8345387 9.459223 13.0288783 18.734925 29.27431 48.140317 38.168369 21.89674 6.622007 36.269097 27.673904 39.200198 48.515911 1.976789 14.052089-1.242703 27.96775-10.649492 37.381285-8.688433 8.694664-7.770826 18.465011-7.707904 29.851505.099626 18.286605-1.316112 40.639816-40.878109 69.24248-22.961164 16.602243-29.725243 26.325365-35.335758 34.038797-3.916874 5.378413-7.309401 9.807077-14.833783 14.80769-9.322894 6.196981-18.965639 8.13321-29.347714 9.891033-9.96784 1.684362-20.638306 3.221801-32.388927 8.647439-27.680289 12.782259-43.117071 20.637366-87.03115 8.909801-14.083966-3.757018-34.187438-.886782-52.4347215-3.379218-19.0390473-2.59738-36.1275229-10.777815-43.1013408-36.935269-3.6179958-13.57459-12.9094284-20.563904-20.5072195-28.083188-8.2217643-8.143705-14.64501767-16.812133-11.5775865-33.550805 5.4846719-29.872494-4.30489059-40.172812-9.77907549-62.080007-3.45544813-13.836952 2.32285815-23.39741 8.94536345-32.989351 6.10340154-8.825845 12.97235004-17.656937 12.41654194-30.612354-1.4314678-33.645255 10.5655964-46.222871 22.1536698-55.2271217 7.2150176-5.6092915 14.3880875-9.6234243 17.5551446-17.0587527 3.9745519-9.3400738 6.2397319-16.2979041 8.6359986-21.9176901 2.5168667-5.9031365 5.1910374-10.3895203 9.8996754-14.5925535 6.0981581-5.4308856 15.7304164-10.3947675 33.369457-17.3211144 6.643479-2.6131217 13.433775-8.1174686 21.15741-13.4066789 9.433006-6.4593432 20.187367-12.5986052 33.490056-13.43291516 13.265985-.83430996 29.127488 3.58385978 48.774778 18.48599996z" fill-rule="evenodd" xlink:href="#a"/></svg>