<svg viewBox="0 0 569 621" xmlns="http://www.w3.org/2000/svg" xmlns:xlink="http://www.w3.org/1999/xlink"><defs><path id="a" d="m0 0h569v621h-569z"/></defs><path d="m241.61984.73396562c19.382555 19.17408538 45.28387 45.92846288 49.292232 84.79779988 32.768299-25.7645312 70.410279-41.6481095 125.734868-23.9367246 38.287833 12.2570103 68.678997 38.4858261 91.897092 73.2172581 34.376203 51.416057 53.011503 121.557912 58.501419 191.849839 5.479428 70.171239-2.134094 140.468413-20.014334 192.321564-12.191072 35.350605-29.279548 62.184952-50.012237 75.129875-52.188278 32.585313-113.248511 31.614575-168.110959 18.302347-81.331497-19.734842-148.867418-66.498178-152.202266-68.50262-95.3147874-57.231565-151.602412-120.890989-145.1146639-210.791823 3.6672844-50.819447 32.2190388-83.478222 68.1336768-109.084716 3.8516711-2.745552 7.7887251-5.408755 11.7879241-8.004324-21.6976697-4.955956-44.7234142-1.984438-63.8414449 6.70301-20.8842252 9.486997-37.1510487 25.816384-41.68612776 46.238613-.26636839 1.196369-1.35124277 2.035926-2.5776909 1.990597-1.22644813-.049121-2.24368172-.967387-2.41724065-2.184745-5.15957657-36.142937 10.30919051-69.751986 35.62257661-96.880178 29.834832-31.974011 58.7767007-30.443393 81.4814596-29.470031-2.287203-2.443637-4.999127-5.737849-7.905059-9.895756-13.8155001-19.764751-32.8592666-59.5067647-32.3260054-118.361823.0078652-.8568731.4467438-1.6523535 1.1671969-2.1156842.7209774-.4633306 1.6260007-.5320693 2.4083267-.1831284 7.6423765 3.4120368 15.6777448 6.6849337 23.7544108 9.8945928l2.019823.8011412c1.010138.3999558 2.020464.7990223 3.03029 1.1973479l2.018783.7957069c.67257.2649356 1.344714.5295858 2.016229.7939945l2.012455.7925455c21.441711 8.4470284 42.030832 16.691749 55.0982 26.1734875 17.738667 12.8693623 25.997135 23.8381771 30.558956 33.0082406-.25693-21.1752067 5.332611-54.4898857 36.111793-84.6058517.991016-.96968856 2.574544-.96549078 3.560317.00944502z" fill-rule="evenodd" xlink:href="#a"/></svg>