<svg viewBox="0 0 100 100" xmlns="http://www.w3.org/2000/svg"><path d="m20.9387714 3.48979313c0-1.92702161 1.5595017-3.48979313 3.4897931-3.48979313h13.9591725c1.9302932 0 3.4897932 1.56277152 3.4897932 3.48979313v3.48979312h5.2346897c2.8899849 0 5.2346896 2.34361313 5.2346896 5.23468965v13.9591725l4.8420907 1.6140297c2.5300947.8397311 3.217153 4.0895996 1.2541444 5.8781213l-11.0146629 10.1094924c-1.7667058 1.0142232-3.7842424 1.6467468-5.5509515 1.6467468-2.137499 0-4.4494849-.8397328-6.4561186-2.2247424-2.3992328-1.6903686-5.6163859-1.6903686-8.0265232 0-1.8757635 1.2868599-4.1441294 2.2247424-6.456117 2.2247424-1.7667074 0-3.7842441-.6325236-5.5509515-1.657653l-11.01575118-10.0985862c-1.96191867-1.7885217-1.26941218-5.0383902 1.25414441-5.8781213l4.84317887-1.7121794v-13.9591725c0-2.79292682 2.3447048-5.23468972 5.2346897-5.23468972h5.2346897zm-3.4897931 20.36076147 11.7562393-3.9260156c1.4286347-.468943 2.9772317-.468943 4.4058664 0l11.7562393 3.9260156v-9.8913821h-27.918345zm24.4285519 25.0065492c2.9336067 0 6.0417037-1.1778039 8.4409364-2.8463632h.0109063c1.2977661-.9269763 3.053569-.8506358 4.2749979.1853966 1.5595 1.2977661 3.5443211 2.2901767 5.5182327 2.74821 1.8757652.4362242 3.0426661 2.3228956 2.6064419 4.1986574-.4362241 1.8757651-2.4101423 3.042666-4.1986573 2.6064419-2.6718729-.632527-4.8857124-1.8103308-6.3470626-2.7264009-3.162625 1.6903686-6.7069462 2.8136444-10.3057953 2.8136444-3.4788869 0-6.6087964-1.0796541-8.7681046-2.0611584-.6434299-.2835464-1.2105226-.577999-1.7012748-.8397328-.4907522.2617338-1.0578449.5561864-1.7012748.8397328-2.1593082.9815043-5.2892177 2.0611584-8.7681046 2.0611584-3.6969989 0-7.1431703-1.1232758-10.3057953-2.8136444-1.45917028.9160701-3.67627968 2.0938739-6.35033413 2.7264009-1.87685509.4362241-3.75338237-.7306768-4.19078467-2.6064419-.43744556-1.8757618.72956351-3.7624332 2.60620062-4.1986574 1.9739149-.4580333 3.95000972-1.4504439 5.51496449-2.74821 1.21597579-1.0360324 2.97614009-1.1123729 4.27390799-.1853966h.0109062c2.4101391 1.6685593 5.5073315 2.8463632 8.4409381 2.8463632 2.999041 0 5.998082-1.1559947 8.4518428-2.8463632 1.2105226-.861542 2.8245506-.861542 4.0350733 0 2.355611 1.6903685 5.4528017 2.8463632 8.4518427 2.8463632z" transform="translate(19 22)"/></svg>