<svg id="camera-icon" viewBox="0 0 75 75" xmlns="http://www.w3.org/2000/svg"><path d="m30.3046882 11.25h14.3906236c2.4257827 0 4.5703125 1.5492189 5.3320312 3.8460946l1.2187493 3.6539054h8.7539077c4.1367173 0 7.5 3.3632827 7.5 7.5v30c0 4.1367173-3.3632827 7.5-7.5 7.5h-45c-4.1425788 0-7.5-3.3632827-7.5-7.5v-30c0-4.1367173 3.3574212-7.5 7.5-7.5h8.7539059l1.2187511-3.6539054c.7617187-2.2968757 2.9062485-3.8460946 5.3320312-3.8460946zm7.1953118 41.25c6.2109375 0 11.25-5.0390625 11.25-11.25 0-6.3164055-5.0390625-11.25-11.25-11.25-6.3164055 0-11.25 4.9335945-11.25 11.25 0 6.2109375 4.9335945 11.25 11.25 11.25z"/></svg>