<svg viewBox="0 0 100 100" xmlns="http://www.w3.org/2000/svg"><path d="m4.31970796 17.9724349 3.83768214-10.96122147c1.46898493-4.19974898 5.4309909-7.01121343 9.8804774-7.01121343h19.760955c4.4494849 0 8.4082209 2.81146445 9.8804774 7.01121343l3.8387704 10.96122147c2.5301014 1.046937 4.3186197 3.5443212 4.3186197 6.456117v20.9387587c0 1.9302932-1.5595 3.4897932-3.4897931 3.4897932h-3.4897931c-1.9302932 0-3.4897932-1.5595-3.4897932-3.4897932v-5.2346897h-34.8979312v5.2346897c0 1.9302932-1.56277321 3.4897932-3.48979315 3.4897932h-3.48979312c-1.92701995 0-3.48979313-1.5595-3.48979313-3.4897932v-20.9387587c0-2.9117958 1.7841568-5.40918 4.31970962-6.456117zm7.57830444-.5234693h32.0406635l-2.8463632-8.13558086c-.4907521-1.39591592-1.8103275-2.33379849-3.2934902-2.33379849h-19.760955c-1.483161 0-2.8027397.93788257-3.2934919 2.33379849zm-1.4286347 6.9795863c-1.92701993 0-3.48979311 1.5594999-3.48979311 3.4897931s1.56277318 3.4897931 3.48979311 3.4897931c1.9302915 0 3.4897931-1.5594999 3.4897931-3.4897931s-1.5595016-3.4897931-3.4897931-3.4897931zm34.8979313 6.9795862c1.9302931 0 3.4897931-1.5594999 3.4897931-3.4897931s-1.5595-3.4897931-3.4897931-3.4897931c-1.9302932 0-3.4897932 1.5594999-3.4897932 3.4897931s1.5595 3.4897931 3.4897932 3.4897931z" transform="translate(22 25.6327)"/></svg>