<svg viewBox="0 0 100 100" xmlns="http://www.w3.org/2000/svg"><path d="m52.5977261 20.9387588c3.7297177 0 10.2185518 3.162625 10.2185518 6.9795862 0 3.9260173-6.4888341 6.9795863-10.2185518 6.9795863h-12.715931l-10.9601316 19.1829559c-.6216207 1.0796541-1.7776154 1.7558028-3.0317598 1.7558028h-6.1289488c-1.155993 0-1.9957258-1.1123729-1.6794623-2.2247425l5.3546504-18.7140162h-11.2218654l-4.71122038 6.2816282c-.3293497.4362242-.8462759.697958-1.39591925.697958h-4.57708193c-.84474829 0-1.53005604-.6870517-1.53005604-1.6249343 0-.0436217.01982565-.1853965.05886789-.3271681l3.43092523-12.0070701-3.43092523-12.0070701c-.03904224-.1417716-.05886789-.2835464-.05886789-.4253179 0-.8397328.68530775-1.5267845 1.53005604-1.5267845h4.57708193c.54964335 0 1.06656955.2617338 1.39591925.697958l4.71122038 6.2816283h11.2218654l-5.3546504-18.71401635c-.3162635-1.11564111.5234693-2.22474245 1.6794623-2.22474245h6.1289488c1.2541444 0 2.4101391.67102343 3.0317598 1.75798275l10.9601316 19.18077605z" transform="translate(19 22.1429)"/></svg>