<svg viewBox="0 0 100 100" xmlns="http://www.w3.org/2000/svg"><path d="m38.3877277 0c5.7799699 0 10.4693794 4.68722959 10.4693794 10.4693794v27.918345c0 5.1365399-3.8387738 9.5642156-8.8444451 10.349417l5.0165776 5.0165777c.7633922.7633922.218112 2.0829709-.9596918 2.0829709h-4.2313762c-.9269763 0-1.8212338-.3707899-2.47557-1.0251261l-5.9544601-5.9544601h-13.9591725l-5.9544602 5.9544601c-.6576078.6543362-1.54532385 1.0251261-2.47012023 1.0251261h-4.33061588c-1.08837877 0-1.63365895-1.3195787-.8637236-2.0829709l5.0187592-5.0165777c-5.01221611-.7852014-8.84880829-5.2128771-8.84880829-10.349417v-27.918345c0-5.78214981 4.68722793-10.4693794 10.4693794-10.4693794h27.918345zm-31.40814145 20.9387588c0 1.9302914 1.56277318 3.4897931 3.48979315 3.4897931h27.918345c1.9302931 0 3.4897931-1.5595017 3.4897931-3.4897931v-10.4693794c0-1.9270183-1.5595-3.48979315-3.4897931-3.48979315h-27.918345c-1.92701997 0-3.48979315 1.56277485-3.48979315 3.48979315zm17.44896565 20.9387587c2.8899849 0 5.2346897-2.3447048 5.2346897-5.2346897s-2.3447048-5.2346897-5.2346897-5.2346897c-2.889985 0-5.2346897 2.3447048-5.2346897 5.2346897s2.3447047 5.2346897 5.2346897 5.2346897z" transform="translate(26 22.1429)"/></svg>