<svg height="14" viewBox="0 0 75 75" width="14" xmlns="http://www.w3.org/2000/svg"><title>Utensils</title><path d="m36.9609384 22.1572284c.4541002 1.8456995.4687495 3.779295.0732422 5.6396484-.4101567 1.7431632-1.2451172 3.6181614-2.4169922 5.1123038-2.1240234 2.4169922-4.7753915 3.9550781-7.9833984 4.6875v31.9189444c0 1.5527353-.4833989 3.0468732-1.5820317 4.145506-1.0986329 1.0986328-2.5927753 1.713869-4.2773456 1.713869-1.420898 0-2.9121101-.6152362-4.0122092-1.713869-1.0986328-1.0986328-1.847168-2.5927707-1.847168-4.145506v-31.9189444c-2.9501952-.5859375-5.73339836-2.2265643-7.73437546-4.6435565-1.18798837-1.4941402-2.01723576-3.2373033-2.42358372-5.1123038-.40634796-1.8749982-.37888214-3.8085937.08027405-5.6689471l4.42485362-19.97314094c.12451261-.56426078.45410246-1.06245429.92431831-1.39892847.4687495-.3366217 1.0473624-.48774629 1.6215808-.42442381.5756848.06263852 1.1088878.33697486 1.4956065.76998174.3867187.43285936.5976565.99331141.5947262 1.57338828v21.09375h2.5444329l2.5034196-21.69287056c.0585929-.47973543.2900385-.92124045.6562494-1.24160349.3515639-.32021552.8203134-.49715191 1.1718773-.49715191.6152361 0 1.0839857.17693639 1.4355495.49715191.366211.32036304.4687496.76186806.6591797 1.24160349l2.5048837 21.69287056h2.4316415v-21.09375c0-.57568252.3369123-1.1326164.5859375-1.56489462.5126953-.43227374 1.0400377-.70942193 1.6113282-.7784754.5712881-.06281286 1.0253906.0902921 1.6259752.42969882.4687495.33940226.7910169.84096641.922852 1.40829832l4.4091806 19.94385128zm33.1640661 47.3583966c0 1.5527353-.6152362 3.0468732-1.713869 4.145506s-2.5927708 1.713869-4.145506 1.713869c-1.5527353 0-3.0468732-.6152362-4.1455061-1.713869-1.0986328-1.0986328-1.7138689-2.5927707-1.7138689-4.145506v-17.578125h-2.4609357c-1.2304724 0-2.4609402-.2490252-3.6035166-.7177725-1.1279314-.4834012-2.1679714-1.171875-3.0468776-2.0507813-.864257-.8789062-1.5527308-1.9189462-2.1533177-3.0615225-.3369167-1.1425808-.5712881-2.3730487-.5712881-3.6035166l-.0146494-16.6699245c.1318351-5.4052726 1.7578125-10.6933594 4.7900364-15.1640609 3.0322284-4.47802842 7.3242188-7.94384927 12.3486355-9.95229632.5859375-.283885 1.4794931-.38952827 2.2412092-.3076002.7617205.08189678 1.4941424.34876317 2.1240234.7773757.6298855.42861253 1.1572257 1.00547075 1.5087917 1.68222785.366211.67529529.4248038 1.42822265.5566389 2.19287127z" fill="#1f2937"/></svg>