<svg viewBox="0 0 424 464" xmlns="http://www.w3.org/2000/svg"><path d="m424.000929 204v71.2h-108.400929l-2 27.6h14.4c39.2 0 68.066667 8.2 86.6 24.6 3.455842 3.058047 6.589485 6.294579 9.400929 9.709595v126.890405h-219.448929l31.448-68.4c11.733333 6.666667 24.066667 11.733333 37 15.2s25.533333 5.2 37.8 5.2c10.933333 0 19.8-1.933333 26.6-5.8s10.2-9.266667 10.2-16.2c0-6.666667-3.066667-11.666667-9.2-15-6.035979-3.280423-16.84992-4.94667-32.441824-4.99874l-81.958176-.00126 14-170zm-261.200929-202.4c17.066667 7.2 30.4 17.4666667 40 30.8s14.4 28.6666667 14.4 46c0 15.4666667-3.266667 29.933333-9.8 43.4s-19.266667 28.733333-38.2 45.8l-40 36.4h100.4l-6 73.2h-223.6v-58.740883l100.4-92.859117 1.107469-1.0488c8.18651-7.817112 13.68402-14.534179 16.492531-20.1512 2.933333-5.8666667 4.4-11.6 4.4-17.2 0-6.9333333-2.333333-12.3333333-7-16.2s-11.4-5.8-20.2-5.8c-8.5333333 0-16.5333333 2.2666667-24 6.8s-13.2 10.9333333-17.2 19.2l-54-27.0008828v-64.20076114h158.806032c1.346391.51246797 2.677714 1.04634928 3.993968 1.60164394z" fill-rule="evenodd"/></svg>