<svg viewBox="0 0 75 75" xmlns="http://www.w3.org/2000/svg"><path d="m43.0859368 21.2578118c-3.0703104-3.1324232-7.4882806-6.3632798-12.8554684-6.3632798-9.503907 0-22.23047019 10.7695305-22.23047019 31.1250007 0 16.4882791 3.97265729 21.4804673 21.48046909 21.4804673 20.4140622 0 31.0195309-12.8085923 31.0195309-22.2304702 0-5.3683591-3.1253922-9.7816407-6.2578118-12.8554684l-11.1562514-11.1562496zm-7.6054698 9.6796882c.5390632 0 1.5820312.3281254 1.5820312 1.5820312 0 1.875-2.1914059 4.0429688-4.0429687 4.0429688-1.2539059 0-1.5820313-1.042968-1.5820313-1.5820312 0-1.875 2.1914059-4.0429688 4.0429688-4.0429688zm-7.5-7.5c.5390632 0 1.5820312.3281236 1.5820312 1.5820312 0 1.875-2.1914059 4.0429688-4.0429687 4.0429688-1.2539059 0-1.5820313-1.042968-1.5820313-1.5820312 0-1.875 2.1914059-4.0429688 4.0429688-4.0429688zm-3.75 11.25c.5390632 0 1.5820312.3281254 1.5820312 1.5820312 0 1.875-2.1914059 4.0429688-4.0429687 4.0429688-1.2539059 0-1.5820313-1.042968-1.5820313-1.5820312 0-1.875 2.1914059-4.0429688 4.0429688-4.0429688zm-6.215626 16.875c-1.2492192 0-1.5773446-1.042968-1.5773446-1.5820312 0-1.875 2.185548-4.0429688 4.0429706-4.0429688.5390632 0 1.582033.3281236 1.582033 1.5820312 0 1.875-2.1914059 4.0429688-4.0476573 4.0429688zm7.5046902 7.5c-1.2539058 0-1.5820312-1.042968-1.5820312-1.5820312 0-1.875 2.1914059-4.0429688 4.0429688-4.0429688.5390632 0 1.5820312.3281236 1.5820312 1.5820312 0 1.875-2.1914059 4.0429688-4.0429688 4.0429688zm3.75-11.25c-1.2539058 0-1.5820312-1.042968-1.5820312-1.5820312 0-1.875 2.1914059-4.0429688 4.0429688-4.0429688.5390632 0 1.5820312.3281236 1.5820312 1.5820312 0 1.875-2.1914059 4.0429688-4.0429688 4.0429688zm7.5 7.5c-1.2539058 0-1.5820312-1.042968-1.5820312-1.5820312 0-1.875 2.1914059-4.0429688 4.0429688-4.0429688.5390632 0 1.5820312.3281236 1.5820312 1.5820312 0 1.875-2.1914077 4.0429688-4.0429688 4.0429688zm3.75-11.25c-1.2539076 0-1.5820312-1.042968-1.5820312-1.5820312 0-1.875 2.1914077-4.0429688 4.0429688-4.0429688.5390632 0 1.5820312.3281236 1.5820312 1.5820312 0 1.875-2.1914077 4.0429688-4.0429688 4.0429688zm7.5 7.5c-1.2539076 0-1.5820312-1.042968-1.5820312-1.5820312 0-1.875 2.1914077-4.0429688 4.0429688-4.0429688.5390632 0 1.5820312.3281236 1.5820312 1.5820312 0 1.875-2.1914077 4.0429688-4.0429688 4.0429688zm12.4101556-31.300782c3.0632794-3.2378876 5.6999981-7.5808596 5.6999981-9.946872 0-1.5644538-1.2761736-2.81836148-2.8253889-2.81836148-3.8039052 0-1.9628906 5.18085838-7.8082037 9.67265728-.1992166-4.6019554-3.7148416-9.6691418-5.2734375-9.6691418-1.4648437 0-4.7226548 4.4988298-4.7226548 9.1828108 0 1.0905504.0963986 1.2832045.1645303 1.8503916.0324976.0329661.0666082.0601995.0991058.0933874l11.129297 11.13047c.0274694.0270116.050354.055393.077591.0823939.5529141.0667977.7169759.1605463 1.8302571.1605463 4.4062508 0 9.1992188-3.175782 9.1992188-4.7343743 0-1.3828146-4.089843-4.2421889-7.5703132-5.0039077z"/></svg>