<svg height="75" viewBox="0 0 75 75" width="75" xmlns="http://www.w3.org/2000/svg"><path d="m29.0625036 7.5c3.621093 0 6.5625 2.9378915 6.5625 6.5625v46.875c0 3.621093-2.941407 6.5625-6.5625 6.5625-3.3867181 0-6.1757809-2.5664055-6.5273434-5.8710945-.6093764.1640618-1.2539077.2460945-1.9101584.2460945-4.1425789 0-7.5000018-3.3632827-7.5000018-7.5 0-.8671868.1488286-1.7109382.4207045-2.4843764-3.5343754-1.3359368-6.0457045-4.7578097-6.0457045-8.7656236 0-3.7382805 2.19257891-6.9726562 5.3636724-8.4726566-1.0101557-1.277343-1.6136724-2.9999989-1.6136724-4.6523434 0-3.5976577 2.5300777-6.5976548 5.9074223-7.3359382-.1839852-.6445313-.2824223-1.3359368-.2824223-2.0390618 0-3.508594 2.4140632-6.4546895 5.6601584-7.273829.3515625-3.289454 3.1406254-5.851171 6.5273434-5.851171zm23.4023434 5.851171c3.2460916.8191395 5.6601548 3.765235 5.6601548 7.273829 0 .703125-.0937486 1.3945305-.2812493 2.0390618 3.3749986.7382834 5.9062493 3.7382805 5.9062493 7.3359382 0 1.6523445-.597657 3.3750004-1.6171861 4.6523434 3.1757784 1.5000004 5.3671861 4.7343761 5.3671861 8.4726566 0 4.0078139-2.5078118 7.4296868-6.0468757 8.7656236.2695334.7734382.4218757 1.6171896.4218757 2.4843764 0 4.1367173-3.3632827 7.5-7.5 7.5-.6562507 0-1.300782-.0820327-1.9101548-.2460945-.3515625 3.304689-3.1406272 5.8710945-6.5273452 5.8710945-3.621093 0-6.5625-2.941407-6.5625-6.5625v-46.875c0-3.6246085 2.941407-6.5625 6.5625-6.5625 3.386718 0 6.1757827 2.561717 6.5273452 5.851171z"/></svg>