<svg viewBox="0 0 75 75" xmlns="http://www.w3.org/2000/svg"><path d="m43.125 34.25h-39.48046803c-1.96523488 0-3.64453197 1.6757798-3.64453197 3.644532 0 1.9687521 1.67929709 3.855468 3.64453197 3.855468h3.75l.10546803 13.125c0 3.1054688 2.5183618 5.625 5.6250036 5.625h30c3.1066417 0 5.625-2.5183582 5.625-5.625v-15c0-3.1054688-2.5195313-5.625-5.625-5.625zm-1.8749964-33.75c-5.6953132 0-10.570314 3.20859432-13.125 7.88085938-2.5429684-4.67226506-7.4296868-7.88085938-13.125-7.88085938-8.29101565 0-15.00000002 6.70898438-15.00000002 15 0 8.2910156 6.70664012 14.894532 14.89453022 14.894532l26.355468.105468c8.2910156 0 15-6.7089844 15-15 0-8.29101562-6.7031264-15-15-15zm-26.2500018 22.5c-4.1460943 0-7.50000001-3.3539057-7.50000001-7.5s3.35390751-7.5 7.50000001-7.5c4.1460961 0 7.5 3.3539057 7.5 7.5s-3.3515614 7.5-7.5 7.5zm26.2500018 0c-4.1460943 0-7.5-3.3539057-7.5-7.5s3.3539057-7.5 7.5-7.5 7.5 3.3539057 7.5 7.5-3.3515632 7.5-7.5 7.5zm20.25 8.2617188-9 6.7382812v15l8.9953136 6.7429698c2.4773455 1.8585956 6.0046864.08906 6.0046864-3.0046893v-22.4882805c0-3.0820298-3.5273409-4.8515618-6-2.9882812z" transform="translate(4 7)"/></svg>