<svg viewBox="0 0 75 75" xmlns="http://www.w3.org/2000/svg"><path d="m7.5 29.871093v-.679686c0-8.1914056 5.920313-15.1781237 13.9921886-16.5234375 5.2382827-.8894527 10.78125.8519518 14.6015632 4.678123l1.4062482 1.4039075 1.3007838-1.4039075c3.9257812-3.8261712 9.3632805-5.5675757 14.7070312-4.678123 8.074218 1.3453138 13.992185 8.3320319 13.992185 16.5234375v.679686c0 4.8632813-2.0156246 9.5156265-5.5781239 12.8320313l-21.1757791 19.7695327c-.8789063.8203125-2.0390654 1.277343-3.246097 1.277343-1.2070298 0-2.3671854-.4570305-3.2460916-1.277343l-21.1769539-19.7695327c-3.55781259-3.3164048-5.5769545-7.96875-5.5769545-12.8320313z"/></svg>