<svg height="75" viewBox="0 0 75 75" width="75" xmlns="http://www.w3.org/2000/svg"><path d="m61.7695427 11.25h-48.75c-3.001172 0-5.5195427 2.5183582-5.5195427 5.625v41.25c0 3.1066418 2.51836 5.625 5.519532 5.625h48.75c3.1066417 0 5.625-2.5183582 5.625-5.625v-41.25c0-3.1066418-2.4140525-5.625-5.6249893-5.625zm-41.25 44.0625c0 .5177343-.4197657.9375-.9375.9375h-5.625c-.5177343 0-.9375-.4197657-.9375-.9375v-5.625c0-.5177343.4197657-.9375.9375-.9375h5.519532c.5177342 0 .9375.4197657.9375.9375zm.0000018-15c0 .5177343-.4197657.9375-.9375.9375h-5.625c-.5177343 0-.9375-.4197657-.9375-.9375v-5.625c0-.5177343.4197657-.9375.9375-.9375h5.5195319c.5177343 0 .9375.4197657.9375.9375v5.625zm.0000018-15c0 .5177343-.4197657.9375-.9375.9375h-5.625c-.5177343 0-.9375-.4197657-.9375-.9375v-5.625c0-.5177343.4197657-.9375.9375-.9375h5.5195319c.5177343 0 .9375.4197657.9375.9375zm28.1250018 29.0625c0 1.0354686-.8395315 1.875-1.875 1.875h-18.75c-1.0354686 0-1.875-.8395314-1.875-1.875v-11.25c0-1.0357046.8395314-1.875 1.875-1.875h18.75c1.0354685 0 1.875.8392954 1.875 1.875zm0-22.5c0 1.0354686-.8395315 1.875-1.875 1.875h-18.75c-1.0354686 0-1.875-.8395314-1.875-1.875v-11.25c0-1.0357046.8395314-1.875 1.875-1.875h18.75c1.0354685 0 1.875.8392954 1.875 1.875zm13.125 23.4375c0 .5177343-.4197658.9375-.9375.9375h-5.519532c-.5177343 0-.832032-.4197657-.832032-.9375v-5.625c0-.5177343.4197657-.9375.9375-.9375h5.519532c.5177343 0 .9375.4197657.9375.9375v5.625zm0-15c0 .5177343-.4197658.9375-.9375.9375h-5.519532c-.5177343 0-.9375-.4197657-.9375-.9375v-5.625c0-.5177343.4197657-.9375.9375-.9375h5.519532c.5177342 0 .9375.4197657.9375.9375zm0-15c0 .5177343-.4197658.9375-.9375.9375h-5.519532c-.5177343 0-.9375-.4197657-.9375-.9375v-5.625c0-.5177343.4197657-.9375.832032-.9375h5.5195319c.5177343 0 .9375.4197657.9375.9375v5.625z"/></svg>