<svg height="75" viewBox="0 0 75 75" width="75" xmlns="http://www.w3.org/2000/svg"><path d="m66.894532 50.519532c0 5.1773429-5.0367201 9.375-11.144532 9.375s-11.144532-4.1976571-11.144532-9.269532c0-5.1773429 5.0367201-9.269532 11.144532-9.269532 1.3218749 0 2.5722671.2250016 3.751173.5739856v-17.0739841l-30.0011748 8.8945305-.0002682 24.3867195c-.105198 5.1679694-5.0387925 9.3632805-11.3551998 9.3632805s-11.14453199-4.1953111-11.14453199-9.375c0-5.1773429 5.03671829-9.269532 11.14453019-9.269532 1.3218748 0 2.572267.2250016 3.7500018.5739856v-27.1052348c0-1.5199221 1.1789077-3.1207037 2.6261723-3.5765648l37.3945284-11.07304577c.4089868-.09708881 1.0183596-.17460823 1.3347673-.17460823 2.0695317 0 3.7464845 1.68046832 3.75 3.748827l-.105468 39.270705z"/></svg>