<svg height="75" viewBox="0 0 75 75" width="75" xmlns="http://www.w3.org/2000/svg"><path d="m60.5195316 30c4.0078139 0 10.9804684 3.3984375 10.9804684 7.5 0 4.21875-6.9726545 7.5-10.9804684 7.5h-13.6640596l-11.7773438 20.6132805c-.6679702 1.1601556-1.9101584 1.8867195-3.2578146 1.8867195h-6.5859372c-1.2421864 0-2.1445316-1.1953139-1.8046868-2.3906243l5.7539052-20.1093757h-12.058593l-5.0624997 6.7500007c-.3539067.46875-.9093761.7499993-1.5000021.7499993h-4.91835952c-.90773463 0-1.64414048-.7382798-1.64414048-1.746093 0-.0468743.02130389-.1992202.06325722-.3515625l3.68674278-12.9023445-3.68674278-12.9023445c-.04195333-.1523423-.06325722-.3046882-.06325722-.4570305 0-.9023452.73640585-1.640625 1.64414048-1.640625h4.91835952c.590626 0 1.1460954.2812493 1.5000021.7499993l5.0624997 6.7500007h12.058593l-5.7539052-20.10937572c-.3398448-1.19882583.5625004-2.39062428 1.8046868-2.39062428h6.5859372c1.3476562 0 2.5898444.72105646 3.2578146 1.88906193l11.7773438 20.61093807z"/></svg>