<svg viewBox="0 0 75 75" xmlns="http://www.w3.org/2000/svg"><path d="m23.7499986 67.894532h27.000001c1.9113279 0 3.5343755-1.4367199 3.7453115-3.3363283l3.3796871-30.4136717h-41.25l3.3796871 30.4101562c.2109378 2.003907 1.8339854 3.3398438 3.7453151 3.3398438zm36.9375032-43.125h-34.7578132c.7470703-3.6187506 3.6035156-6.4746094 7.3535156-7.160157 1.0136729 1.0101557 2.4199229 1.535157 3.9667976 1.535157l7.2890639.0000107c2.7199209 0 5.2148438-1.8386722 5.7292986-4.5093763.587107-3.4886813-2.0496118-6.6351664-5.5183625-6.6351664h-7.5c-2.578125 0-4.7460938 1.7578125-5.40586 4.1308594-6.09375 1.3617182-10.7519531 6.4453125-11.5429687 12.7499985l-6.5941411-.1113259c-1.4472664 0-2.707032 1.3593757-2.707032 2.8125 0 1.5527343 1.2597656 2.8125 2.707032 2.8125h46.875c1.5527343 0 2.8125-1.2597657 2.8125-2.8125.105468-1.4531243-1.1484397-2.8125-2.707032-2.8125z"/></svg>