<svg viewBox="0 0 75 75" xmlns="http://www.w3.org/2000/svg"><path d="m43.125 11.25c3.1054688 0 5.625 2.5230467 5.625 5.625 0 1.0359371.8437514 1.875 1.875 1.875s1.875-.8390629 1.875-1.875c0-5.1691389-4.2070305-9.375-9.375-9.375-1.0312486 0-1.875.83859444-1.875 1.875 0 1.0364056.8437514 1.875 1.875 1.875zm-26.25 45c-3.1019533 0-5.625-2.5195312-5.625-5.625 0-1.0312486-.8390629-1.875-1.875-1.875-1.03593707 0-1.875.8437514-1.875 1.875 0 5.1679695 4.2046881 9.375 9.375 9.375 1.0359371 0 1.875-.8437514 1.875-1.875s-.8390629-1.875-1.875-1.875zm45.9375-37.5c-2.5898445 0-4.582032 2.0976555-4.582032 4.582032v9.585936l-23.2617187-23.15625068c-.7265622-.73242188-1.7929673-1.09839678-2.6484364-1.09839678-2.1445317 0-3.644532 1.75312396-3.644532 3.64453196 0 .9597659.3660929 1.9195283 1.0982805 2.6519501l14.5898438 14.5898438c.3659749.3660965.5490231.8459776.5490231 1.3253921 0 1.0729694-.8767962 1.769532-1.7695319 1.769532-.479883 0-.9597659-.1830465-1.3253904-.5491412l-17.4547255-17.0309776c-.7265621-.7324219-1.6874993-1.0980463-2.6484364-1.0980463-2.0027339 0-3.644532 1.6125011-3.644532 3.75 0 .9597659.3660948 1.9195318 1.0982824 2.6519537l17.1243739 17.2371089c.3660929.366093.5491412.8459759.5491412 1.3253904 0 1.0725009-.876562 1.7695319-1.769532 1.7695319-.479883 0-.9596479-.1830482-1.3253903-.5491411l-14.6866411-14.4754672c-.7324219-.7382834-1.6921878-1.1015618-2.6519537-1.1015618-2.1457029 0-3.75 1.7542934-3.75 3.6445284 0 .9597659.3660947 1.9195336 1.0982823 2.6519555l14.5898437 14.5898419c.366093.3660929.5491412.8459759.5491412 1.3253904 0 1.0013687-.8058983 1.7695319-1.7695319 1.7695319-.479883 0-.9596479-.1830482-1.3253904-.5490231l-9.3911719-9.0767563c-.7324219-.8320319-1.6921878-1.1015653-2.6519537-1.1015653-2.002734 0-3.75 1.6125011-3.75 3.75 0 .9597659.3660947 1.9195318 1.0982823 2.6519537l17.238282 17.2382819c4.0207028 4.0207029 9.3023443 6.0316408 14.5898437 6.0316408 5.2874995 0 10.563283-2.0109379 14.5898438-6.0316408l3.1253922-3.1253922c4.4130456-4.4249975 6.8505442-10.3078115 6.8505442-16.5656232v-18.4453118c0-2.4843765-2.0976555-4.582032-4.6875-4.582032z"/></svg>