<svg viewBox="0 0 75 75" xmlns="http://www.w3.org/2000/svg"><path d="m7.5 18.75c0-4.1425788 3.3574212-7.5 7.5-7.5h45c4.1367173 0 7.5 3.3574212 7.5 7.5v37.5c0 4.1367173-3.3632827 7.5-7.5 7.5h-45c-4.1425788 0-7.5-3.3632827-7.5-7.5zm11.25 7.5c2.0742184 0 3.75-1.6757798 3.75-3.75s-1.6757816-3.75-3.75-3.75c-2.0707029 0-3.75 1.6757798-3.75 3.75s1.6792971 3.75 3.75 3.75zm41.25-3.75c0-1.5585923-1.2539077-2.8125-2.8125-2.8125h-28.125c-1.5585941 0-2.8125 1.2539077-2.8125 2.8125s1.2539059 2.8125 2.8125 2.8125h28.125c1.5585923 0 2.8125-1.2539077 2.8125-2.8125z"/></svg>