<svg viewBox="0 0 63 63" xmlns="http://www.w3.org/2000/svg"><path d="m50.5038605 0h-45.36731059c-2.79292513 0-5.13654991 2.34361313-5.13654991 5.23468969v38.38772441c0 2.8910765 2.34361479 5.2346896 5.13653992 5.2346896h45.36731058c2.8910766 0 5.2346897-2.3436131 5.2346897-5.2346896v-38.38772441c0-2.89107656-2.246545-5.23468969-5.2346797-5.23468969zm-38.3877227 41.0050692c0 .4818095-.3906404.8724483-.8724499.8724483h-5.23468971c-.48180949 0-.87244828-.3906388-.87244828-.8724483v-5.2346897c0-.4818095.39063879-.8724483.87244828-.8724483h5.13653991c.4818095 0 .8724483.3906388.8724483.8724483zm0-13.9591725c0 .4818095-.3906388.8724483-.8724483.8724483h-5.23468965c-.48180948 0-.87244828-.3906388-.87244828-.8724483v-5.2346897c0-.4818095.3906388-.8724483.87244828-.8724483h5.13653995c.4818095 0 .8724483.3906388.8724483.8724483v5.2346897zm.0000033-13.9591725c0 .4818095-.3906404.8724483-.8724499.8724483h-5.23468968c-.48180949 0-.87244829-.3906388-.87244829-.8724483v-5.23468967c0-.48180948.3906388-.87244828.87244829-.87244828h5.13653988c.4818095 0 .8724483.3906388.8724483.87244828zm26.1734485 27.0458967c0 .963619-.7812776 1.7448966-1.7448966 1.7448966h-17.4489656c-.963619 0-1.7448966-.7812776-1.7448966-1.7448966v-10.4693793c0-.9638387.7812776-1.7448966 1.7448966-1.7448966h17.4489656c.963619 0 1.7448966.7810579 1.7448966 1.7448966zm0-20.9387587c0 .963619-.7812776 1.7448965-1.7448966 1.7448965h-17.4489656c-.963619 0-1.7448966-.7812775-1.7448966-1.7448965v-10.46937939c0-.96383862.7812776-1.74489656 1.7448966-1.74489656h17.4489656c.963619 0 1.7448966.78105794 1.7448966 1.74489656zm12.2142759 21.811207c0 .4818095-.3906388.8724483-.8724483.8724483h-5.1365399c-.4818095 0-.7742985-.3906388-.7742985-.8724483v-5.2346897c0-.4818095.3906388-.8724483.8724483-.8724483h5.1365399c.4818095 0 .8724483.3906388.8724483.8724483v5.2346897zm0-13.9591725c0 .4818095-.3906388.8724483-.8724483.8724483h-5.1365399c-.4818095 0-.8724483-.3906388-.8724483-.8724483v-5.2346897c0-.4818095.3906388-.8724483.8724483-.8724483h5.1365399c.4818095 0 .8724483.3906388.8724483.8724483zm0-13.9591725c0 .4818095-.3906388.8724483-.8724483.8724483h-5.1365399c-.4818095 0-.8724483-.3906388-.8724483-.8724483v-5.23468967c0-.48180948.3906388-.87244828.7742986-.87244828h5.1365399c.4818095 0 .8724483.3906388.8724483.87244828v5.23468967z" transform="translate(4 7)"/></svg>