<svg viewBox="0 0 63 63" xmlns="http://www.w3.org/2000/svg"><path d="m2.875 0c1.5875389 0 2.875 1.28746247 2.875 2.875v28.75c0 1.5902355-1.2874611 2.875-2.875 2.875s-2.875-1.2847645-2.875-2.875v-28.75c0-1.58753753 1.2874611-2.875 2.875-2.875zm19.2804693 6.5945307c1.1230469 1.12304688 1.1230469 2.93789172 0 4.0609386l-3.7105472 3.7195307h20.6101571l-3.7105485-3.7195307c-1.1230469-1.12304688-1.1230469-2.93789172 0-4.0609386 1.1230469-1.12304687 2.9378917-1.12304687 4.0609386 0l8.6249973 8.625c1.1230468 1.1230469 1.1230468 2.9378917 0 4.0609386l-8.6249973 8.625c-1.1230469 1.1230469-2.9378917 1.1230469-4.0609386 0s-1.1230469-2.9378917 0-4.0609386l3.7105485-3.7195307h-20.6101571l3.7105472 3.7195307c1.1230469 1.1230469 1.1230469 2.9378917 0 4.0609386s-2.9378917 1.1230469-4.0609386 0l-8.625-8.625c-1.12484413-1.1230469-1.12484413-2.9378917 0-4.0609386l8.625-8.625c1.1230469-1.12304687 2.9378917-1.12304687 4.0609386 0zm35.3445307 25.0304693c0 1.5902355-1.2847645 2.875-2.875 2.875s-2.875-1.2847645-2.875-2.875v-28.75c0-1.58753753 1.2847645-2.875 2.875-2.875s2.875 1.28746247 2.875 2.875z" transform="translate(3 14.5)"/></svg>