<svg viewBox="0 0 63 63" xmlns="http://www.w3.org/2000/svg"><path d="m31.918345 4.14289625c15.4205227 0 27.918345 12.49782225 27.918345 27.91834505 0 15.4205227-12.4978223 27.9183449-27.918345 27.9183449-5.921743 0-11.4290728-1.8539525-15.9548983-5.0056713-1.5813125-1.1996164-1.9695517-3.2825873-.861542-4.8638998 1.1014666-1.5813125 3.2716827-1.9630087 4.8529952-.861542 3.3916417 2.3665139 7.5139602 3.7515269 11.9634468 3.7515269 11.5599397 0 20.9387587-9.378819 20.9387587-20.9387587 0-11.6580895-9.378819-20.9387588-20.9387587-20.9387588-5.8781197 0-11.0146596 2.3403416-14.8098099 6.1289505l3.3589262 3.3589246c1.6467468 1.6467468.4798459 4.4712974-1.8430464 4.4712974h-12.00707009c-1.44499247 0-2.61734485-1.1669009-2.61734485-2.6173448v-12.002707c0-2.33161857 2.81909918-3.49960778 4.4680259-1.85068106l3.70899684 3.70899686c5.0514763-5.04820484 12.0310626-8.17702275 19.6431742-8.17702275h.0981497zm.0000033 13.95917245c1.450444 0 2.6173449 1.166901 2.6173449 2.6173449v10.2621736l6.9904925 7.077736c1.1123696 1.025126 1.1123696 2.6827791 0 3.6097554-.9269763 1.1123696-2.5846294 1.1123696-3.6097554 0l-7.8520346-7.8520345c-.4907521-.3926024-.7633922-1.0578449-.7633922-1.7558029v-11.3418276c0-1.4504439 1.1668992-2.6173449 2.6173448-2.6173449z"/></svg>