<?xml version="1.0" encoding="UTF-8"?>
<svg width="73px" height="40px" viewBox="0 0 73 40" version="1.1" xmlns="http://www.w3.org/2000/svg" xmlns:xlink="http://www.w3.org/1999/xlink">
    <title>popcornbucket</title>
    <g id="popcornbucket" stroke="none" stroke-width="1" fill="none" fill-rule="evenodd">
        <g id="Group-23-Copy-4" transform="translate(-0, 0)">
            <path d="M48.5006689,22.3702692 C47.8731258,22.647565 47.4612842,23.2551909 47.440318,23.9346594 C47.4192875,24.6140262 47.7928022,25.2459476 48.4019698,25.5614268 C48.5271305,25.6262763 48.6522913,25.6911258 48.777452,25.7559753 C49.3086258,26.0310636 49.6658769,26.5502036 49.7298017,27.1395785 C49.7448236,27.2784709 49.7598455,27.4173633 49.7748867,27.556173 C49.8481318,28.2321767 50.3055808,28.8075851 50.9526214,29.0377285 C51.5997456,29.267891 52.3226257,29.1123058 52.8140545,28.6372506 C52.9149856,28.5395863 53.0158974,28.4420047 53.1169121,28.3443595 C53.5452694,27.9300637 54.1548274,27.7548456 54.7414049,27.8773483 C54.8796385,27.9061602 55.0178528,27.9350549 55.1560864,27.9638668 C55.8287985,28.1043171 56.5233924,27.8523667 56.9442735,27.3151897 C57.3652382,26.7780319 57.4385071,26.0499769 57.1329949,25.4408308 C57.0702688,25.315686 57.007459,25.1905221 56.9447328,25.0653774 C56.6783254,24.5341627 56.6977218,23.9067765 56.9963795,23.3930558 C57.0668036,23.2720407 57.1371441,23.1510066 57.2075875,23.0299089 C57.5500922,22.4407549 57.5219476,21.7096401 57.134989,21.1474708 C56.7480303,20.5853014 56.0704081,20.2909349 55.3902408,20.3895567 C55.2505267,20.4097986 55.1107934,20.4301232 54.9709957,20.450346 C54.3780169,20.5363189 53.7804324,20.32384 53.3784665,19.883855 C53.2837584,19.7802332 53.1889858,19.6765096 53.0942777,19.5728878 C52.6331724,19.0683364 51.9212829,18.8684056 51.2612024,19.0581209 C50.6011863,19.247938 50.1090612,19.7940041 49.994228,20.4641237 C49.9705764,20.6018413 49.9470277,20.7394954 49.923376,20.877213 C49.8232697,21.4614968 49.4345458,21.9575036 48.8874353,22.1993509 C48.7585475,22.2563025 48.6295567,22.3133176 48.5006689,22.3702692" id="Fill-11-Copy-2" fill="#F4F8C7"></path>
            <path d="M56.0392317,28.4453749 C55.7000192,28.5952645 55.4774021,28.9237109 55.466069,29.2909912 C55.4547012,29.6582165 55.656601,29.9997956 55.9858808,30.1703249 C56.0535352,30.2053787 56.1211897,30.2404325 56.1888442,30.2754863 C56.4759651,30.4241827 56.6690738,30.7047989 56.7036278,31.0233799 C56.7117477,31.0984569 56.7198677,31.1735339 56.727998,31.2485661 C56.76759,31.6139736 57.0148597,31.9250051 57.3646114,32.049407 C57.7144083,32.1738191 58.1051542,32.089719 58.3707915,31.8329324 C58.4253488,31.7801409 58.4798957,31.7273941 58.5344983,31.6746129 C58.7660428,31.4506692 59.0955336,31.3559567 59.4126025,31.4221744 C59.4873233,31.4377484 59.5620338,31.4533671 59.6367547,31.4689411 C60.0003828,31.5448603 60.375839,31.4086708 60.6033423,31.1183049 C60.8308907,30.8279493 60.8704956,30.4344061 60.7053538,30.1051379 C60.6714478,30.0374921 60.6374966,29.9698359 60.6035905,29.9021901 C60.4595866,29.6150471 60.4700711,29.2759194 60.6315077,28.9982325 C60.6695748,28.932819 60.7075966,28.8673951 60.7456742,28.8019369 C60.9308118,28.4834753 60.9155985,28.0882781 60.7064317,27.7844028 C60.4972649,27.4805274 60.1309826,27.3214104 59.7633246,27.3747195 C59.6878035,27.385661 59.6122719,27.3966473 59.5367056,27.4075786 C59.2161765,27.4540504 58.8931579,27.339197 58.675879,27.1013672 C58.6246854,27.0453554 58.573457,26.9892886 58.5222634,26.9332768 C58.2730173,26.6605464 57.8882122,26.5524756 57.531412,26.6550244 C57.1746465,26.7576283 56.9086329,27.0527992 56.8465609,27.4150259 C56.8337762,27.4894679 56.8210472,27.5638755 56.8082625,27.6383175 C56.754151,27.9541466 56.54403,28.2222583 56.2482946,28.3529866 C56.1786255,28.3837713 56.1089008,28.4145903 56.0392317,28.4453749" id="Fill-11-Copy-3" fill="#F4F8C7"></path>
            <path d="M43.7325778,20.4830014 C42.4858552,20.8397672 42.2099321,22.4436029 43.2687974,23.1786049 C43.368589,23.2479064 43.4683806,23.3170887 43.5681721,23.3863902 C43.9917671,23.6804148 44.237032,24.1614701 44.2218862,24.6686477 C44.2182218,24.788166 44.2146797,24.9076844 44.2111375,25.0272027 C44.1732729,26.2953852 45.6499924,27.0473248 46.6931012,26.2909718 C46.7913049,26.2196425 46.8896307,26.1483132 46.9879565,26.0771032 C47.4050779,25.7746097 47.9494731,25.6954079 48.4387815,25.8662166 C48.5540853,25.9065331 48.669267,25.9467304 48.7845709,25.987047 C50.007964,26.4140685 51.1965461,25.2748275 50.782234,24.0723682 C50.7432701,23.9590524 50.7041841,23.8457366 50.6650981,23.7324208 C50.499471,23.2514848 50.5905903,22.7215248 50.9081644,22.3199098 C50.9829164,22.2252017 51.0577906,22.1306128 51.1326648,22.0359047 C51.9266001,21.0316883 51.1844538,19.5757595 49.8853315,19.5889996 C49.7628212,19.5901924 49.640433,19.5915044 49.5180449,19.5926972 C48.9984448,19.5979456 48.51048,19.3494858 48.2174568,18.930456 C48.1483234,18.8318116 48.0793121,18.733048 48.0103008,18.6342843 C47.2775596,17.5865308 45.6303273,17.8259253 45.2417876,19.036615 C45.2051444,19.1506464 45.1685012,19.2647972 45.1318581,19.3788286 C44.9764911,19.8629852 44.5836763,20.2394321 44.085085,20.3820907 C43.9675826,20.4157276 43.8500802,20.4493645 43.7325778,20.4830014" id="Fill-1" fill="#F6F0C9"></path>
            <path d="M60.225885,30.3657302 C59.2364227,30.6488776 59.0174361,31.9217631 59.8578054,32.505098 C59.9370051,32.5600992 60.0162047,32.6150057 60.0954044,32.670007 C60.4315909,32.9033599 60.6262455,33.2851498 60.614225,33.6876716 C60.6113168,33.7825275 60.6085056,33.8773833 60.6056944,33.9722391 C60.5756431,34.9787331 61.7476427,35.5755106 62.5755068,34.9752305 C62.6534462,34.9186199 62.7314826,34.8620094 62.809519,34.8054935 C63.1405677,34.5654193 63.5726274,34.5025607 63.9609674,34.6381231 C64.0524784,34.6701204 64.1438924,34.702023 64.2354034,34.7340203 C65.2063503,35.0729263 66.1496694,34.1687667 65.8208503,33.2144339 C65.7899266,33.1245008 65.7589059,33.0345676 65.7278853,32.9446344 C65.5964352,32.5629392 65.6687521,32.142336 65.9207951,31.823594 C65.9801221,31.7484288 66.039546,31.6733583 66.09897,31.5981931 C66.7290773,30.801196 66.1400724,29.6456969 65.1090229,29.6562049 C65.0117925,29.6571515 64.9146591,29.6581929 64.8175256,29.6591395 C64.4051446,29.6633049 64.0178709,29.4661146 63.7853129,29.1335512 C63.730445,29.055262 63.6756742,28.9768782 63.6209033,28.8984944 C63.0393627,28.066944 61.7320354,28.2569396 61.4236706,29.2178044 C61.3945887,29.3083056 61.3655068,29.3989014 61.336425,29.4894025 C61.2131178,29.8736538 60.9013601,30.1724212 60.5056527,30.2856423 C60.4123968,30.3123383 60.3191409,30.3390342 60.225885,30.3657302" id="Fill-1-Copy" fill="#F6F0C9"></path>
            <path d="M50.3693365,25.3127837 C49.1028247,25.6752124 48.8225219,27.3045058 49.8981946,28.0511745 C49.9995702,28.121576 50.1009457,28.1918564 50.2023213,28.262258 C50.63264,28.5609497 50.881798,29.0496408 50.8664117,29.5648688 C50.8626892,29.6862842 50.8590909,29.8076997 50.8554925,29.9291151 C50.8170268,31.2174275 52.3171863,31.9813027 53.3768524,31.2129441 C53.4766148,31.1404825 53.5765014,31.068021 53.6763879,30.9956807 C54.1001303,30.6883857 54.6531668,30.6079268 55.1502419,30.7814467 C55.267376,30.8224032 55.3843859,30.8632385 55.50152,30.904195 C56.744332,31.3379947 57.9517805,30.1806704 57.5308921,28.9591245 C57.4913097,28.84401 57.4516033,28.7288956 57.4118968,28.6137811 C57.2436407,28.1252112 57.3362064,27.5868392 57.6588213,27.1788493 C57.7347599,27.0826379 57.8108226,26.9865476 57.8868853,26.8903362 C58.6934227,25.8701799 57.9394964,24.3911411 56.619753,24.4045913 C56.4952981,24.405803 56.3709673,24.4071359 56.2466364,24.4083477 C55.7187888,24.4136793 55.2230785,24.1612757 54.9254041,23.7355946 C54.8551733,23.6353845 54.7850666,23.5350532 54.7149599,23.4347218 C53.970588,22.3703374 52.297209,22.6135318 51.9025021,23.8434387 C51.8652772,23.9592802 51.8280524,24.0752428 51.7908276,24.1910843 C51.6329945,24.6829259 51.2339446,25.0653482 50.7274391,25.2102712 C50.6080716,25.244442 50.4887041,25.2786128 50.3693365,25.3127837" id="Fill-1-Copy-2" fill="#F6F0C9"></path>
            <path d="M54.3443866,32.204346 C53.6845514,32.3978348 53.195851,32.9460226 53.0859293,33.6159853 C52.9761543,34.2858577 53.2644666,34.9596276 53.828378,35.3507114 C53.9442281,35.4310915 54.0601058,35.511354 54.175956,35.5917341 C54.6676459,35.932731 54.9546897,36.4927167 54.9408789,37.0844132 C54.9376561,37.2239335 54.9344607,37.3633363 54.9312653,37.502739 C54.9154342,38.1813245 55.294621,38.8100759 55.907298,39.1214871 C56.5200944,39.4329256 57.2587593,39.372314 57.809216,38.9654908 C57.9222844,38.8819322 58.0353801,38.7982559 58.1484485,38.7146973 C58.6284083,38.3599049 59.256911,38.2651899 59.8236661,38.4622737 C59.9572514,38.5086701 60.0907174,38.5550392 60.2243027,38.6014355 C60.8743695,38.8274761 61.5973992,38.667762 62.0859632,38.1902911 C62.5745272,37.7128202 62.7427333,37.0016641 62.5189629,36.3591271 L62.3811133,35.9630957 C62.1859374,35.4029233 62.2874091,34.7843068 62.6514636,34.3143053 C62.7372816,34.2035779 62.8230996,34.0928506 62.9087982,33.9820959 C63.3262859,33.4431532 63.3941298,32.7157455 63.0833235,32.1093163 C62.7724253,31.5027421 62.1377454,31.1238545 61.4490613,31.1335688 C61.3075921,31.1355505 61.1660955,31.1376499 61.024507,31.1396043 C60.4240437,31.1480503 59.8582582,30.8604919 59.5164257,30.3731024 C59.4359251,30.2581808 59.3553971,30.1433767 59.2747496,30.0285454 C58.882834,29.4694909 58.2016208,29.1795832 57.520961,29.2821997 C56.8403286,29.3846986 56.2799172,29.8617289 56.0780036,30.5102911 C56.036495,30.6435375 55.9949864,30.776784 55.9534778,30.9100304 C55.7774671,31.4755522 55.3263537,31.9164838 54.7510682,32.0850672 C54.6155077,32.1248268 54.4799471,32.1645864 54.3443866,32.204346" id="Fill-3" fill="#EFE8A5"></path>
            <path d="M66.8017093,36.3185725 C66.4819826,36.6086314 66.3581346,37.0527711 66.4827859,37.4622786 C66.6074951,37.8716947 66.9587537,38.1744359 67.3872375,38.241694 C67.4752753,38.2555317 67.5632959,38.2692954 67.6513337,38.2831331 C68.0249406,38.3417773 68.3437371,38.5804223 68.5009873,38.9193149 C68.5380856,38.9992156 68.5751665,39.0790422 68.6122475,39.1588688 C68.7925939,39.5475248 69.1827612,39.7999138 69.6166368,39.8087101 C70.0505877,39.8174893 70.452031,39.5811261 70.6502935,39.2001589 C70.69102,39.1219086 70.7317292,39.0435842 70.7724556,38.9653339 C70.945307,38.633117 71.2748442,38.4075697 71.6508161,38.3641755 C71.7394177,38.3539153 71.827944,38.3436723 71.9165456,38.3334121 C72.3477806,38.283631 72.7127209,37.9954162 72.8562203,37.5913653 C72.9997197,37.1873143 72.8965864,36.7385349 72.5905954,36.4358297 L72.4020371,36.2492358 C72.1352192,35.9853579 72.0201067,35.6072423 72.0951723,35.2414768 C72.1128856,35.1552925 72.1305989,35.0691082 72.148237,34.982941 C72.2343319,34.563515 72.0698232,34.1329817 71.7246117,33.8745321 C71.3793076,33.6160257 70.9141456,33.5750313 70.5268103,33.7688976 C70.4472402,33.8087138 70.3676874,33.848604 70.288042,33.8884374 C69.9503179,34.0574558 69.5496544,34.0493433 69.2200805,33.8667997 C69.1424269,33.8237302 69.0647907,33.780735 68.9870791,33.7377569 C68.6091468,33.5283231 68.1424539,33.5504512 67.7855812,33.7947392 C67.4286911,34.0389531 67.2443771,34.4624058 67.3109572,34.8849538 C67.3246215,34.9717729 67.3382858,35.058592 67.3519501,35.1454111 C67.410034,35.5138432 67.2775515,35.8869564 66.9987624,36.1397843 C66.933078,36.1993804 66.8673937,36.2589764 66.8017093,36.3185725" id="Fill-3-Copy" fill="#EFE8A5"></path>
            <path d="M47.8330356,25.3001597 C47.5167035,25.5905453 47.3957564,26.0369162 47.5215822,26.4496112 C47.6474652,26.8622146 47.9979647,27.1685387 48.4240787,27.2382514 C48.5116297,27.2525936 48.5991632,27.2668612 48.6867143,27.2812033 C49.0582549,27.3419878 49.3761898,27.5836555 49.5340723,27.9254421 C49.5713195,28.0060252 49.6085491,28.0865336 49.6457788,28.1670421 C49.8268502,28.559017 50.2157733,28.8148536 50.6469659,28.8257593 C51.0782332,28.836648 51.4760252,28.6006855 51.6712215,28.2182401 C51.7113181,28.1396862 51.7513972,28.0610576 51.7914939,27.9825037 C51.9616716,27.6489975 52.2880609,27.4235792 52.661464,27.3816892 C52.74946,27.3717832 52.8373813,27.3618942 52.9253774,27.3519883 C53.353666,27.3039325 53.7149365,27.0156167 53.8556032,26.6096819 C53.9962699,26.2037471 53.8916392,25.7516328 53.5861231,25.4455593 L53.3978572,25.2568893 C53.1314538,24.9900747 53.0152569,24.6090158 53.0881026,24.2412854 C53.1052927,24.1546382 53.1224828,24.067991 53.1395983,23.9813608 C53.2231476,23.5596817 53.0576142,23.1256388 52.7133354,22.8639159 C52.3689645,22.6021354 51.9065281,22.5586794 51.5225523,22.7519422 C51.4436723,22.7916343 51.3648098,22.8314011 51.2858551,22.8711101 C50.9510601,23.0396023 50.5528743,23.029542 50.2244979,22.8442806 C50.1471262,22.8005704 50.069772,22.756935 49.9923431,22.7133165 C49.6157835,22.5007655 49.1521275,22.5208251 48.7986639,22.7649736 C48.4451828,23.0090475 48.2640506,23.4343139 48.3322323,23.8598574 C48.3462257,23.9472919 48.3602192,24.0347264 48.3742126,24.1221608 C48.4336928,24.493205 48.3038259,24.8680579 48.0279964,25.1211701 C47.9630095,25.1808333 47.8980225,25.2404965 47.8330356,25.3001597" id="Fill-3-Copy" fill="#EFE8A5" transform="translate(50.6949, 25.6965) rotate(-53) translate(-50.6949, -25.6965)"></path>
            <path d="M44.1680062,30.057816 C43.2775734,30.4512762 42.6932035,31.3134481 42.6634543,32.2775589 C42.6336137,33.2415252 43.1636007,34.1381704 44.0279601,34.5858098 C44.2055531,34.677826 44.383146,34.7698422 44.560739,34.8618584 C45.3144315,35.2521864 45.8213418,35.9888039 45.912046,36.8250792 C45.9333608,37.0221562 45.9546757,37.2192333 45.9760179,37.416193 C46.0799468,38.3753875 46.7290298,39.1918454 47.6471279,39.5184002 C48.5653447,39.8449821 49.591053,39.6242192 50.2883506,38.9501544 C50.4315636,38.8115767 50.5747493,38.6731163 50.7180811,38.5345657 C51.3258853,37.9467136 52.1907986,37.6980934 53.0231045,37.8719148 C53.2192468,37.9127965 53.4153617,37.9537956 53.611504,37.9946774 C54.5660279,38.1939651 55.5516004,37.8364678 56.1487965,37.0742572 C56.7461113,36.3120738 56.8500739,35.2790229 56.4165768,34.4146939 C56.3275735,34.2371236 56.2384515,34.0595262 56.1494482,33.8819559 C55.7714378,33.1282054 55.7989597,32.2379953 56.2227306,31.5090672 C56.3226568,31.3373567 56.4224642,31.1656191 56.5224177,30.9937912 C57.0084041,30.1578295 56.9684692,29.1204369 56.4194063,28.3227642 C55.8703433,27.5250914 54.9088523,27.1074092 53.94375,27.2473455 C53.7455071,27.2760671 53.5472368,27.3049061 53.3488752,27.3336006 C52.5074864,27.4555892 51.6595624,27.1540989 51.0892055,26.5297958 C50.9548223,26.3827649 50.8203478,26.2355895 50.6859646,26.0885586 C50.0316935,25.3726411 49.0215801,25.0889555 48.0849794,25.358146 C47.1484701,25.6274811 46.4501845,26.4023047 46.2872455,27.35315 C46.2536857,27.5485602 46.220272,27.7438801 46.1867122,27.9392903 C46.0446694,28.7683416 45.4931018,29.472135 44.7167964,29.8152968 C44.533915,29.8961064 44.3508876,29.9770063 44.1680062,30.057816" id="Fill-11" fill="#F4F8C7"></path>
            <path d="M62.3113391,34.740037 C61.8515916,34.8044172 61.4698094,35.1231243 61.3283881,35.5605736 C61.1869442,35.9979449 61.310682,36.4772574 61.6469973,36.7944966 C61.7160916,36.859697 61.7851859,36.9248974 61.8542802,36.9900978 C62.1475358,37.2667204 62.2819238,37.6697821 62.2125854,38.0643701 C62.1962173,38.157351 62.1798493,38.2503319 62.1635093,38.3432627 C62.0839301,38.7958348 62.272813,39.2539203 62.6497781,39.5227178 C63.0267939,39.7915431 63.5255699,39.8237948 63.9341084,39.605869 C64.0180333,39.5610484 64.1019301,39.5162779 64.1859058,39.4714852 C64.5420507,39.2813919 64.9709167,39.2799946 65.3288575,39.4677295 C65.4132211,39.5119342 65.4975565,39.556189 65.5819201,39.6003937 C65.9924295,39.8156695 66.4909593,39.7801157 66.8653617,39.5088322 C67.2398147,39.2375766 67.4243455,38.7782155 67.3404915,38.3262356 C67.3232898,38.2333868 67.3060373,38.1405101 67.2888355,38.0476612 C67.2157217,37.6535092 67.3463271,37.249598 67.6369332,36.9710105 C67.7054359,36.9053978 67.7738879,36.8397573 67.8424187,36.7740945 C68.175692,36.4545987 68.2949301,35.9745488 68.1493406,35.5380611 C68.003751,35.1015734 67.6190031,34.7854234 67.1586835,34.7240504 C67.0641317,34.7114332 66.9695518,34.6988662 66.8749492,34.6862212 C66.4736379,34.632711 66.125472,34.3845067 65.9471531,34.0246104 C65.9051306,33.939843 65.8630855,33.8549976 65.8210631,33.7702303 C65.6164776,33.3574923 65.1917103,33.0963593 64.727303,33.0978494 C64.2629184,33.0994303 63.840571,33.3633494 63.6399414,33.7774167 C63.5986758,33.8625029 63.5574891,33.9475668 63.5162235,34.0326531 C63.3413042,34.3936857 62.9955319,34.6441591 62.594693,34.7003479 C62.500268,34.7135702 62.4057642,34.7268147 62.3113391,34.740037" id="Fill-11-Copy" fill="#F4F8C7"></path>
            <g id="Group-30" transform="translate(24.8119, 22.5706) rotate(83) translate(-24.8119, -22.5706)translate(4.84, 0.0247)">
                <path d="M10.3704171,45.0628198 L6.04922331,45.0628198 C5.81810637,45.0628198 5.62313494,44.8907699 5.59437925,44.6614489 L0.0646336718,0.562785844 C0.0331340528,0.31158241 0.211239185,0.0824063039 0.46244262,0.050906685 C0.481361739,0.0485343247 0.500410445,0.047344678 0.519477725,0.047344678 L6.60761806,0.047344678 L6.60761806,0.047344678 L10.3704171,45.0628198 Z" id="Fill-18" fill="#CE3838"></path>
                <polygon id="Fill-20" fill="#F2F2F2" points="15.2733912 45.0730701 10.4789465 45.0730701 6.66224127 0.0575949268 13.3645207 0.0575949268"></polygon>
                <polygon id="Fill-24" fill="#F2F2F2" points="26.6591834 0.0764826226 24.7343733 45.0919578 19.8998936 45.0919578 19.8998936 0.0764826226"></polygon>
                <polygon id="Fill-26" fill="#CE3838" points="33.3733633 0.0412339542 29.556658 45.0567091 24.7622133 45.0567091 26.6710838 0.0412339542"></polygon>
                <path d="M39.879068,0.55575224 L34.3493224,44.6544152 C34.3205667,44.8837363 34.1255953,45.0557862 33.8944784,45.0557862 L29.5732846,45.0557862 L29.5732846,45.0557862 L33.3360836,0.0403110737 L39.424224,0.0403110737 C39.6773946,0.0403110737 39.88263,0.245546458 39.88263,0.498717134 C39.88263,0.517784414 39.8814404,0.53683312 39.879068,0.55575224 Z" id="Fill-28" fill="#F2F2F2"></path>
                <polygon id="Fill-22" fill="#CE3838" points="19.9519052 -1.7890506e-11 19.9519052 45.0154751 15.117723 45.0154751 13.1926155 -1.7890506e-11"></polygon>
            </g>
        </g>
    </g>
</svg>