<svg viewBox="0 0 153 157" xmlns="http://www.w3.org/2000/svg"><path d="m16.262018 51.8932952c-9.6166315 4.2916121-15.92779704 13.6956314-16.24908772 24.2115348-.32227717 10.5143275 5.40155723 20.2943602 14.73659652 25.176924 1.9179954 1.003654 3.8359908 2.007308 5.7539862 3.010961 8.1398426 4.257449 13.614449 12.292001 14.5940498 21.413557.2301993 2.14959.4603987 4.299181.6908935 6.447491 1.122427 10.46228 8.132492 19.36768 18.0479069 22.929531 9.9166969 3.562147 20.9942958 1.154206 28.5250766-6.198062 1.5466938-1.511517 3.093092-3.021754 4.6410678-4.532975 6.5642563-6.411914 15.9052784-9.123705 24.8941414-7.227773 2.118327.445912 4.236359.893104 6.354686 1.339017 10.308811 2.173702 20.952946-1.72565 27.402635-10.039354 6.45097-8.313409 7.573762-19.581268 2.892015-29.0088154-.961232-1.9368231-1.923745-3.873942-2.884976-5.810765-4.082495-8.2214281-3.78526-17.9312712.791446-25.8819526 1.079198-1.872908 2.157113-3.746112 3.236606-5.6203001 5.248629-9.1181359 4.817334-20.4333503-1.112519-29.1338543-5.929853-8.7005041-16.313909-13.256314-26.736967-11.729979-2.141013.3132774-4.282323.6278348-6.424618.9408162-9.086958 1.3305728-18.2444963-1.9578901-24.4043234-8.7673893-1.4513321-1.6037188-2.9036506-3.2090135-4.3549826-4.81273231-7.0660955-7.80877053-17.9752709-10.9030318-28.0905128-7.96687322-10.1142553 2.93773454-17.6557059 11.38901493-19.4154391 21.76022693-.362444 2.1314092-.7233105 4.2618343-1.0857545 6.3932435-1.5340554 9.0427612-7.4909587 16.7192893-15.8750196 20.4622777-1.9751098.8814204-3.9517971 1.7638247-5.926907 2.6452451" fill="#f4f8c7" fill-rule="evenodd"/></svg>