<svg viewBox="0 0 63 63" xmlns="http://www.w3.org/2000/svg"><path d="m38.0718756 5.77967176c.8718738.13500022 1.2468738 1.21312522.609375 1.85250091l-3.5625 3.43968773.84375 4.875c.046875.8812494-.7781267 1.5562506-1.5843745 1.1531239l-4.359375-2.296875-4.3968772 2.3250017c-.8062478.4031238-1.7156239-.2718773-1.5843745-1.1437512l.84375-4.8843755-3.5625-3.46781163c-.6374988-.63937569-.2624988-1.71750069.609375-1.85250091l4.9031267-.70687581 2.2124978-4.47918605c.4031267-.80821896 1.546875-.77456189 1.9125022 0l2.2124978 4.47918605zm-2.0718756 18.22031304c1.6593761 0 3 1.3406239 3 3v18c0 1.6593762-1.3406239 3-3 3h-12c-1.6593747 0-3-1.3406238-3-3v-18c0-1.6593761 1.3406253-3 3-3zm-21 6c1.6593747 0 3 1.3406239 3 3v12c0 1.6593762-1.3406253 3-3 3h-12c-1.65656233 0-3-1.3406238-3-3v-12c0-1.6593761 1.34343767-3 3-3zm27 9c0-1.6593761 1.3406239-3 3-3h12c1.6593761 0 3 1.3406239 3 3v6c0 1.6593762-1.3406239 3-3 3h-12c-1.6593761 0-3-1.3406238-3-3z" transform="translate(2 8)"/></svg>