<svg viewBox="0 0 63 63" xmlns="http://www.w3.org/2000/svg"><path d="m55.8366933 27.918345c0 15.4205227-12.4978256 27.918345-27.9183483 27.918345s-27.918345-12.4978223-27.918345-27.918345c0-7.8084128 3.21279153-14.8752425 8.37986701-19.94198499 1.37628829-1.34793433 3.58358309-1.32612179 4.93587889.05016484 1.3522958 1.37737826 1.3304849 3.58794285-.054528 4.94023705-3.879124 3.795152-6.28162832 9.0952743-6.28162832 14.9515831 0 11.5599397 9.28066922 20.9387588 20.93875872 20.9387588 11.5599398 0 20.9387588-9.3788191 20.9387588-20.9387588 0-10.3712296-7.546679-18.98774468-17.4489656-20.64976092v3.20079532c0 1.9302931-1.5595 3.4897931-3.4897932 3.4897931-1.9302915 0-3.4897931-1.5595-3.4897931-3.4897931v-6.97958627c0-1.92702161 1.5595016-3.48979313 3.4897931-3.48979313 15.4205227 0 27.918345 12.4978223 27.918345 27.918345zm-26.1625421-1.8539526c1.1123695 1.0251261 1.1123695 2.6827791 0 3.6097554-.9269763 1.1123696-2.5846294 1.1123696-3.6097555 0l-8.7244828-8.7244828c-1.0142214-.9269763-1.0142214-2.5846293 0-3.6097554 1.0251261-1.0142198 2.6827791-1.0142198 3.6097554 0z" transform="translate(4 4.1429)"/></svg>